<svg xmlns="http://www.w3.org/2000/svg" width="74.7" height="92.9" version="1.0">
  <g fill="#fff" stroke="#0d3594" stroke-width="1.4">
    <path d="M18.7.7C17 .7 15.2 1.9 15 3.6c2.5-.7 4.6 1.2 4.6 3.7v78.4c0 2.5-2.1 4.4-4.6 3.7.2 1.6 1.9 2.8 3.7 2.8 1.8 0 3.8-1 4-3.5 2.3-.2 3.5-1.8 3.5-4.8V9c0-3-1.2-4.5-3.6-4.8-.1-2.4-2-3.5-3.9-3.5z"/>
    <path d="M39.8 19.2c-14.5 0-27.5 6.2-32.2 19-.8 2.2-2.2 3-3.5 3A3 3 0 011.6 40c-1.3 1.5-1.2 3.6.2 4.8-1.4 1.2-1.5 3.3-.2 4.8A3 3 0 014 48.4c1.3 0 2.6.8 3.3 3 4.2 12.8 16.8 20.1 32.4 20.1a35 35 0 0025.7-10.4c1-1 2.2-1.3 3.4-1.3 1.7 0 3.3.8 4 1.7.6-2.7 0-5.4-3.7-6-1-2.5-4-4.7-6.1-4.6 1.3 1.2 2 5.6 0 8-4.1 5-12.8 9.1-21.9 9.1-12.1 0-23.9-7-26.3-18.7a5 5 0 010-9c2.8-11.5 15.9-17.8 26.3-17.8 11 0 18.2 4.2 22 8.4 2.2 2.6 2.2 5.7-.1 8 2 1.6 5.4.2 6-2.5 3.2-.9 5-3.4 4.9-6.5-1.7 1.3-5.4 2.8-7.6.4-9.3-10-17-11.1-26.6-11.1z"/>
    <path d="M35.9 3.2c-5.6.3-9.2 3.8-9.2 8 0 3 2.8 6.3 6.2 6.7-4-3-2.7-8.7 3.3-8.7 9.2 0 14.5 19.9 15.4 31.8a4.4 4.4 0 010 7.7A104 104 0 0148.8 67c3.4-.9 6.5-2.3 9.2-4 .5-2.8.8-5.7 1-8.8 0-5.2 2.2-8.3 4.8-9.8-2.6-1.5-4.4-5.5-4.9-9C56.7 17.7 47.7 3.2 36.5 3.2h-.6zm21.2 64.1a33.3 33.3 0 01-9.3 3.4c-2.4 7.4-6.2 13-12 13-6 0-7.7-5.2-4.2-8-2 .2-4.6 2.3-4.6 5.8 0 4.7 4 7.9 9.9 7.9 8.7 0 16.7-9 20.2-22.1z"/>
  </g>
</svg>

