<svg xmlns="http://www.w3.org/2000/svg" width="502.2" height="188.2" viewBox="0 0 2260 847">
  <path fill="#323232" stroke="none" d="M 365.00,0.75 C 365.00,0.75 335.00,17.58 335.00,17.58 335.00,17.58 276.00,51.72 276.00,51.72 276.00,51.72 85.00,161.99 85.00,161.99 85.00,161.99 20.00,199.42 20.00,199.42 16.70,201.34 2.47,209.10 1.02,211.39 -0.22,213.35 0.00,216.72 0.00,219.00 0.00,219.00 0.00,627.00 0.00,627.00 0.02,636.16 -0.10,635.34 14.00,643.42 14.00,643.42 50.00,664.15 50.00,664.15 50.00,664.15 213.00,758.28 213.00,758.28 213.00,758.28 329.00,825.28 329.00,825.28 329.00,825.28 357.00,841.42 357.00,841.42 360.43,843.39 364.90,846.90 369.00,845.65 369.00,845.65 399.00,828.60 399.00,828.60 399.00,828.60 454.00,796.85 454.00,796.85 454.00,796.85 650.00,683.72 650.00,683.72 650.00,683.72 714.00,646.80 714.00,646.80 718.20,644.29 731.75,637.73 733.40,633.82 734.12,632.10 734.00,628.91 734.00,627.00 734.00,627.00 734.00,219.00 734.00,219.00 733.98,209.99 734.23,211.18 720.00,203.00 720.00,203.00 682.00,181.15 682.00,181.15 682.00,181.15 515.00,84.72 515.00,84.72 515.00,84.72 406.00,21.72 406.00,21.72 406.00,21.72 379.00,6.15 379.00,6.15 374.37,3.51 370.47,0.20 365.00,0.75 Z M 903.00,44.00 C 903.00,44.00 903.00,255.00 903.00,255.00 903.00,255.00 920.00,255.00 920.00,255.00 920.00,255.00 920.00,159.00 920.00,159.00 920.00,159.00 1014.00,159.00 1014.00,159.00 1014.00,159.00 1014.00,145.00 1014.00,145.00 1014.00,145.00 920.00,145.00 920.00,145.00 920.00,145.00 920.00,58.00 920.00,58.00 920.00,58.00 1031.00,58.00 1031.00,58.00 1031.00,58.00 1031.00,44.00 1031.00,44.00 1031.00,44.00 903.00,44.00 903.00,44.00 Z M 1070.00,44.00 C 1070.00,44.00 1070.00,163.00 1070.00,163.00 1070.00,186.33 1067.55,208.05 1082.51,228.00 1094.26,243.66 1114.21,254.76 1134.00,255.00 1144.11,255.11 1154.10,255.52 1164.00,253.10 1186.05,247.72 1202.86,232.21 1210.56,211.00 1213.00,204.29 1213.99,197.11 1214.00,190.00 1214.00,190.00 1214.00,44.00 1214.00,44.00 1214.00,44.00 1198.00,44.00 1198.00,44.00 1198.00,44.00 1198.00,155.00 1198.00,155.00 1198.00,175.22 1199.57,198.21 1188.53,216.00 1179.84,230.00 1163.56,239.80 1147.00,240.00 1133.40,240.16 1122.87,239.79 1111.00,231.90 1095.33,221.46 1087.03,203.49 1087.00,185.00 1087.00,185.00 1087.00,44.00 1087.00,44.00 1087.00,44.00 1070.00,44.00 1070.00,44.00 Z M 1251.00,44.00 C 1251.00,44.00 1251.00,58.00 1251.00,58.00 1251.00,58.00 1314.00,58.00 1314.00,58.00 1314.00,58.00 1314.00,255.00 1314.00,255.00 1314.00,255.00 1331.00,255.00 1331.00,255.00 1331.00,255.00 1331.00,58.00 1331.00,58.00 1331.00,58.00 1393.00,58.00 1393.00,58.00 1393.00,58.00 1393.00,44.00 1393.00,44.00 1393.00,44.00 1251.00,44.00 1251.00,44.00 Z M 1430.00,44.00 C 1430.00,44.00 1430.00,163.00 1430.00,163.00 1430.00,186.33 1427.55,208.05 1442.51,228.00 1454.26,243.66 1474.21,254.76 1494.00,255.00 1504.11,255.11 1514.10,255.52 1524.00,253.10 1546.05,247.72 1562.86,232.21 1570.56,211.00 1573.00,204.29 1573.99,197.11 1574.00,190.00 1574.00,190.00 1574.00,44.00 1574.00,44.00 1574.00,44.00 1558.00,44.00 1558.00,44.00 1558.00,44.00 1558.00,155.00 1558.00,155.00 1558.00,175.22 1559.57,198.21 1548.53,216.00 1539.84,230.00 1523.56,239.80 1507.00,240.00 1493.40,240.16 1482.87,239.79 1471.00,231.90 1455.33,221.46 1447.03,203.49 1447.00,185.00 1447.00,185.00 1447.00,44.00 1447.00,44.00 1447.00,44.00 1430.00,44.00 1430.00,44.00 Z M 1636.00,44.00 C 1636.00,44.00 1636.00,255.00 1636.00,255.00 1636.00,255.00 1653.00,255.00 1653.00,255.00 1653.00,255.00 1653.00,158.00 1653.00,158.00 1653.00,158.00 1701.00,158.00 1701.00,158.00 1701.00,158.00 1708.61,159.02 1708.61,159.02 1708.61,159.02 1713.75,167.00 1713.75,167.00 1713.75,167.00 1722.86,185.00 1722.86,185.00 1722.86,185.00 1739.26,217.00 1739.26,217.00 1739.26,217.00 1749.75,237.00 1749.75,237.00 1749.75,237.00 1759.39,253.98 1759.39,253.98 1759.39,253.98 1767.00,255.00 1767.00,255.00 1767.00,255.00 1779.00,255.00 1779.00,255.00 1779.00,255.00 1767.78,233.00 1767.78,233.00 1767.78,233.00 1753.78,206.00 1753.78,206.00 1753.78,206.00 1729.00,158.00 1729.00,158.00 1744.72,154.83 1757.87,148.53 1767.23,135.00 1772.65,127.16 1775.88,116.52 1776.00,107.00 1776.25,85.21 1774.57,67.86 1755.00,54.04 1738.70,42.53 1723.65,44.00 1705.00,44.00 1705.00,44.00 1636.00,44.00 1636.00,44.00 Z M 1829.00,44.00 C 1829.00,44.00 1829.00,255.00 1829.00,255.00 1829.00,255.00 1957.00,255.00 1957.00,255.00 1957.00,255.00 1957.00,241.00 1957.00,241.00 1957.00,241.00 1846.00,241.00 1846.00,241.00 1846.00,241.00 1846.00,155.00 1846.00,155.00 1846.00,155.00 1940.00,155.00 1940.00,155.00 1940.00,155.00 1940.00,141.00 1940.00,141.00 1940.00,141.00 1846.00,141.00 1846.00,141.00 1846.00,141.00 1846.00,58.00 1846.00,58.00 1846.00,58.00 1957.00,58.00 1957.00,58.00 1957.00,58.00 1957.00,44.00 1957.00,44.00 1957.00,44.00 1829.00,44.00 1829.00,44.00 Z M 1653.00,144.00 C 1653.00,144.00 1653.00,58.00 1653.00,58.00 1653.00,58.00 1715.00,58.72 1715.00,58.72 1724.96,59.89 1730.43,58.92 1740.00,64.46 1744.33,66.97 1748.38,70.04 1751.47,74.00 1756.65,80.65 1758.18,86.88 1759.15,95.00 1761.39,113.69 1755.00,130.84 1737.00,139.10 1729.62,142.49 1716.18,143.90 1708.00,144.00 1708.00,144.00 1653.00,144.00 1653.00,144.00 Z M 221.00,243.29 C 253.60,240.22 274.71,276.37 255.96,303.00 252.75,307.55 249.70,310.33 245.00,313.29 240.73,315.98 235.00,317.98 230.00,318.70 194.89,323.76 173.20,281.00 197.18,255.04 203.47,248.23 212.05,244.78 221.00,243.29 Z M 363.00,243.29 C 395.59,240.22 416.84,276.18 397.96,303.00 394.95,307.27 391.42,310.65 387.00,313.44 382.72,316.14 377.01,318.05 372.00,318.71 337.00,323.32 314.87,280.82 339.18,255.09 345.64,248.25 353.90,244.80 363.00,243.29 Z M 505.00,243.29 C 536.49,240.33 558.84,274.58 539.90,303.00 536.92,307.46 533.51,310.45 529.00,313.29 524.73,315.98 519.00,317.98 514.00,318.70 481.38,323.40 458.68,285.65 477.79,259.00 484.70,249.36 493.66,245.17 505.00,243.29 Z M 1123.00,313.22 C 1115.76,314.79 1108.54,316.88 1102.00,320.32 1096.45,323.24 1088.56,328.78 1084.17,333.17 1063.68,353.66 1065.00,382.41 1065.00,409.00 1065.00,409.00 1065.00,456.00 1065.00,456.00 1065.13,466.68 1069.11,482.78 1074.46,492.00 1084.97,510.10 1107.79,524.75 1129.00,525.00 1129.00,525.00 1143.00,525.00 1143.00,525.00 1163.38,524.90 1184.10,513.24 1196.08,497.00 1206.67,482.65 1206.94,470.78 1208.09,454.00 1208.09,454.00 1209.00,444.00 1209.00,444.00 1209.00,444.00 1209.00,396.00 1209.00,396.00 1209.00,396.00 1207.96,384.00 1207.96,384.00 1207.96,384.00 1207.96,375.00 1207.96,375.00 1205.83,354.10 1198.28,338.79 1181.00,326.16 1175.76,322.33 1171.07,319.72 1165.00,317.42 1157.20,314.48 1150.34,313.01 1142.00,313.22 1142.00,313.22 1123.00,313.22 1123.00,313.22 Z M 1314.00,313.22 C 1306.76,314.79 1299.54,316.88 1293.00,320.32 1287.45,323.24 1279.56,328.78 1275.17,333.17 1254.68,353.66 1256.00,382.41 1256.00,409.00 1256.00,409.00 1256.00,456.00 1256.00,456.00 1256.13,466.68 1260.11,482.78 1265.46,492.00 1275.97,510.10 1298.79,524.75 1320.00,525.00 1320.00,525.00 1334.00,525.00 1334.00,525.00 1354.38,524.90 1375.10,513.24 1387.08,497.00 1397.67,482.65 1397.94,470.78 1399.09,454.00 1399.09,454.00 1400.00,444.00 1400.00,444.00 1400.00,444.00 1400.00,396.00 1400.00,396.00 1400.00,396.00 1398.96,384.00 1398.96,384.00 1398.96,384.00 1398.96,375.00 1398.96,375.00 1396.83,354.10 1389.28,338.79 1372.00,326.16 1366.76,322.33 1362.07,319.72 1356.00,317.42 1348.20,314.48 1341.34,313.01 1333.00,313.22 1333.00,313.22 1314.00,313.22 1314.00,313.22 Z M 903.00,314.00 C 903.00,314.00 903.00,525.00 903.00,525.00 903.00,525.00 920.00,525.00 920.00,525.00 920.00,525.00 920.00,429.00 920.00,429.00 920.00,429.00 1014.00,429.00 1014.00,429.00 1014.00,429.00 1014.00,415.00 1014.00,415.00 1014.00,415.00 920.00,415.00 920.00,415.00 920.00,415.00 920.00,328.00 920.00,328.00 920.00,328.00 1031.00,328.00 1031.00,328.00 1031.00,328.00 1031.00,314.00 1031.00,314.00 1031.00,314.00 903.00,314.00 903.00,314.00 Z M 1456.00,314.00 C 1456.00,314.00 1456.00,525.00 1456.00,525.00 1456.00,525.00 1512.00,525.00 1512.00,525.00 1512.00,525.00 1534.00,525.00 1534.00,525.00 1554.51,524.97 1573.31,516.09 1584.97,499.00 1594.06,485.68 1598.81,465.05 1599.00,449.00 1599.00,449.00 1599.00,443.00 1599.00,443.00 1599.00,443.00 1600.00,429.00 1600.00,429.00 1600.00,429.00 1600.00,406.00 1600.00,406.00 1600.00,406.00 1599.00,387.00 1599.00,387.00 1598.73,363.88 1590.29,337.23 1570.00,324.24 1564.57,320.76 1561.08,319.29 1555.00,317.34 1547.87,315.06 1541.48,314.01 1534.00,314.00 1534.00,314.00 1456.00,314.00 1456.00,314.00 Z M 1127.00,328.15 C 1127.00,328.15 1140.00,328.15 1140.00,328.15 1147.00,328.01 1150.38,328.55 1157.00,331.06 1161.67,332.84 1165.96,335.21 1170.00,338.16 1182.50,347.28 1188.74,359.87 1190.94,375.00 1190.94,375.00 1190.94,383.00 1190.94,383.00 1190.94,383.00 1192.00,418.00 1192.00,418.00 1192.00,418.00 1190.94,455.00 1190.94,455.00 1190.94,455.00 1190.94,463.00 1190.94,463.00 1188.91,476.81 1183.11,489.58 1172.00,498.33 1167.89,501.57 1163.81,504.06 1159.00,506.13 1153.37,508.54 1148.13,509.92 1142.00,510.00 1142.00,510.00 1132.00,510.00 1132.00,510.00 1111.53,509.76 1093.64,496.07 1086.69,477.00 1081.11,461.69 1082.02,454.63 1082.00,439.00 1082.00,439.00 1081.00,424.00 1081.00,424.00 1081.00,424.00 1082.00,404.00 1082.00,404.00 1082.27,380.42 1080.38,359.97 1099.00,342.04 1102.66,338.52 1105.59,336.50 1110.00,334.04 1115.47,330.99 1120.88,329.44 1127.00,328.15 Z M 1318.00,328.15 C 1318.00,328.15 1331.00,328.15 1331.00,328.15 1338.00,328.01 1341.38,328.55 1348.00,331.06 1352.67,332.84 1356.96,335.21 1361.00,338.16 1373.50,347.28 1379.74,359.87 1381.94,375.00 1381.94,375.00 1381.94,383.00 1381.94,383.00 1381.94,383.00 1383.00,418.00 1383.00,418.00 1383.00,418.00 1381.94,455.00 1381.94,455.00 1381.94,455.00 1381.94,463.00 1381.94,463.00 1379.91,476.81 1374.11,489.58 1363.00,498.33 1358.89,501.57 1354.81,504.06 1350.00,506.13 1344.37,508.54 1339.13,509.92 1333.00,510.00 1333.00,510.00 1323.00,510.00 1323.00,510.00 1302.53,509.76 1284.64,496.07 1277.69,477.00 1272.11,461.69 1273.02,454.63 1273.00,439.00 1273.00,439.00 1272.00,424.00 1272.00,424.00 1272.00,424.00 1273.00,404.00 1273.00,404.00 1273.27,380.42 1271.38,359.97 1290.00,342.04 1293.66,338.52 1296.59,336.50 1301.00,334.04 1306.47,330.99 1311.88,329.44 1318.00,328.15 Z M 1473.00,511.00 C 1473.00,511.00 1473.00,328.00 1473.00,328.00 1473.00,328.00 1514.00,328.00 1514.00,328.00 1514.00,328.00 1526.00,328.91 1526.00,328.91 1540.51,329.90 1550.99,330.96 1563.00,340.52 1573.78,349.10 1578.86,362.82 1581.08,376.00 1583.65,391.26 1583.00,400.83 1583.00,416.00 1583.00,431.30 1583.06,446.86 1580.73,462.00 1578.72,474.96 1574.35,488.94 1564.00,497.68 1552.51,507.36 1541.31,509.10 1527.00,510.09 1527.00,510.09 1517.00,511.00 1517.00,511.00 1517.00,511.00 1473.00,511.00 1473.00,511.00 Z M 225.00,385.57 C 232.85,385.99 239.37,387.42 246.00,391.91 277.03,412.92 262.43,461.43 225.00,461.43 187.23,461.43 173.30,413.29 204.00,391.80 210.18,387.47 217.61,385.97 225.00,385.57 Z M 367.00,385.57 C 373.98,385.94 381.05,387.20 387.00,391.11 419.01,412.14 405.28,461.43 367.00,461.43 329.57,461.43 314.97,412.92 346.00,391.91 352.63,387.42 359.15,385.99 367.00,385.57 Z M 223.00,527.30 C 262.39,525.28 278.38,578.35 244.00,598.12 239.88,600.49 234.74,602.32 230.00,602.83 191.94,606.91 173.47,562.54 198.17,538.18 205.24,531.22 213.50,528.69 223.00,527.30 Z M 1196.00,756.00 C 1193.59,757.72 1186.11,763.55 1185.17,766.09 1183.78,769.82 1188.48,773.33 1191.00,775.33 1198.26,781.09 1206.35,785.66 1215.00,788.94 1223.56,792.18 1234.84,794.89 1244.00,795.00 1244.00,795.00 1262.00,795.00 1262.00,795.00 1281.85,794.97 1305.33,786.18 1316.45,769.00 1319.20,764.77 1321.21,759.85 1322.57,755.00 1324.08,749.65 1325.11,741.56 1324.99,736.00 1324.88,731.29 1323.64,724.53 1322.28,720.00 1312.43,687.17 1278.82,684.01 1250.00,679.87 1228.73,676.82 1205.31,667.18 1205.00,642.00 1204.91,634.28 1204.73,629.32 1207.88,622.00 1214.57,606.42 1231.44,597.20 1248.00,597.00 1257.93,596.89 1264.30,596.64 1274.00,599.75 1280.73,601.90 1287.17,605.05 1293.00,609.03 1295.27,610.58 1300.53,614.95 1303.00,615.13 1306.10,615.35 1311.01,610.59 1312.26,608.00 1314.62,603.09 1306.40,598.60 1303.00,596.44 1291.76,589.28 1275.43,583.16 1262.00,583.00 1252.31,582.89 1242.54,582.50 1233.00,584.45 1213.74,588.39 1196.18,601.74 1190.44,621.00 1188.26,628.31 1187.99,634.49 1188.00,642.00 1188.01,648.47 1188.89,654.88 1191.09,661.00 1202.08,691.63 1235.93,693.44 1263.00,697.92 1274.90,699.89 1290.12,703.01 1298.68,712.17 1314.82,729.45 1308.83,758.37 1290.00,770.90 1275.86,780.31 1263.08,780.18 1247.00,780.00 1226.63,779.76 1210.10,769.98 1196.00,756.00 Z M 903.00,584.00 C 903.00,584.00 903.00,795.00 903.00,795.00 903.00,795.00 920.00,795.00 920.00,795.00 920.00,795.00 920.00,584.00 920.00,584.00 920.00,584.00 903.00,584.00 903.00,584.00 Z M 984.00,584.00 C 984.00,584.00 984.00,795.00 984.00,795.00 984.00,795.00 1001.00,795.00 1001.00,795.00 1001.00,795.00 1001.00,615.00 1001.00,615.00 1001.00,615.00 1029.67,658.00 1029.67,658.00 1029.67,658.00 1091.33,751.00 1091.33,751.00 1091.33,751.00 1113.00,784.00 1113.00,784.00 1117.11,790.17 1118.12,794.86 1126.00,795.00 1126.00,795.00 1137.00,795.00 1137.00,795.00 1137.00,795.00 1137.00,584.00 1137.00,584.00 1137.00,584.00 1120.00,584.00 1120.00,584.00 1120.00,584.00 1120.00,763.00 1120.00,763.00 1120.00,763.00 1030.00,627.00 1030.00,627.00 1030.00,627.00 1008.67,595.00 1008.67,595.00 1004.35,588.53 1003.37,584.16 995.00,584.00 995.00,584.00 984.00,584.00 984.00,584.00 Z M 1350.00,584.00 C 1350.00,584.00 1350.00,598.00 1350.00,598.00 1350.00,598.00 1413.00,598.00 1413.00,598.00 1413.00,598.00 1413.00,795.00 1413.00,795.00 1413.00,795.00 1430.00,795.00 1430.00,795.00 1430.00,795.00 1430.00,598.00 1430.00,598.00 1430.00,598.00 1492.00,598.00 1492.00,598.00 1492.00,598.00 1492.00,584.00 1492.00,584.00 1492.00,584.00 1350.00,584.00 1350.00,584.00 Z M 1532.00,584.00 C 1532.00,584.00 1532.00,795.00 1532.00,795.00 1532.00,795.00 1549.00,795.00 1549.00,795.00 1549.00,795.00 1549.00,584.00 1549.00,584.00 1549.00,584.00 1532.00,584.00 1532.00,584.00 Z M 1589.00,584.00 C 1589.00,584.00 1589.00,598.00 1589.00,598.00 1589.00,598.00 1652.00,598.00 1652.00,598.00 1652.00,598.00 1652.00,795.00 1652.00,795.00 1652.00,795.00 1669.00,795.00 1669.00,795.00 1669.00,795.00 1669.00,598.00 1669.00,598.00 1669.00,598.00 1731.00,598.00 1731.00,598.00 1731.00,598.00 1731.00,584.00 1731.00,584.00 1731.00,584.00 1589.00,584.00 1589.00,584.00 Z M 1768.00,584.00 C 1768.00,584.00 1768.00,703.00 1768.00,703.00 1768.00,726.33 1765.55,748.05 1780.51,768.00 1792.26,783.66 1812.21,794.76 1832.00,795.00 1842.11,795.11 1852.10,795.52 1862.00,793.10 1884.05,787.72 1900.86,772.21 1908.56,751.00 1911.00,744.29 1911.99,737.11 1912.00,730.00 1912.00,730.00 1912.00,584.00 1912.00,584.00 1912.00,584.00 1896.00,584.00 1896.00,584.00 1896.00,584.00 1896.00,695.00 1896.00,695.00 1896.00,715.22 1897.57,738.21 1886.53,756.00 1877.84,770.00 1861.56,779.80 1845.00,780.00 1831.40,780.16 1820.87,779.79 1809.00,771.90 1793.33,761.46 1785.03,743.49 1785.00,725.00 1785.00,725.00 1785.00,584.00 1785.00,584.00 1785.00,584.00 1768.00,584.00 1768.00,584.00 Z M 1949.00,584.00 C 1949.00,584.00 1949.00,598.00 1949.00,598.00 1949.00,598.00 2012.00,598.00 2012.00,598.00 2012.00,598.00 2012.00,795.00 2012.00,795.00 2012.00,795.00 2029.00,795.00 2029.00,795.00 2029.00,795.00 2029.00,598.00 2029.00,598.00 2029.00,598.00 2091.00,598.00 2091.00,598.00 2091.00,598.00 2091.00,584.00 2091.00,584.00 2091.00,584.00 1949.00,584.00 1949.00,584.00 Z M 2132.00,584.00 C 2132.00,584.00 2132.00,795.00 2132.00,795.00 2132.00,795.00 2260.00,795.00 2260.00,795.00 2260.00,795.00 2260.00,781.00 2260.00,781.00 2260.00,781.00 2149.00,781.00 2149.00,781.00 2149.00,781.00 2149.00,695.00 2149.00,695.00 2149.00,695.00 2243.00,695.00 2243.00,695.00 2243.00,695.00 2243.00,681.00 2243.00,681.00 2243.00,681.00 2149.00,681.00 2149.00,681.00 2149.00,681.00 2149.00,598.00 2149.00,598.00 2149.00,598.00 2260.00,598.00 2260.00,598.00 2260.00,598.00 2260.00,584.00 2260.00,584.00 2260.00,584.00 2132.00,584.00 2132.00,584.00 Z"/>
</svg>

