<svg xmlns="http://www.w3.org/2000/svg" height="560.1" width="2139.8">
  <path d="M414.5 7.6l137 137v269.9l-137 137H144.6l-137-137V144.6l137-137z" color="#000" fill="#055e0a"/>
  <path d="M163 52L52 163v233l111 111h233l111-111V163L396 52z" color="#000" fill="#fff"/>
  <path d="M178.5 89.3l-89.2 89.2v202l89.2 89.3h202l89.3-89.2V178.5l-89.2-89.2h-202z" color="#000" fill="#e70000"/>
  <path d="M279.6 142.5v274l137-137z" fill="#0075d0"/>
  <path d="M279.6 142.5v274l-137.1-137zm0 274.1l-135 135-137-137.1 134.9-135zm52 52l137.1-137-52-52-137.1 137z" fill="#e70000"/>
  <path d="M305.4 442.4l137-137m-94.6 43l52.1 52v0" color="#000" fill="none" stroke="#fff" stroke-width="23.9"/>
  <path d="M142.5 279.6l-135-135 137.1-137 135 134.9zm326.2 52l82.8 82.9-137 137-82.9-82.8z" fill="#0075d0"/>
  <path d="M387 250L279.5 142.4 387 35z" fill="#273792"/>
  <path d="M387 250l29.6 29.6 37-37V46.6L414.5 7.6 387 35z" fill="#8a8e01" stroke="#000" stroke-width="2.7"/>
  <path d="M551.5 144.6l-97.9 98V46.6z" fill="#0075d0" stroke="#000" stroke-width="2.7"/>
  <path d="M400.8 530.7c1.2-.3 5-2.2 5.4-3.6a5.3 5.3 0 004.2-3.2s2 0 3.5-3.9c0 0 3.1-2 3.2-3.2 1.3.2 2.6-2 2.4-3.6 1-.2 3.8-2 3.6-3.6 1.2-.1 3.5-2.2 3.5-2.2 2.6 0 4.2-2.8 4.6-4.2.6-.2.6-2.6 2.3-2-1.4-2.5 1.8-2.5 1.8-2.6.7-2 4.8-1.5 4.4-4.6 1.9 0 3.7-3.5 3.4-5.1 1.4-.3 3-3.2 4.6-3-.8-2 1.1-2 .3-2.9 0 0 5-2 4.2-3.3 1.6 0 3-3.5 2.6-5 1 .6 4-2.6 5.3-2.8-.5-1.2 3.4-3.1 2.5-4.5 3.2.3 6.3-7.3 6.3-7.3.9.1 6.7-2.5 6.7-4.4.8 0 2.3-2.7 3.6-2.5-.6-1.2 3-3.2 3-3.2 3.3.7 3-1.8 3.8-3 1.9 0 2.9-1 2.4-3.7 1.6.5 2.7-2.5 4.5-2.2-.3-1.4 1.3-3.7.8-4.8 1.3.1 3.6-2 5.3-1.7 0-1.7 3.5-2.6 3-3.6 1.7 0 7.7-3.1 6-5.5 2.2.1 4.4-4 4.6-5.5 1.8-.1 4.9-2.5 5-3.9 1.4.2 5.1-2.9 5.3-4.1 1.3-.3 4.3-3.8 3.6-4.6 0 0 2-1.7 1.6-3 1.4-.4 3.3-4 6-3.4.6-1.7 4.1 2.8 6 3.7 5.2 4.1 6.2 5.6 11.5 9.8l-137.1 137c-5.7-7.9-8-12.9-13.7-20.8z" fill="#8a8e01" stroke="#000" stroke-width="1.6"/>
  <path style="text-indent:0;text-align:start;text-transform:none" d="M464.3 369.2a8.6 8.6 0 00-3.2 1 26.7 26.7 0 00-8 7.4 15.3 15.3 0 00-2.6 12.2 12 12 0 002.1 4.8c1 1.3 2.2 2.2 3.6 2.4 2.7.4 5-.5 7.3-1 1.1-.3 2.2-.4 3.2-.3 1 0 2 .4 2.8 1.1 1.7 1.6 1.8 4 1.4 6-.3 1.9-1 3.2-1 3.4a.4.4 0 01-.2.1.4.4 0 01-.1.2h-.3c-1-.3-11.1-3.4-18.6 2a18 18 0 00-6.5 8.8c-1.2 3-2.2 6-4.8 8.7-2.6 2.7-7 5-10.8 7.3l-1.5 1a.4.4 0 01-.1 0h-.4a.4.4 0 01-.1-.1.4.4 0 01-.1-.1v-.1c0-.5-.2-1.1-.4-1.7a6 6 0 00-.6-1.8 2 2 0 00-3-.6l-1 1c-.8.8-1.7 1.7-3 1.7a2.2 2.2 0 01-1.5-.5 7.7 7.7 0 01-1.3-1.4l-1-1.3a1.6 1.6 0 00-1.4-.4c-.5 0-.8.3-1.1.7l-.8 1.4-.8 1.3c-.2.3-.5.6-1 .6-1 .2-2-.4-2.9-.9l-1.4-.7-1.1-.3c-.3 0-.4 0-.6.2l-.6.7c-.4.6-1 1.3-1.3 2l-.3.8a.4.4 0 01-.1 0 .4.4 0 01-.1.1.4.4 0 01-.1.1h-.3a.5.5 0 01-.1 0 .4.4 0 01-.1-.2.4.4 0 01-.1-.1v-.1-1.7c0-1-.2-2.1-.4-3l-.5-.9-.6-.5a1.1 1.1 0 00-.8.3 4 4 0 00-.7.8l-1.3 2.6c-.9 2-1.8 4.5-3 5.8-1 1.3-2.6 2.2-4 3-1.3 1-2.6 1.7-3.3 2.9-.6 1-.4 2.5-.3 3.8v1.8c0 .5 0 1-.3 1.4 0 .2-.1.2-.2.3l-.4.2-1 .3-2.9.4-2.5.3c-.4 0-.7 0-.9.2h-.2v.2a.4.4 0 01-.1.2v.7l.8 1 1.1.4 1.7.4.1.1.1.1v.4a.4.4 0 010 .1.4.4 0 010 .1h-.3c-.3.3-.5.7-.5 1.1-.1 1 .6 1.8 1.3 2.5l1.2.8v.1l.2.1v.3c-.2.4-.4.7-.4 1.5 0 .5 0 1 .2 1.5.3.5.8 1 1.6 1.2 1.4.4 2.3-.1 3-.7h.3a.5.5 0 01.1 0h.2v.1l.2.2v.2l-.8 1.7a10.8 10.8 0 00-.6 3l.1 1.1c.1.4.3.8.6 1 .6.3 1.5.2 2.5 0 1-.1 2-.5 3-.8 1.5-.5 2-.8 2.7-1.1h.3l.2.2v.4c-.2.7-.5 1.5-.7 3a5.2 5.2 0 00.2 2.8c.3.7 1 1.4 2.2 1.4 1.1 0 2-.8 2.8-1.7.8-1 1.4-2.3 1.9-3.5.7-2 .9-3.2 1-4a.5.5 0 010-.1.4.4 0 01.2-.1l.1-.1h.4v.2c.5.5 1 1.2 2.4 2.4 1.7 1.5 4 2.9 6.3 2.3a2.6 2.6 0 001.2-.7h.1l.2-.1h.4a27.8 27.8 0 005.8 5c1 .6 1.6 1 2.2 1 1.1 0 1.9-.6 2.4-1 .3-.4.6-.5.8-.7l.2-.1.5-.2v.4l.3-.3.6.1 1.4.9 3.5 2.3 4.6 3.2v.1l.1.1v.3c0 .3-.5 2.5-.7 5.3a24 24 0 00.1 4.5c.2 1.3.5 2.3 1.2 2.9.7.5 1.6.5 2.5.2a8.4 8.4 0 002.7-1.4c.9-.7 1.7-1.5 2.3-2.3a5.5 5.5 0 001.2-2.2v-1.2c0-.3-.2-.5-.3-.6l-1.6-.8v-.1h-.2v-.2a.7.7 0 010-.2.6.6 0 01.2-.4l.4-.6-.1-.8c-.2-.3-.4-.5-.6-.5a2.1 2.1 0 00-.9 0h-.3a.5.5 0 01-.2-.1.4.4 0 010-.1.4.4 0 01-.1-.2v-.2a.4.4 0 010-.1l.4-.3.4-.7v-.7c-.1-.2-.4-.3-.6-.3l-.6.1h-.3a.5.5 0 01-.2 0 .4.4 0 010-.1.4.4 0 01-.2-.2v-.1a43 43 0 01.4-5.3s.1-.4.3-.5l.7-.3c.5-.3 1.1-.6 1.4-1.2.1-.5 0-1-.1-1.8a32.6 32.6 0 00-.6-2.7l-1-3v-.2a.4.4 0 01.1-.2.4.4 0 01.1 0c.4-.3.8-.5 1.4-.5.8 0 1.9.2 3.1.7a26.4 26.4 0 013.8 2c1.2.7 2.3 1.4 3.1 2.2l1 1 .2.5.1.4c0 .9-.5 1.6-1 2.4-.7.8-1.5 1.7-2.1 2.8a6.7 6.7 0 00-.7 3.9c0 .5.2 1 .6 1.2.3.3.8.5 1.3.3a8.4 8.4 0 002.6-1.6 77.4 77.4 0 006.8-6.6l1.1-1.3.7-.8.5-1.2c.2-.5.3-1 0-1.6-.1-.3-.3-.3-.5-.5l-.3-.3-.2-.2V469.5l.2-.5.2-.4v-.5l-.4-.2-.5-.3h-.3-.3a.4.4 0 01-.1-.1.4.4 0 01-.1-.1.4.4 0 010-.2v-.3-.5l.2-.6-.1-.4a2.2 2.2 0 00-1.5-1 4 4 0 00-1.6 0l-1.5.3a1.7 1.7 0 01-1.3-.5c-.4-.4-.4-1-.4-1.5 0-.6 0-1.3.2-2 0-.7.2-1.3.1-2a2.5 2.5 0 00-1-1.6c-.5-.5-1.4-.5-2.3-.6a.4.4 0 01-.2-.1.4.4 0 010-.1.4.4 0 01-.1 0v-.4a.4.4 0 010-.1.4.4 0 01.1-.1.4.4 0 01.1 0h.1c.8-.3 1.1-.2 1.5-.3a9.6 9.6 0 004.4-3c1.4-1.6 3.2-4 6.2-7.8a16 16 0 003-6.2.4.4 0 01.2 0 .4.4 0 010-.2.4.4 0 01.1 0h.5v.1l.1.1 2.5 5.1c.5 1 1.6 1.5 2.5 2 .8.7 1.5 1.3 1.6 2.3 0 1-.3 2.6-.9 4.3a22.6 22.6 0 01-2.2 4.7 5.4 5.4 0 00.1 5.6c.3.4.7.7 1.1.6.3 0 .4-.1.8-.4l1.2-1a47 47 0 006.8-8.1c.3-.9.6-2.3.7-3.8v-2l-.1-1.1c0-.2-.2-.3-.4-.3l-.5-.2h-.2-.3a.7.7 0 01-.3-.3l-.1-.1-.1-.3v-.3a1 1 0 000-.5.8.8 0 00-.2-.4l-1.2-1.2c-.3-.5-.5-1.1-.5-2 0-.1 0-.4.2-.5l.4-.4 1.5-.7a5.5 5.5 0 003-2.7 9 9 0 00.6-5.7.5.5 0 010-.3.4.4 0 01.1 0l.2-.1c3.3-.6 6.1-1.3 9-1.5 2.2-.1 3.3.4 3.8.8l.4.5v.3a.5.5 0 010 .1 15 15 0 00-2.9 4.3 8.4 8.4 0 00-.5 3.6c0 .5.1 1 .4 1.2l.6.2c.2 0 .4 0 .6-.2a16 16 0 002-2 93 93 0 007.5-9v-.6l-.5-.7-.5-.6-.3-.3c.1-.1 0-.4-.1-.6v.1l-.3-.3-.1-.4-.5-.2h-1.5c-.1 0-.2 0-.3-.2h-.1v-.1l-.1-.1-.2-.3a4.4 4.4 0 00-.2-.6c-.1-.2-.2-.2-.3-.2l-.3-.1h-.2a.5.5 0 01-.2-.1.4.4 0 010-.1.4.4 0 01-.1-.2v-2.6l-.1-1.3a1.5 1.5 0 00-.9-.8c-.6-.3-1.2 0-1.7.4s-1 1-1.3 1.5l-.6.7-.2.3-.3.1h-.5l-.1-.2-.1-.2-.3-.4c-1.6-3.9-4.1-5.5-6.4-5.6-1.8 0-3 1-3.7 2.6a.4.4 0 01-.1 0 .4.4 0 010 .2.4.4 0 01-.3 0h-.2a.4.4 0 01-.1 0 .4.4 0 010-.1.4.4 0 01-.2-.1c-.4-2.4-.8-4.7-1.8-6.5a5.3 5.3 0 00-3-2.3 10 10 0 00-4.4 0h-.2a.4.4 0 01-.1-.1.4.4 0 010-.1.4.4 0 01-.2-.1V408.4c.2-.6.8-2 1.2-4.5.5-3 .7-6.5-.7-9.4a5.4 5.4 0 00-3-3 11 11 0 00-4.3-.5c-2.1 0-3.1.4-4 .6h-.2a.4.4 0 01-.1 0 .4.4 0 01-.1-.1.4.4 0 01-.1-.1V391a.4.4 0 010-.1c.5-.6.9-1 1.5-2.2.5-.8 1-1.7 1.2-2.4l.2-1c0-.3-.1-.6-.3-.7-.4-.4-1.1-.3-1.8-.1l-1.7.7a.4.4 0 010 .1h-.3a.4.4 0 01-.2-.1.4.4 0 010-.1v-.4l1.5-1.8.3-1v-.7c-.6-.8-1.5-1-2.4-1h-.2a.5.5 0 01-.2-.1.4.4 0 010-.1.4.4 0 01-.2-.2v-.2a.5.5 0 01.1-.1v-.1c.7-.8 1.8-1.7 3.4-3.6 1-1.2 1.9-2.5 2.4-3.6a4.8 4.8 0 00.5-1.5c0-.4 0-.8-.4-1-.6-.5-1.3-.6-2.2-.5zM426.6 477v.4h.2z" color="#000" fill="#f9a400"/>
  <path style="text-indent:0;text-align:start;text-transform:none" d="M490.7 113.2h-.2l-4.4 5v.2l1.7 1.8a.1.1 0 010 .1.1.1 0 010 .1l-26.4 17.2-.3.2.1.2 7.6 8.3 7.4 8.3.2.1.2-.1 19.8-24.5a.1.1 0 01.2 0l1.7 1.8v.2l.2-.1 5.4-4v-.2l-1.9-2v-.2h-.2l-1.2 1a.1.1 0 01-.1 0l-1.6-1.8a.1.1 0 010-.1.1.1 0 010-.1l1-.9h.3l-.1-.1-1.8-2H498l-1 1a.1.1 0 01-.2 0l-.6-1-.8-.8a.1.1 0 010-.1l1-1v-.2l-1.7-2h-.2l-1 1.1a.1.1 0 01-.2 0l-1.5-1.8a.1.1 0 010-.1l1-1v-.1l-.1-.2-2-2.1z" color="#000" fill="#fff"/>
  <path style="text-indent:0;text-align:start;text-transform:none" d="M490.7 113l-.2.2-4.4 5h-.2l.1.3 1.7 1.8-26.4 17.2-.3.2.2.3 7.5 8.4 7.5 8.3.2.2.2-.3 20-24.4 1.6 1.8.2.2.2-.2 5.4-3.8.2-.2-.2-.3-1.9-2-.2-.3-.2.2-1.2.8-1.5-1.7 1-.9.3-.1-.2-.3-1.7-1.9-.2-.2-.2.2-1 1-.8-1-.7-.8 1-.9.2-.2-.2-.2-1.7-2-.2-.1-.2.2-1 1-1.5-1.7 1-1.1v-.2l-.1-.2-1.9-2.1-.2-.3zm0 .9l1.5 1.6-1 1-.2.3.2.1 2 2.2.2.3.2-.2 1-1 1.3 1.4-1 1-.3.1.2.2 1 1 .9 1.2.2.2.2-.3 1-.9 1.3 1.5-1 .8-.3.2.2.3 2 2.2.1.1.3-.1 1.1-.8 1.5 1.6-4.8 3.5-1.7-1.9-8.2-9-.2-.3-1.7-2 4-4.3zm-2.3 6.6l8 9h-.1l-20 24.5-5.3-6c.3-.2 1.2-1.1 2.2-2.5 1.2-1.6 2.4-3.7 2.5-5.4v-.1h-.1c-1.8 0-4 .9-5.7 1.8a24.1 24.1 0 00-2.8 1.9l-5.2-5.9 26.4-17.2zm-13 19.7c0 1.6-1.2 3.6-2.4 5.1l-2 2.6-1.8-2-2-2 2.8-1.9c1.7-1 3.8-1.8 5.4-1.8z" color="#000"/>
  <path style="text-indent:0;text-align:start;text-transform:none" d="M283.6 227h-1.3a18.9 18.9 0 00-5 1.5c-1.7.7-4.2 5-6.3 6.2-6.3 1.2-6.4 2.2-10.1 4 3.4.5 5 1 7.5 3.3-1.6 1.2-3 2.6-5.7 3.7 1.4.3 2 .1 4.2 0 2 .3 4.5 0 5 2.7.7 1.3.7 3.2.2 5.1a.2.2 0 010 .1.2.2 0 010 .1c-1.2.5-2 1.4-3 2.5-1.4 1.5-2.4 3.3-3.7 5a64 64 0 01-3.6 4.8 9.2 9.2 0 01-1.5 1.5l-1 .5c-.8 0-1.3-.3-1.8-.7a5.3 5.3 0 01-1.5-2c-.8-1.9-1.2-4.6-1.4-7.3l-.2-6.7c-.1-2.7-.3-5.4-.6-6.5-.4-1.1-1.4-2.4-2.6-3.6a31.7 31.7 0 00-4-3.3 12.8 12.8 0 00-9-2.5c-3.6.4-6.8 3-9.9 6.8-3 3.7-6 8.5-9.4 13.3-6.8 9.7-14.6 19.5-25.4 21.6l-2 .4 1.8 1a22 22 0 0012.4 2.3h.5c3.7-.3 11-1 14.6-1a.2.2 0 01.2 0 .2.2 0 010 .2.2.2 0 01-.1 0c-.4.3-.7 1-1.1 1.7l-1.6 2.7c-1.1 2-2.3 4.4-3.7 6.5-3.7 5.7-6.7 9-8.5 14.9l-.4 1.8.1.2.1-.1c.2 0 .5-.3.8-.5l.7-.7c2-2 2.6-2.8 4.7-5.1 3.8-4.1 6.8-7.4 10.3-10a.2.2 0 01.2 0 .2.2 0 010 .1.2.2 0 010 .1.2.2 0 010 .1c-1.2 2.6-2.3 5-3.5 8-1.6 3.8-3 6.5-3.2 8.5v1l.6-.1 1-.8c2.4-2.1 5-5 7.4-7.7 2.5-2.8 4.9-5.5 6.6-7.2a.2.2 0 01.1 0 .2.2 0 01.1 0 .2.2 0 01.1 0 51.2 51.2 0 01-2.9 9.9l-1 2.6 2.2-1.7c4.6-2.8 8-8.5 11.6-11.7l6.7-5.9c3.1-2.5 5.4-4.8 8.4-7.5l.8-1c0-.2.1-.3.3-.4 0-.1.3-.2.5-.1.3.1.4.5.5.9l-.1.9a31 31 0 01-1.2 4.3l-2 6.1a29 29 0 00-.5 3c-.2.7-.1 1.3 0 1.5a.2.2 0 010 .1.2.2 0 010 .1.2.2 0 01-.1 0 .2.2 0 010 .1.2.2 0 01-.1 0c-3.3 0-6.5 2-7.6 3.2-1.6 1.7-1.7 3.8-1.2 5.9a32 32 0 006.5 11.7c1.2 1.5 2.3 2.8 2.9 3.9.3.5.4.9.5 1.3l-.1 1-.2.3-.2.2a.6.6 0 01-.3 0l-.4-.1-2.7-1.6c-2.4-1.6-5.5-3.8-9.4-3.6a12 12 0 00-7.8 2.6c-1.6 1.4-2.3 3.2-3 4.6l-.8 1.6 1.7-.6c1-.3 3.6-1 6-1.2a11 11 0 013.2.1c.9.2 1.4.6 1.6 1 .2.5.1 1.2-.2 2.1-.3 1-.9 2-1.5 3.2-1.3 2.3-2.9 4.6-2.8 6.8l.1 1.1 1-.4c2.3-1 3.9-2.5 5.2-3.5a6 6 0 011.8-1 2.3 2.3 0 011.9.2l.3.3.2 1.2c0 1-.2 2.2-.4 3.6l-.6 4c-.1 1.4 0 2.6.8 3.4l.2.2h.4a1.9 1.9 0 001.3-.5l.8-1.3 1.3-3.2c.4-1.2.8-2.3 1.4-3.3a6.1 6.1 0 011.8-2.3c.5-.3 1-.3 1.7 0 .6.1 1.2.5 2 1l2 1.6c.8.5 1.5.8 2.3.8h.7v-.7c0-2.1-1.4-4.2-2.4-6.5a11.8 11.8 0 01-1-3.3 4.6 4.6 0 01.7-3 4 4 0 012.3-1.9 3.9 3.9 0 012.7.3c1.8.9 3.3 3 3.3 6.1 0 1.5-.6 3.7-1.7 6-1 2.4-2.4 5-3.7 7.5a63 63 0 00-3.3 7.3c-.7 2.2-1.1 4-.4 5.7.3.5.8.8 1.3.9.6 0 1-.1 1.5-.3 1-.5 2.2-1.2 3.2-2l1.4-1.4a.2.2 0 010-.1.2.2 0 01.1 0 .2.2 0 01.1 0 .2.2 0 01.1 0 .2.2 0 010 .2l-.9 3.6a41 41 0 00-.9 5 10.7 10.7 0 000 2.1c.1.6.2 1.2.6 1.6.7.7 1.8.7 2.6.3.8-.3 1.6-.8 2.2-1.5.4-.4.3-.5.6-.9a.2.2 0 01.1 0 .2.2 0 01.1 0 .2.2 0 01.1 0 .2.2 0 01.1 0 .2.2 0 010 .1c.1 1.6.1 3.4.7 6.8a32 32 0 001.7 6.4c.4.9.7 1.7 1.2 2.3.5.6 1.2 1 2 1s1.5-.4 2-1 .8-1.4 1.2-2.3a33 33 0 001.7-6.4c.6-3.4.6-5.2.7-6.8a.2.2 0 010-.2.2.2 0 01.2 0 .2.2 0 010 .1.2.2 0 01.2 0l.6 1a6.8 6.8 0 002.2 1.4c.7.4 1.8.4 2.6-.3.4-.4.5-1 .6-1.6v-2c-.2-1.6-.5-3.4-1-5.2-.3-1.8-.5-2.2-.8-3.4a.2.2 0 010-.1.2.2 0 010-.1.2.2 0 010-.1.2.2 0 01.2 0l1.5 1.5a14 14 0 003.2 2c.5.2.9.3 1.5.3.5-.1 1-.4 1.2-1 .8-1.5.4-3.4-.4-5.6-.7-2.2-2-4.8-3.3-7.3-1.2-2.6-2.6-5.1-3.6-7.5-1-2.3-1.7-4.5-1.7-6 0-3 1.5-5.2 3.3-6a3.9 3.9 0 012.7-.4 4 4 0 012.2 1.8c.7 1 .9 2 .7 3.1a12.2 12.2 0 01-1 3.3 68 68 0 00-1.8 4.7l-.5 1.8v.8h.1c.3 0 .6-.2.8-.3l1.7-1 2.3-1.3 2.1-1c.6-.2 1.2-.2 1.7.1a6.1 6.1 0 011.8 2.3c.5 1 1 2.1 1.4 3.3.4 1.2.8 2.3 1.3 3.2l.8 1.3c.4.3.8.5 1.3.5h.4l.2-.2c.9-.8.9-2 .8-3.3 0-1.3-.4-2.7-.6-4.1-.2-1.4-.4-2.6-.4-3.6 0-.5 0-.9.2-1.2.2-.4.7-.5 1.1-.6l1.1.1c.6.2 1.1.6 1.8 1l5 3.1.8.6.4.3v-.5l-.2-1.1a27.2 27.2 0 00-2.5-6.4 21.6 21.6 0 01-1.5-3.2c-.3-.9-.4-1.6-.2-2 .2-.5.7-.9 1.6-1 .9-.3 2-.3 3.2-.2 2.4.2 5 .9 6 1.2l1.7.6-.8-1.6c-.8-1.4-1.4-3.2-3-4.6a12 12 0 00-7.8-2.6c-3.9-.2-7 2-9.4 3.6l-2.7 1.6h-.4-.3l-.2-.1-.2-.3a1.6 1.6 0 010-1c0-.4.1-.8.4-1.3.6-1.1 1.7-2.4 3-4 2.3-3 5.3-6.8 6.4-11.6 1-2.7-2.6-8-3.2-9.3.3 0-6.6-2.3-6-2.2.4.1-.3-1.7.2-3.8.3-1.3-1.6-6.9-.1-5.7 2.3 1.9 6.6 10 6.6 10 .3 0 2.3 2.4 2.7 2.4.3 0 .8-.2 1-.4.2-.2.2-.5.3-.8v-1.8c0-1.3-.2-3-.4-4.8l-.5-4.7-.1-1v-.4c.2-.2.2-.4.4-.4h.5l.5.6.8 1.2 3 6.5c2.2 5.1 5.2 11 10 14.7l.2.3v.1l2.3 1.7-1-2.6a53.4 53.4 0 01-3-10.2.2.2 0 01.2 0 .2.2 0 01.2 0c3.5 3.2 9.2 11 13.5 15.2l2.5 2-.4-2.1c-1.3-6-4.5-11.5-7.3-17.4a.2.2 0 010-.2.2.2 0 01.1 0 .2.2 0 01.1 0 .2.2 0 01.1 0c3.1 2.7 7.1 6.5 10.8 10.8l6.3 7.3 2 1.9-.7-2.6-.2-.4c-2-7-5.1-13.3-8-18-2.9-4.8-5.5-8-6.3-9.2a.2.2 0 010-.1.2.2 0 010-.1.2.2 0 01.1 0 .2.2 0 010-.1.2.2 0 01.1 0c3.6 0 8.8.6 12.5.7a28.8 28.8 0 0013.8-3.4l-1.2-.2c-10.8-2-18.6-12-25.3-21.7-3.3-4.8-6.4-9.6-9.5-13.3-3-3.7-6.2-6.4-9.8-6.8-3.5-.4-6.6.7-9.1 2.5a23.8 23.8 0 00-6 6.8 31.6 31.6 0 00-3 6c-.7 1.8-1 3.1-1.2 3.7a.2.2 0 010 .1.2.2 0 01-.2 0l-.6.4a52.9 52.9 0 01-5.4-7.9c-1.2-2.5-.1-2.8.1-4.6 1 .3 5.6.3 6.9 0-6.4-4-6.6-4.6-7.5-6.4l-.6-3.1c-.8-2-2.7-4.4-6.6-5.5-1.5-.4-2.9-.5-4.2-.5z" color="#000" fill="#fff"/>
  <path d="M265.2 214.2s-8.8-15-9-18.2c4.4-.6 8.7 6.6 8.7 6.6s1.7-7.3 3.5-7.8c1.6.2 4.2 7 4.2 7s1.5-8.3 7-11c5.4 2.7 6.9 11 6.9 11s2.7-6.8 4.3-7c1.8.5 3.5 7.8 3.5 7.8s4.2-7.2 8.5-6.6c0 3.2-9 18.2-9 18.2s-6.5 2.7-14.2 2.7c-7.8 0-14.4-2.7-14.4-2.7z" fill="#fff" stroke="#000" stroke-width="1.3"/>
  <path d="M293.9 214.2s-4.7-3.4-14.4-3.4c-9.6 0-14.3 3.4-14.3 3.4" fill="#fff" stroke="#000" stroke-width="1.3"/>
  <path d="M138.3 343.5l-.1-.7 6.5-2.6-.1.7zm-6.5 11.9a36.2 36.2 0 00-3-5 11.7 11.7 0 00-4.6-3.6c1-1 1.2-2.5.5-4.2-.3-.7-.7-1.2-1.2-1.5a2 2 0 00-2-.2c-.5.3-.9.8-1 1.5l-.1 1c-.1.1-.2 0-.3-.1-.3-.8-.2-1.5.3-2.3a3.8 3.8 0 011.8-1.6 4.3 4.3 0 014 0c.4.4 1.3 1 2.5 2.3 1 .8 1.7 1.2 2.4 1a4.5 4.5 0 00-2.2 2.9 5.8 5.8 0 000 3.7l7.1-3c1-.4 1.3-1.3.6-2.9a8.5 8.5 0 00-2.4-3.2c-1.2-1-2.4-1.5-3.6-1.2l8.3-3.5a6.3 6.3 0 002.4-1.4c.6-.7.6-1.6.2-2.6l.6-.3 1.2 3c.6 1.5 1.3 2.7 2 3.3.3.4 1 .9 2 1.5a7.7 7.7 0 012.6 2.6c.1.4 0 .8-.3 1.4a6 6 0 00-.9 1.8c-.2 1 0 2 .4 3.5l-.6.2a5.8 5.8 0 00-6.5-3.2c3-2 4-4.3 2.9-7l-6.3 2.6c-1.1.5-1.4 1.4-.9 2.7.4 1 1.2 2 2.3 3 1.2 1.1 2.3 1.7 3.3 1.8l-7.9 3.2a9.2 9.2 0 00-2.3 1.3c-.7.6-1 1.4-.7 2.2zm-2.6-8.1c0-.3 0-.5.2-.7v-.1l6.6-2.8.2.4V344.4zm19 56.9l-.7.2a4 4 0 00-2.5-2.3 6.1 6.1 0 00-3.5-.1 4.7 4.7 0 002.3-2.9c.3-1.2.2-2.4-.4-3.8l-.2-.5-4.3 1.7c-1 .4-1.7 1-2 1.5-.5.6-.5 1.4-.2 2.4l-.6.3a5.8 5.8 0 00-2.4-2.3 4.7 4.7 0 00-3.2-.7c.9-1.3 1.1-2.6.6-3.8a2.5 2.5 0 00-1.1-1.4 1.8 1.8 0 00-1.7 0c-.5.2-.8.6-.8 1.1l-.1.5c-.2 0-.3 0-.4-.3-.2-.5 0-1 .4-1.6.3-.5.8-.8 1.3-1 2-.9 3.7 0 5.2 2.3l7.5-3c-.3-.7-.7-1-1-1-.3 0-.8 0-1.5.4l-.4-1 5.5-2.2.3.9a10 10 0 00-.7.3c-.6.2-.7.6-.4 1.3l.2.4 1.5-.6a4.2 4.2 0 001.8-1.3c.4-.5.5-1.1.3-2a7.2 7.2 0 002.5 2.1 7 7 0 003.1.4 6.8 6.8 0 00-1.8 2.8c-.5 1.3-.5 2.4-.2 3.3-1-1.3-2.4-1.6-4-1l-2.6 1.1.2.6c.5 1.1 1 1.8 1.9 2 .6 0 1.5 0 2.6-.5l.8-.4.7-.3a6.2 6.2 0 003.5-3.2 5.7 5.7 0 000-4.7 7.4 7.4 0 00-2.6-3.4 4 4 0 00-4.1-.5c-.5.2-1 .5-1.4 1l-.8.8h-.2c0-.5.1-1 .6-1.6.5-.5 1-1 1.5-1.1 1.7-.7 3.4-.4 5 .8 1.4 1 2.4 2.5 3.2 4.4.7 1.8 1 3.7.7 5.8a23.6 23.6 0 00-.3 2.7c0 1 .4 2.4 1 3.8v.2l-.5.2c-.5-1-1.3-1.5-2.4-1.4-.5 0-1.4.4-2.7 1a6 6 0 00-2.2 1.2c-.5.6-.6 1.4-.4 2.4zm-4.5 50.4a7.2 7.2 0 00-2-3.5c-.4-.3-1-.7-2.1-1.2a8.2 8.2 0 01-2.2-1.5v1.9l.1 1.6c.2.6 1 1.3 2.4 2l-.3.7c-2.1-1.4-4.1-1.9-6-1.5a5.1 5.1 0 01-.2-3.7c0-.2.5-1 1.4-2.2.5-.8.6-1.5.3-2.1-.4-.9-1.3-1.3-2.8-1.3l-.3-.8c2.2 0 3.5.7 4.2 2.1 0-1.8 1-3.9 2.6-6.2 1.7-2.2 3.4-3.7 5.2-4.4 2.3-1 5-1.1 8-.4a21.3 21.3 0 017.9 3.5v.3h-.4a9 9 0 00-7.7-.5l-11 4.5c-3 1.3-4.2 3-3.3 5 .6 1.4 2.3 1.5 5 .3l11.9-4.8c1.7-.7 2.4-1.6 2-2.5-.3-.8-1.3-1.5-3-2.2l.3-.5c4.1 2.2 7.2 3.3 9.2 3.1-.8.7-1.4 1.8-1.5 3.2a8.5 8.5 0 00.2 3.7l-.6.3c-.8-1.4-2.5-1.6-5-.5l-10 4c-1.5.7-2.1 1.8-1.6 3.3zm-5.7-8l-.2-.8 16.8-7 .7.7zm16.6 43.7l-.1-.7 6.5-2.7-.1.8zm-6.5 11.8a36.2 36.2 0 00-3-5 11.7 11.7 0 00-4.6-3.5c1-1.1 1.2-2.5.5-4.3-.3-.7-.7-1.2-1.2-1.5a2 2 0 00-2-.1c-.5.2-.9.7-1 1.4l-.1 1.1c-.1 0-.2 0-.3-.2-.3-.7-.2-1.5.3-2.3a3.8 3.8 0 011.8-1.6 4.3 4.3 0 014 .1c.4.3 1.3 1 2.5 2.2 1 .9 1.7 1.2 2.4 1a4.5 4.5 0 00-2.2 2.9 5.8 5.8 0 000 3.8l7.1-3c1-.4 1.3-1.4.6-3a8.5 8.5 0 00-2.4-3.1c-1.2-1.1-2.4-1.5-3.6-1.3l8.3-3.4a6.3 6.3 0 002.4-1.5c.6-.7.6-1.5.2-2.6l.6-.3 1.2 3a11 11 0 002 3.4l2 1.4c.9.6 1.6 1.2 2.1 2l.5.6c.1.4 0 .9-.3 1.4a6 6 0 00-.9 1.8c-.2 1 0 2.1.4 3.5l-.6.3a5.8 5.8 0 00-6.5-3.3c3-2 4-4.2 2.9-7l-6.3 2.6c-1.1.5-1.4 1.4-.9 2.7.4 1 1.2 2 2.3 3 1.2 1.1 2.3 1.7 3.3 1.8l-7.9 3.3a9.2 9.2 0 00-2.3 1.2c-.7.7-1 1.4-.7 2.3zm-2.6-8c0-.3 0-.6.2-.8l6.6-2.8.2.3V491.1z"/>
  <path d="M282.3 236.1a1.8 1.8 0 11-3.7 0 1.8 1.8 0 113.7 0z" color="#000"/>
  <path style="text-indent:0;text-align:start;text-transform:none" d="M283 226.7c-2 .2-3.8.9-5.8 1.6a20.8 20.8 0 00-4.8 2.7c-1.4 1.1-2 2.6-2.3 3.6-3.1 0-6 1-9.4 3.2l-2.1 1.3 2.4.5c3.5.5 4.9 1.2 6 2-.7 1-1.7 1.9-4.6 3l-3 1 3.2.8h.5c2.9.5 5.4.4 7.4 0 1.4 2.4 1.9 5.3 1.4 7.1-1.2.5-2 1.4-3 2.6-1.3 1.4-2.5 3.3-3.7 5a64.9 64.9 0 01-3.5 4.8c-1 1.2-2 1.8-2.5 1.9-.7 0-1.2-.2-1.7-.6a5.2 5.2 0 01-1.3-2c-.8-1.8-1.3-4.6-1.5-7.2-.2-2.5 0-11-.7-13.3-.8-2.3-4-5.2-6.6-7a13 13 0 00-9.2-2.6c-3.7.5-6.8 3.2-10 7-3 3.7-6.2 8.5-9.6 13.3-6.7 9.7-14.4 19.4-25.1 21.5l-2.6.5 2.3 1.3a22 22 0 0012.5 2.3h.5c3.7-.3 11-1 14.5-1-1.4 1.1-3.6 6.6-6.4 10.8-3.7 5.7-6.8 9-8.5 14.9-1.3 4 1 1.5 1.6.9 2-2 2.5-2.8 4.7-5.1 3.8-4.2 6.9-7.3 10.3-9.9a143 143 0 00-3.6 8c-1.5 3.8-3 6.5-3.3 8.5-.2 1.3.3 1.9 2 .3 2.4-2.1 4.9-5 7.3-7.7 2.6-2.7 5-5.6 6.7-7.2-.5 2.6-1.4 6.3-2.8 9.7l-1.4 3.2 2.8-2c4.6-2.9 8.1-8.6 11.6-11.8 1.3-1.1 4.4-4 6.6-5.8 3.2-2.6 5.6-4.8 8.5-7.6.6-.6 1-1.6 1.3-1.5.5.3.5 1.1.4 1.6-.3 1.5-.7 2.6-1.3 4.2-1.1 3.4-3 9.6-2.5 11-3.3-.2-6.4 1.9-7.6 3.2-1.6 1.7-1.9 3.9-1.3 6a32 32 0 006.5 11.8c1.2 1.5 2.3 2.7 2.9 3.8.6 1 .6 1.7.4 2.1l-.4.5-.5-.1-2.6-1.6c-2.3-1.6-5.6-3.8-9.5-3.6a12 12 0 00-7.9 2.6c-1.6 1.5-2.3 3.3-3 4.7l-1 2.1 2.2-.8c1-.4 3.5-1 5.8-1.2 1.2-.1 2.4 0 3.2.2.8.2 1.3.5 1.4.8.2.4 0 1-.2 1.9a22 22 0 01-1.5 3.2c-1.2 2.3-2.8 4.6-2.8 7l.1 1.3 1.3-.5c2.3-1 3.9-2.5 5.2-3.5.6-.5 1.3-.9 1.8-1 .5-.2.9-.1 1.5.1.2.1.2 0 .3.3.1.2.3.6.3 1 0 1-.2 2.3-.4 3.7-.3 1.3-.5 2.8-.6 4-.1 1.3 0 2.6.9 3.5l.3.2h.4a2 2 0 001.4-.6l.9-1.2 1.3-3.2c.8-2.3 1.8-4.8 3-5.5.5-.3 1-.3 1.6-.1l2 1 2 1.7c.8.5 1.5.8 2.4.8h.9v-.9c0-2.2-1.4-4.4-2.4-6.6-1-2.3-1.5-4.3-.2-6.2 1.2-1.9 3-2.2 4.6-1.4 1.7.8 3.2 2.9 3.2 5.9 0 1.4-.7 3.6-1.7 6-1 2.3-2.4 4.8-3.7 7.3a63.7 63.7 0 00-3.3 7.4c-.8 2.2-1.2 4.2-.3 5.9.3.5.8 1 1.4 1a3.2 3.2 0 001.6-.4c1-.4 2.2-1.2 3.3-2.1.7-.6.7-.8 1.3-1.4l-1 3.6a40.9 40.9 0 00-.8 7.3c.1.6.2 1 .7 1.6.8.7 2 .8 2.8.4a7.1 7.1 0 002.2-1.6l.7-.9c.1 1.6.1 3.3.7 6.8.4 2.3 1 4.7 1.7 6.5.4 1 .8 1.6 1.3 2.2.5.7 1.2 1.2 2.1 1.2.9 0 1.5-.5 2-1.2a7.5 7.5 0 001.3-2.2 34.4 34.4 0 001.7-6.5c.6-3.5.7-5.2.8-6.8l.7.9a7.1 7.1 0 002.2 1.6 2.5 2.5 0 002.7-.4c.5-.5.6-1 .7-1.6v-2.2a40.1 40.1 0 00-.8-5c-.4-2-.6-2.4-1-3.7.6.6.7.8 1.5 1.4a15 15 0 003.1 2.1c.5.3 1 .4 1.6.4a2 2 0 001.6-1c.8-1.7.3-3.7-.4-6a63.6 63.6 0 00-3.4-7.3c-1.3-2.5-2.6-5-3.6-7.4-1-2.3-1.7-4.5-1.7-6 0-3 1.4-5 3.1-5.8 1.7-.8 3.6-.5 4.8 1.4 1.2 2 .6 4-.4 6.2a32.9 32.9 0 00-2.3 7.5c.3.4 2-.7 3-1.2a39 39 0 012.2-1.3l2.2-1c.6-.2 1-.2 1.4 0 1.2.8 2.3 3.3 3 5.6l1.4 3.2c.3.4.5.9.9 1.2.4.4.9.6 1.4.6h.4l.3-.2c1-1 1-2.2.9-3.4l-.6-4.1a17.8 17.8 0 01-.4-3.6c0-.5 0-.9.2-1.1.4-.7 1.4-.6 1.9-.4.6.2 1 .6 1.8 1 1.3.8 3 1.6 5 3 .4.3 1.3 1 1.5 1 .1-.1 0-1.2-.2-1.8a27.4 27.4 0 00-2.5-6.5 22.8 22.8 0 01-1.5-3.2c-.3-1-.4-1.5-.2-1.9.2-.3.5-.6 1.4-.8.8-.2 2-.3 3.2-.2 2.4.2 4.9.8 5.9 1.2l2.1.8-1-2.1c-.6-1.4-1.4-3.2-3-4.7a12 12 0 00-8-2.6c-3.9-.2-7 2-9.4 3.6a13.7 13.7 0 01-2.7 1.5c-.3 0-.4.2-.5.2l-.3-.5c-.2-.4-.2-1 .4-2.1.6-1 1.7-2.3 2.9-3.8 2.4-3 5.4-7 6.5-11.8 1-4-.3-7-1.8-8.8a9.6 9.6 0 00-3.4-2.6 9.4 9.4 0 00-4-.8c1-2.5.4-5 .1-7.5a35.4 35.4 0 005.7 8.7c1.1 1.2 2 2.3 3.4 2.6.6.1.8-.3 1-.5.3-.3.4-.6.5-.9v-1.8c0-1.3-.2-3-.4-4.7a67 67 0 01-.5-4.9c0-.5-.3-1.3.2-1.5.4-.2 1 .9 1.5 1.7l3 6.5c2.3 5.1 5.3 11 10 14.8.2 0 .2.3.3.4l2.8 2-1.2-3.2a53 53 0 01-3-10c3.5 3.2 9.2 11 13.6 15.2l2.9 2.4-.5-2.6c-1.3-6-4.5-11.7-7.2-17.5 3 2.7 7 6.5 10.7 10.8 2 2.4 4.4 5.2 6.3 7.2l2.5 2.4-.9-3.2-.2-.4c-4-14.2-12.7-25-14.3-27.2 3.6 0 8.7.6 12.5.7a29 29 0 0014.4-3.8l-1.7-.2c-10.8-1.9-18.4-12-25.2-21.6-3.3-4.8-6.4-9.6-9.5-13.4-3.1-3.7-6.4-6.4-10-6.9-3.6-.4-6.6.8-9.2 2.6a24.2 24.2 0 00-6.2 6.8c-2.8 4.4-3.7 8.6-4.1 9.8l-5.3-7.8v-3.3c2 .8 3.7.7 6 0l3.1-.8-3.1-1c-2-.5-3.3-1.3-4.4-2.5a16.8 16.8 0 01-2.9-5l-.3-1.1c-.8-2.2-2.8-4.5-6.7-5.6a14.3 14.3 0 00-5-.5zm.4 2c1.3 0 2.5 0 4 .4 3.5.7 4.6 2.7 5.4 4.2l2.8 5.7a10 10 0 001.7 1.8l2.6 1.5a8.7 8.7 0 01-3.3-.6l-2.7-1.1c.4 2.2.4 3 .6 6 .1 1.4 1.8 3 2.7 4.3 2 2.5 3.7 5.2 3.7 5.2l1.2 1 .5-1.6s1.5-5.1 4.6-10a22.9 22.9 0 015.7-6.4 10.8 10.8 0 017.9-2c2.8.3 5.7 2.6 8.6 6.2 3 3.6 6.1 8.4 9.5 13.2 6.2 9 13.6 18 23.8 21.2a23.2 23.2 0 01-9.1 1.3c-1.1-.1-2.6-.8-4.4-2.1-2.9-2.2-6-4.5-8.5-7.1a61.7 61.7 0 01-7.8-10.7c.7 2.8 3.4 7.4 6.9 11.4 2.7 3.2 6 6 8.5 8-1.7-.1-3.3-.3-5-.3-1 0-2.3-.8-4-2a46.7 46.7 0 01-14.5-16.9c2.7 8.5 7.8 13 13.6 18.7a28 28 0 01-5.3-1c-8.1-2.4-14-13.8-16-17.5a33.3 33.3 0 008.4 14.8c-6.6-2.6-13-7.3-17.8-12a45 45 0 0030.4 17.7c.6.8 8.5 11 13 23.5a92 92 0 00-18.8-17.8c2.6 6.6 6.2 13.6 8.2 19.5a126.3 126.3 0 00-13.6-15c-.8-.7-1.4-1.6-2-2.4l.4 3.2a58.5 58.5 0 002.3 9.2c-3-3.3-5.5-7.7-7.3-11.7a67.2 67.2 0 00-3.3-6.8c-.9-1.4-2-2.5-3.1-2.3-1.6.4-1.5 1.8-1.4 3 0 1.5.3 3.3.4 5l.2 4.8-.1 1c-6.3-6.3-9.7-14.7-14.5-22 1.7 3.1 3 6.3 4.5 9.5.2 3.8 1 8-.3 10.8l-1.5.3c-2.3.7-4.6 2-6.6 3.8-4 3.5-7.2 8.2-8.4 11.7 1.2-1.7 2.8-4.6 5-6.7 3.2-3 7-6 10.6-7 1.9-.5 3.9-.2 5.7.5a7.6 7.6 0 014 9.1c-1 4.3-3.7 8-6 11-1.3 1.6-2.4 3-3.1 4.2-.8 1.3-1.1 2.7-.5 4a2.6 2.6 0 001.4 1.2c.6.2 1.2.1 1.7 0 1-.4 2-1.1 3.2-2 2.3-1.5 5-3.2 8.3-3 3.4 0 5.4 1 6.6 2 .8.7 1.1 1.6 1.6 2.4-1.3-.4-2.5-.8-4.1-.9-1.3-.1-2.6 0-3.8.3-1.1.2-2.1.7-2.6 1.8s-.3 2.3 0 3.4l1.7 3.4c.7 1.3 1 2.3 1.4 3.5-.7-.6-1.7-1-2.4-1.6a7.7 7.7 0 00-2.3-1.3 4 4 0 00-2.8.1c-.7.3-1.1.8-1.4 1.3-.3.6-.4 1.2-.4 1.8 0 1.3.2 2.7.4 4l.6 3.8c0 .6-.1.7-.2 1v-.1c-.4-.7-1-1.7-1.3-3-.9-2.2-1.7-5-3.9-6.4a3.6 3.6 0 00-3-.4c-.9.3-1.8.8-2.6 1.4l-1.7 1.2 1.6-4c1-2.3 1.7-5.2.2-7.8-3.4-5.2-2.5-12-2.6-14.2-1.6 5-1 8.7-.1 11.8a5.7 5.7 0 00-4.5.3c-2.4 1.1-4.2 3.8-4.2 7.5 0 1.9.8 4.2 1.9 6.6 1 2.4 2.3 5 3.6 7.6a63.1 63.1 0 013.3 7c.7 2.1.8 3.7.5 4.4-.1 0-.5 0-.8-.2a12 12 0 01-2.6-1.8c-1.9-1.6-3.7-3.5-3.7-3.5l-1.6.9a100.4 100.4 0 002.5 11.6v2.2c-.3.2-.3.3-.7 0a6.3 6.3 0 01-1.7-1.2c-1-1.1-1.8-2.5-1.8-2.5l-1.6-2.6-.2 3.2s-.3 4.4-1 8.9a31.7 31.7 0 01-1.7 6c-.3.8-.6 1.5-.9 1.8-.3.4-.4.5-.6.5-.2 0-.3-.1-.6-.5a7 7 0 01-1-1.8c-.6-1.5-1.2-3.8-1.6-6-.8-4.5-1-9-1-9l-.2-3.1-1.6 2.6s-.8 1.4-2 2.5a6 6 0 01-1.5 1.3c-.5.2-.5.1-.7-.1l-.1-.5v-1.7c.1-1.4.4-3.1.8-4.9.7-3.4 1.8-6.7 1.8-6.7l-1.6-1s-1.9 2-3.8 3.6a13 13 0 01-2.6 1.8 2 2 0 01-.6.2c-.4-.7-.2-2.3.5-4.3a61.3 61.3 0 013.1-7.1 153 153 0 003.7-7.6c1-2.4 2-4.7 2-6.6 0-3.7-2-6.4-4.3-7.5a5.5 5.5 0 00-4.4-.3 19 19 0 00-.1-11.8c-.2 2.3.7 9-2.8 14.2-1.5 2.6-.8 5.5.2 7.8l1.6 4-1.7-1.2a9.2 9.2 0 00-2.5-1.4 3.6 3.6 0 00-3 .4c-2.1 1.4-3.1 4.2-4 6.5a23.1 23.1 0 01-1.1 2.9l-.1.2c0-.4-.3-.5-.3-1l.6-3.8c.3-1.4.5-2.8.5-4.1a4.7 4.7 0 00-.5-1.8 2.6 2.6 0 00-1.3-1.3 4 4 0 00-2.8-.1c-1 .2-1.6.8-2.3 1.3l-2.5 1.6c.5-1.2.8-2.2 1.5-3.5.7-1.2 1.2-2.2 1.6-3.4.4-1 .6-2.3.1-3.4-.5-1-1.6-1.6-2.7-1.8a12.1 12.1 0 00-3.7-.3c-1.6.1-2.8.5-4 .9.4-.8.7-1.7 1.4-2.3 1.3-1.2 3.3-2 6.7-2.2 3.2 0 6 1.6 8.3 3.2 1.1.8 2 1.5 3.1 1.9.6.1 1.2.2 1.7 0a2.6 2.6 0 001.4-1.2c.7-1.3.4-2.7-.3-4l-3.1-4.1c-2.4-3-5.1-6.8-6.2-11.1a4.5 4.5 0 011-4.3 10.6 10.6 0 012.6-2 7 7 0 015.7-.5 33 33 0 0116 10.9 25.7 25.7 0 00-9.3-9.8 21.4 21.4 0 00-7.2-2.8c-.8-2 .7-5.6 1.6-8.5.9-3 2-6.7 2.1-8 .1-1.2-.4-2.6-1.4-2.8-1.2-.1-1.6 1.2-2.9 2.3-5 4.8-11.8 9.8-15.5 13.6-3.7 3.6-7.5 9.2-9.2 10.3 1-3.2 2.5-8 2.9-10.6l.3-3.2c-.7.8-1.2 1.7-2 2.5-4.4 4-11.5 11.6-15 16.6 2.3-5.5 7-14.6 9.7-21.2a91.8 91.8 0 00-18.7 17.8c2-4 5.4-8.4 7.6-11.6 3.5-5.3 4.8-9.4 7.2-12.1 4-.2 7.7-2 11.9-4a43 43 0 0016.5-13.5 57 57 0 01-17.9 12c4-4 7.4-10 8.5-14.8-2 3.7-8 15.2-16 17.5-2 .6-3.7.8-5.4 1 5.8-5.7 10.9-10.2 13.6-18.7-2.8 6-8 12.2-14.4 16.9-1.7 1.2-3 2-4 2-1.7 0-3.4.2-5 .4 2.4-2.2 5.8-5 8.6-8.1 3.4-4 6-8.6 6.7-11.4a61.3 61.3 0 01-7.8 10.7c-2.5 2.6-5.5 5-8.4 7a9.8 9.8 0 01-4.4 2.2c-3.2.2-6.1-.2-9-1.3 10-3.2 17.4-12.3 23.6-21.2 3.4-4.8 6.5-9.6 9.5-13.2 3-3.6 5.8-5.9 8.7-6.2a11 11 0 017.9 2 18.5 18.5 0 015.4 5.6c1.5 2.4.7 8 1.2 13.5.2 2.8.6 5.5 1.6 7.7a7.5 7.5 0 001.9 2.8c.8.7 1.9 1 3 1 1.5-.2 2.7-1.2 3.9-2.6l3.5-4.9c1.2-1.7 2.4-3.6 3.6-5 1.2-1.2 2.2-1.6 3-2.5.6-.7 1-6-1-8.7 1.6-.7 3-2 3-2-4 1-6.8 1.3-9.5 1a17.9 17.9 0 003.6-3.3l.6-.9-.8-.5c-1-.6-3.4-1.3-5.6-1.8a14 14 0 016.5-2h.5c1 0 2.2.3 3.5.8-.3-.8-.9-1.5-2.3-2.2a7.8 7.8 0 012.3-3.1 17.9 17.9 0 015.4-2.5c1.4-.4 2.6-.7 3.8-.8z" color="#000"/>
  <g color="#000">
    <path style="text-indent:0;text-align:start;text-transform:none" d="M378.5 135.2c-4.1-4.2-10.1-5-13.6-1.5-2.5 2.5-2.8 6.6-1 10.2v.2a75 75 0 01-7 8.6c-4.3 4.7-10.2 9.5-15.6 10a16 16 0 01-8.9-1.1c-2.1-1.1-3.3-2.8-3.4-4.5 0-.6.3-1.4 1-2.2a10.9 10.9 0 012-2c.5-.1 1.2 0 1.7.4l1.8 1.6.3.4.2-.4v-.2-.6c.3-1.5.4-3-.3-4.2a9.2 9.2 0 00-3.3-3.1 7.6 7.6 0 00-5-.5c-1.3.3-2.4.9-3.2 1.7-.2.2-.4 0-.5 0v.2l-.4.5.6.1c1.4.3 2.6.7 3.3 1.4l.1.1a.2.2 0 010 .1v.1a.2.2 0 010 .1c-4 2.8-5.6 8-2.7 12.5a11 11 0 003.1 2.8l4.7 2.7 4.8 2.7a17.2 17.2 0 013 2l.2-.2a.2.2 0 01.1-.1.2.2 0 01.2 0l.2.2a.2.2 0 01-.1 0v.1a.2.2 0 010 .1l-.2.4c.6.6 1.2 1.6 2 3 .9 1.4 2 3.1 2.9 4.8.9 1.7 1.6 3.2 2.5 4.6 1 1.4 2 2.6 2.8 3.1a9 9 0 0012.4-2.5h.2a5.7 5.7 0 011.7 3.3v.6l.6-.4h.1l.1-.5c.8-.8 1.4-1.9 1.7-3.3.3-1.7.3-3.5-.5-4.9a9.2 9.2 0 00-3.1-3.3c-1.2-.7-2.7-.7-4.1-.3h-.7c-.1-.1-.1 0-.2 0l-.3.1.3.4c.6.6 1.2 1.1 1.6 1.7.4.6.6 1.2.5 1.8a10.9 10.9 0 01-2 2c-.9.6-1.7 1-2.3 1-1.7-.2-3.4-1.3-4.5-3.5a16 16 0 01-1.1-8.9c.5-5.4 5.4-11.2 10-15.6a77.3 77.3 0 018.8-7 .2.2 0 01.2 0c3.5 1.6 7.4 1.3 9.9-1.2a7.7 7.7 0 002.1-6.5c-.3-2.5-1.6-5-3.7-7.1zm-3.4 3.4c2.2 2.2 2.8 5.1 1.3 6.6-1.4 1.4-4.3.8-6.5-1.4s-2.8-5-1.4-6.5c1.5-1.5 4.4-1 6.6 1.3z" fill="#f9a400"/>
    <path d="M337.8 170.4c2.2-.2 4.8-1 7.8-2.4-1.6 3-2.4 5.2-2.3 7.8" fill="#b07400"/>
    <path style="text-indent:0;text-align:start;text-transform:none" d="M378.7 135c-4.2-4.2-10.4-5-14-1.5-2.6 2.7-2.9 6.8-1 10.5-.6.8-3 4.4-7 8.5-4.3 4.7-10.1 9.6-15.4 10.1a16 16 0 01-8.8-1.3c-2.1-1-3.2-2.6-3.3-4.2 0-.5.3-1.2 1-2a7 7 0 011.9-2c.4-.2 1 0 1.4.4l1.8 1.6.6.6c.9-1.9.7-4.5 0-6a8.8 8.8 0 00-3.5-3.2 7.7 7.7 0 00-5-.4c-2.2.4-3.2 1.5-4.6 2.7l1 .3c1.3.4 3.5 1.1 3.3 1.3-.1.2-2.1 1.8-3 3.4a9.7 9.7 0 00.3 9.5c.6 1 1.8 1.9 3.2 2.8 1.3.9 3 1.8 4.7 2.7 1.7 1 3.5 1.7 4.9 2.5 1.4.9 2.6 1.7 3.1 2.2l.1.1c.6.6 1.4 1.7 2.2 3.1.9 1.5 1.7 3.3 2.6 5 .9 1.7 1.7 3.3 2.6 4.7 1 1.4 1.9 2.5 2.8 3.1a9.6 9.6 0 009.3.6c1.6-.8 3.3-3 3.4-3 .4-.1 1.2 1.7 1.5 3l.3 1a8.9 8.9 0 002.8-4.5 7 7 0 00-.5-5 8 8 0 00-3.2-3.5c-2.2-1-4-.5-6 0l.7.6 1.5 1.7c.4.5.5 1 .4 1.5a11 11 0 01-2 2c-.7.5-1.5.9-2 .8-1.5 0-3.1-1.2-4.2-3.3a16 16 0 01-1.3-8.8c.6-5.2 5.4-11 10.1-15.4a77.6 77.6 0 018.7-7c3.6 1.7 7.6 1.4 10.2-1.2 3.5-3.5 2.6-9.8-1.6-14zm-.8.8c3.8 3.9 4.4 9.4 1.4 12.3-2.2 2.2-6 2.5-9.3.8l-1.1.7a63.5 63.5 0 00-8.4 6.7c-4.8 4.4-9.7 10.3-10.4 16.2-.4 4 .2 7 1.4 9.5 1.2 2.4 3.1 4 5.2 4.1 1 0 2-.6 3-1.3a7.2 7.2 0 002.3-2.4c.5-1 0-1.9-.6-2.6a7.3 7.3 0 00-.7-1c.9 0 1.9-.1 2.7.4a8.7 8.7 0 012.9 2.9c.6 1 .6 2.7.4 4.2a5.7 5.7 0 01-1.2 2.5 6.2 6.2 0 00-1.8-3c-.3-.4-.6-.3-.7 0a10.2 10.2 0 01-4.2 3.6c-.8.3-1.7.5-2.6.5a8.7 8.7 0 01-5-1.4c-.5-.4-1.4-1.5-2.3-2.8l-2.7-4.6-2.7-5-.2-.3c0-1.5.5-3.8 1.3-6-1 1.7-1.3 3.6-1.6 5.5a14 14 0 00-1.9-2.4v-.1c-.8-.7-1.5-1.3-2.8-2.1a30.4 30.4 0 005.5-1.9c-2.1.7-4.7 1.4-6.1 1.5-.5 0-3.2-1.7-4.8-2.6l-4.7-2.6a8.9 8.9 0 01-3.8-5.4c-.3-1 0-2.7.3-4a8.3 8.3 0 013.7-4.5c.9-.5.4-1.2.2-1.4a8.9 8.9 0 00-3.2-1.4c.6-.5 1.1-1 2.3-1.1a6.4 6.4 0 017 3.2 5 5 0 01.4 2.7 13 13 0 00-1-.7c-1-.8-2-.9-2.8-.5-.8.5-1.5 1.4-2.2 2.2-.7 1-1.3 2-1.3 3 .1 2.1 1.8 4 4.2 5.2a17 17 0 009.4 1.4c6-.6 11.8-5.6 16.3-10.4a68.5 68.5 0 006.7-8.3l.7-1.1c-1.9-3.4-1.7-7.3.6-9.6 2.9-2.9 8.3-2.4 12.2 1.4z"/>
    <path d="M376.5 145.2a5.6 3.7 45 11-8-8 5.6 3.7 45 118 8z" fill="none" stroke="#000" stroke-width=".7" stroke-linecap="square"/>
  </g>
  <g color="#000">
    <path d="M429.2 166.8l-.1.8c0 .7-.3 1.6-.5 2l-.2 1a.1.1 0 01-.1 0 .1.1 0 01-.2 0l-.4-1-.8-1-.1-.3h-.1l-.3.4v.5c.2.5 0 1.3 0 2-.2.8-.5 1.4-.8 1.8l-.4.3a.1.1 0 01-.2 0 .1.1 0 010-.1l-1-1.4-.4-1-.3-.3v.5l-.6 1.6-1 3.5-.3.7-.1.3v.1H421v-.5c-.2-.2-.3-.6-.4-1l-.3-.8h-.1l-.1.4-.3 1-.8 3-.3 1-.2.5-.3.4a.1.1 0 01-.2 0 .1.1 0 010-.1l-.5-1.2-.5-.9-1 3.2c-.9 2.8-1.2 3.6-1.6 4.3l-.6.9a.1.1 0 01-.2 0 .1.1 0 010-.1l-.7-1.2-.3-1-.3 1.3a57 57 0 00-.3 2.6l-.2.6V189.9H411.4v-.1l-.2-.4-.3-.8-.4-.7-.1-.3v.3l-.2.6-.8 1.8-1.3 3.7-.2.8-.2.2h-.2l-.1-.1-.3-.3-.5-1-.3-.5h-.1l-.3.3-.6 1.2a13 13 0 00-1.3 4.2l-.1.4v.3h-.3l-.1-.1c-.1 0-.3 0-.4-.2v1.3c0 1.9.3 3.5.8 4.7.3.8.5 1 1.8 2.3l1.4 1.6-5.8 9.8-5.8 9.8h.1a.1.1 0 01.1 0c.2 0 .9.6 1.5 1l.7.7h.5l.4-.5 10.5-17.5.7-1.2a.1.1 0 01.2 0l.1.3c.7.4 2.8 1.3 3.8 1.4.8.2 1.9-.1 3.4-.7l2.9-1.3 1.4-.9c.4-.2.5-.4.6-.5l-.1-.1v-.1-.1l.3-.3.4-.2c1-.5 2.4-1.6 3-2.2l.3-.4v-.4c0-.6-.6-1.4-1.2-1.7l-.4-.3v-.1c-.1 0-.1 0 0-.1l.3-.3h.3c2 0 3.5-.7 4.9-2.4l1-1.4.3-1.1v-.4l-.1-.1-.7.1c-.4.2-.6.2-1.2.1l-.6-.1h-.4v-.2l.1-.2.2-.2 1-.6c1-.7 2.2-1.8 4.1-3.8l1.5-1.4.2-.4-.2-.1h-.5c-.6 0-.9-.2-1.1-.2h-.1l-.1-.3v-.1l.3-.2.3-.3 1-.6c1.2-.7 3-2 4-2.9l.4-.5-.3-.1-.8-.4a.1.1 0 010-.2l.8-1 1.5-1.8.6-.8-.3-.3-.6-.3-.9-.3-1-.4a.1.1 0 01-.2 0v-.6a4.6 4.6 0 01.1-1.5c.4-1.5.6-3 .5-4v-.6H438.8l-.3.3c0 .2-.2.4-.3.5l-.2.1-.2.2a.1.1 0 01-.1 0 .1.1 0 010-.2V173.8l-.3-1-.2-1.1-.1-.5v-.2h-.2s0 .2-.2.3l-1 .7-1 .7-.4.2H434v-.2l-.2-.2-.1-.8-.3-1.4v-.1a.8.8 0 00-.3 0l-.3.1h-.1l-.1.3h-.1l-.4.6-.5.3-.1.2h-.2v-.2c-.4-1.3-1.2-2.6-2.2-4.2a.1.1 0 010-.1l-.3-.5zm-9 8h.1z" fill="#b07400"/>
    <path d="M429 167.2v.4l-.5 2-.3 1-.5-1-.7-1-.1-.2c-.2-1.8-.2-3.6.2-5.8-1 1.4-.8 4.8-.8 6.1v.5c.2 1-.2 3-.8 3.6l-.4.4-.8-1.5-.4-.7c-.3-1.8.5-4.8.5-5.6-.5 2-1.2 3.9-1.3 5.8v.1a95.4 95.4 0 00-1.5 4.8l-.4 1-.4-1.3-.2-.4c.3-2 .4-4 .2-6-.2 1.8-.4 4.5-.8 6.1a68.9 68.9 0 00-1.1 4l-.4 1.2-.3.3-.5-1-.5-1c-.4-1.4-.5-2.9-.4-4.5-.5 1.7-.2 3.9 0 5.2l-.8 2.4c-1 2.9-1.2 3.7-1.7 4.3l-.5.8-.7-1.2v-.2c-.7-2-.2-4.8-.4-5.7-.4 2-.5 4-.4 5.8v.5l-.4 2.5-.2 1-.6-1.3-.2-.4c.3-2 .3-4.1.2-6.3-.2 1.2-.2 4.6-.8 6.2-.5 1-1.7 4.4-2.2 6-.4 1.1-.3 1.2-1.2-.4-.9-1.5-.8-4.6-1-5.6-.2 1.8-.2 3.6.1 5.4l-.6 1.1a13.2 13.2 0 00-1.4 4.1c0 .4-.1.7-.2.7-1-1.7-1.6-4.5-1.9-5.2.2 2 .6 3.7 1.2 5.4v1c0 1.8.2 3.4.7 4.6.4.8.6 1 2 2.4l1.4 1.5-5.8 9.8-5.9 9.7.3.2 1.5 1 1.2.8.5-.8 10.6-17.4.7-1 .3.1c.8.5 3 1.4 4 1.5 1 .2 1.8 0 3.3-.7 1.1-.4 3.9-1.8 4.8-2.4 1.2-.4 3.2-.8 4.6-.6-1.2-.8-3.2-.5-4.4 0 0-.2 0-.3.6-.6 1-.4 2.6-1.5 3.1-2l.3-.6c3.2 0 5.4-1.7 6-3a9 9 0 01-6 2.3 3 3 0 00-1.3-1.6c-.5-.3-.5-.4.2-.4 2 0 3.5-.7 5-2.5.6-.8 1.1-2 1.2-2.5 2-1 3.8-2.7 4.4-4-1.4 1.5-3.2 3-4.4 3.3-.1-.2-.4-.1-.9.1-.3.2-.5.2-1 .1a3 3 0 01-1-.2l1.2-.9a23 23 0 005.4-5 21 21 0 006.3-2 24.3 24.3 0 01-5.8 1.2h-.8c-1.2-.2-1.4-.3-1.2-.6l1.4-.9a33.6 33.6 0 004.2-3c2.1-.1 5.2-1.3 6-2-2.8 1-4 1.3-5.8 1.2h-.3l-.7-.4 1-.9 1.5-1.9.6-.8.1-.2c1.2-1.3 4-3 4.8-3.6a19.4 19.4 0 00-5.3 3.3 8.2 8.2 0 00-1.6-.7l-1-.3v-.5c-.1-.3 0-.8.1-1.5.4-1.4.5-3 .4-4v-.3a6.2 6.2 0 012.8-4.4c-1.9.4-3 2.7-3.3 4v.1l-.4.3c0 .3-.3.7-.5.7 0 0-.1 0 0 0 0-.3-.3-2.2-.6-3a17.3 17.3 0 012.7-4.9 12 12 0 00-3.2 4.4l-1.2.8-1.4 1-.3-1.2c-.2-1-.2-1.3-.4-1.4.5-1.6 1-2.9 1.4-6.4-.4 1.6-1.1 4.9-2.2 6.5 0 .3-1.2 1.4-1.3 1.2a14 14 0 00-2-4.4c-.3-1.8.2-3.8.7-5.8-.8 1.6-1.5 4.4-1.4 5.8zm.6 1.5l.2.4a9.4 9.4 0 011.1 2.8l.1.7-.8.6-.7.6v-.3l-.5-1.2c-.3-.8-.3-.9-.2-1.2l.5-1.4zm-2.3 1.7l.4.8 1.1 3c0 .3 0 .5-.3 1a7.4 7.4 0 00-1 1.7l-.2-1-.4-1-.6.6c-.4.6-.4.6-.4.3l.7-3zm6 1l.2.8.3 3.6c0 .1-.2.4-.8.7a8 8 0 00-2.9 2.7c-.3.5-.6.8-1 1l-.9.5v-.3l-.2-1.2a2.4 2.4 0 01.1-1.6c.6-1.6.9-1.9 3-4l2.1-2.1zm-9.7.8l.3.5c.4.7 1 2.6 1.1 3 .1.7 0 2-.4 2.6l-.8 1.5c-.2.6-.3.9-.4.8l-.3-.6v-.5l-.7 1-.5 1.3V180c0-1.6 0-1.8.4-3.5l1-3.1zm13.4 0c.2.2.4 1.6.4 2.2l-.2.6-1.3.5-1.2.3v-2.3l1.1-.8a5.2 5.2 0 011.3-.8zm-11.5 1.7v.2c0 .3 0 .2 0 0v-.2zm13.3 1.4c.2.2-.5 3.5-.9 4.4-.1.4-.2.4-.6.4-1 0-2.7.5-3.8 1l-1 .6v-1.2c.2-1.3.2-2.2.1-2.2l-.8.4-.7.4.3-.4a6.5 6.5 0 012.2-1.7l2.3-.7a19 19 0 002.2-.7l.7-.3zm-12.2 1.4c.2.3.8 3.7.8 4.3 0 .2 0 .4-.5.7-.5.4-1.4 1.5-1.9 2.6l-.4.6-.5-2.2c0-.9.3-2.2 1-3.6a8.8 8.8 0 011.5-2.4zm-6.2.7c.3.3.6 2.1.6 3l.1 1.9c.1.8.2.8-.2 1.7a28.7 28.7 0 00-1.5 4.3l-.5-.7-.4-.6.1-1.3a41 41 0 011.8-8.3zm11.2 2.4c.2 0 0 2.2-.4 3.4a8.3 8.3 0 01-.6 1.5c-.3.6-1.2 1.6-2.4 2.5-.5.4-.6.4-2 .7l-1.7.3.1-.6c.2-1.3 1.6-4.3 2.5-5.1a50 50 0 014.5-2.7zm6 1.2c1.7 0 2.7.2 3.2.6.2.1.2.3-.4 1l-1.4 1.6-.9.8-.9-.3c-2.2-.7-3.6-.8-4.9-.1l-.8.4.2-.8.3-1.1c0-.4 1.7-1.3 3-1.7.9-.3 1.1-.4 2.6-.4zm-20.4 0l.5.9.4 1-.2 1.5-.2 2.2c0 .7 0 .8-.8 2a36.8 36.8 0 00-1.3 2.3c-.5.9-.5 1-.6.6v-2.1c0-1.7 0-1.8.4-3l1.1-3.2.7-2.1zm5.6.7a13.8 13.8 0 011 6.2c-.1.4-.2.6-.5.7-.5.1-.9.4-1.3 1l-.7 1.6-.4.8-.3-1c-.5-1.6-.4-3 .5-5.4a34.8 34.8 0 011.7-4zm11.2 3.2h1c.9.2 3.8 1.1 3.8 1.3a24.3 24.3 0 01-6 3.7c-1 .4-1.3.5-2.4.6h-1.2l1.2-3-.4-.1-.5-.1 1-.6a11.4 11.4 0 012.8-1.7l.7-.1zm-21 2.3c0-.1.3.1.6.7.5.8.5 1 .6 2.3l.2 1.8.1.7h-.1c-.2-.3-.3-.3-.7.5-.9 1.7-1 1.7-1 1.4a23.1 23.1 0 01.3-7.4zm5.3.5l.3.3c.4.5 1.3 2.4 1.5 3.2.3 1 .3 3 0 3.4l-.7 1a9.2 9.2 0 00-.8 1.5l-.5 1c-.4.4-.6 0-1-1a11.5 11.5 0 00-1.3-2.5c-.5-.8-.5-.9-.4-1.4a21.4 21.4 0 012.2-4.4zm10.3.3h.7l-.5 1.4-.6 1.2-.9.5c-.5.3-1.5.8-2.1 1.3-1 .7-1.1.8-2.3 1l-1.5.4c-.2 0-.2 0-.1-.3.2-.9 1-3 1.4-3.7.3-.4.5-.7.8-.8.7-.3 3.7-.9 5.1-1zm-18 1.2a7.5 7.5 0 011 3.4l.3 2.2.2 1-.4 1.4-.5-1.2-.4-1.3-.3.3-.6.9-1 1.5c-.5 1-.6 1-.6-.1 0-.7.2-1.9.6-3.3.4-1.4 1.7-4.8 1.8-4.8zm19 1.6h1.2c1.5 0 3.7.3 3.9.5.1.1-2.2 2.4-3.5 3.5a7.6 7.6 0 01-3.1 1.7c-1.3.3-1.5.3-2.3 0a8 8 0 01-.8-.1l.3-.5 1.2-2.4c0-.3 0-.3-.4-.3l-.5-.1.9-.6 2-1.1zm-15.3 3a12 12 0 011.8 2.9c.4 1 .6 2 .6 2.8 0 .4-.1.5-.5.8l-.5.3-.2-1c-.4-1.8-.5-2-.8-2-.5.2-1.5.9-2.1 1.4-.6.5-.6.4-.5-.4 0-.6 2-4.7 2.2-4.7zm10.5.2c.6 0 .6 0-.2 1.3-.6.8-.6.9-1 .8a4.3 4.3 0 00-2.5.3l-1.2.6-.5.2.4-.7a4.3 4.3 0 012-2c.8-.2 2.3-.5 3-.5zm-18.2 0l.6 1c.3.7.4.8.3 1.8v1.8l.4.7-.3 1-.3 1.2-1.2-1-1.3-1v-1a9.5 9.5 0 011.3-3.7c.2-.5.3-.8.5-.7zm3.8 2.5c.2 0 .9 2.6.9 3.4l-.3.8a11.8 11.8 0 00-1.5 3.3c-.3 1-.3 1.1-.4.7l-.6-1.3-.4-1v-1l.6-2c.4-.9 1.5-3 1.7-3zm12.5.4c.7 0 1.7.2 3.4.6a18.1 18.1 0 005 .8 8 8 0 01-1.5 2 5 5 0 01-3.1 1.8c-1.1.1-3.2.2-4.7 0-.5-.1-.6-.1-.4-.4a25 25 0 001.3-3.1h-.7a23.7 23.7 0 00-3.8.7l-.8.2c0-.2 2.4-1.8 3.4-2.2a3.5 3.5 0 011.9-.4zm-8.4 1.9l.4 1.7c.2 1.2.3 2.1.3 3.3 0 2.3-.3 3-1.5 3.7l-1.5 1a7 7 0 01-1.4.7c-.3 0-.6.2-.6.3l-6 9.8a292.3 292.3 0 01-6 9.7l-1.4-1.1 5.6-9.5 5.5-9.2s.3 0 .4.2l.4.3s-.2-.6-.7-1.1l-2.5-2.6a7.3 7.3 0 01-1.2-2.5c-.2-.8-.4-3.4-.2-3.4.1 0 2 1.3 2.6 2 .8.7 1.2 1.5 2 4 0 0 .5 1 .5 1.6 0 .5-.4 1.7-.4 1.7.2-.6 1.3-1.3 1-2.4-.1-1 .7-4 1.4-5.2.6-1.2 3-3.3 3.3-3zm6.7.7h.5a20 20 0 01-1.4 3c-.2.2-.5.3-1.3.4l-1.8.3c-.4 0-1 .2-1 .3-.2 0-.1 0-.2-1-.1-1.2-.1-1.3 1.2-2 1-.4 3-1 4-1zm1.7 3.9c1.3 0 2 .3 2.8 1 .6.7.7 1 .2 1.5a16 16 0 01-4.1 2.3l-1-.3a12 12 0 00-4.3-.8l-1-.1a6 6 0 00.5-1.8v-.7l.7-.3c1.3-.5 4.4-.9 6.2-.8zm-6.1 4.6l2 .1c1 .2 2.9 1 2.9 1.1 0 .3-3.8 2-5.1 2.4a6 6 0 01-1.4.2 6.9 6.9 0 01-3.6-1.4c-.6-.4-.6-.4-.4-.6.1-.1.3-.2.4-.1 0 .1.3.1.8-.3a5.8 5.8 0 012.4-1.3l2-.1z"/>
  </g>
  <g color="#000">
    <path d="M429.2 116l-.1.8c0 .6-.3 1.6-.5 2l-.2.9a.1.1 0 010 .1.1.1 0 01-.1 0 .1.1 0 01-.2 0 .1.1 0 010-.1l-.4-1-.8-1-.1-.2h-.1l-.3.4v.5c.2.5 0 1.3 0 2-.2.7-.5 1.4-.8 1.7l-.4.4a.1.1 0 01-.2 0 .1.1 0 010-.1l-1-1.5-.4-1-.3-.2v.5l-.6 1.6-1 3.5-.3.7-.1.2v.2H421v-.5l-.4-1-.3-.8h-.1l-.1.3-.3 1.1-.8 3-.3.9-.2.6-.3.4a.1.1 0 01-.2 0 .1.1 0 010-.2l-.5-1.2-.5-.8-1 3.1c-.9 2.9-1.2 3.7-1.6 4.4l-.6.8a.1.1 0 01-.2 0l-.7-1.3-.3-.8-.3 1.2a57 57 0 00-.3 2.5l-.2.6v.3H411.4l-.2-.4-.3-.8a5 5 0 00-.4-.8l-.1-.2v.2l-.2.6-.8 1.8-1.3 3.8-.2.7-.2.3h-.2l-.1-.2-.3-.2-.5-1-.3-.6h-.1l-.3.4-.6 1.2a13 13 0 00-1.3 4.1l-.1.5v.2h-.3-.1l-.4-.2v-.1 1.3c0 2 .3 3.5.8 4.7.3.8.5 1 1.8 2.3l1.4 1.6a.1.1 0 010 .1l-5.8 9.7-5.8 9.8h.1a.1.1 0 01.1 0l1.5 1.1.7.6.3.2.2-.2.4-.5 10.5-17.4a.1.1 0 010-.1l.7-1.1a.1.1 0 01.2 0l.1.2c.7.5 2.8 1.3 3.8 1.5.8.1 1.9-.2 3.4-.7l2.9-1.4 1.4-.8c.4-.2.5-.4.6-.5l-.1-.1v-.2c0-.1.1-.3.3-.3l.4-.3c1-.4 2.4-1.6 3-2.1l.3-.4v-.5c0-.6-.6-1.3-1.2-1.7l-.4-.2v-.1c-.1 0-.1-.1 0-.2l.3-.2h.3c2 0 3.5-.7 4.9-2.4l1-1.5.3-1v-.4l-.1-.2c-.1 0-.4 0-.7.2H428.6v-.2l.1-.2.2-.2 1-.6c1-.7 2.2-1.8 4.1-3.8l1.5-1.5.2-.3-.2-.1h-.5l-1.1-.3h-.1l-.1-.2v-.1l.3-.3.3-.2 1-.6c1.2-.8 3-2 4-3l.4-.4-.3-.1-.8-.4a.1.1 0 010-.1.1.1 0 010-.1l.8-1 1.5-1.8.6-.9-.3-.2-.6-.4-.9-.2-1-.4a.1.1 0 01-.2 0 .1.1 0 010-.1v-.5a4.6 4.6 0 01.1-1.6c.4-1.4.6-3 .5-3.8v-.8h-.1l-.2.1-.3.3c0 .2-.2.3-.3.5h-.2l-.2.2a.1.1 0 01-.1 0 .1.1 0 010-.1V123l-.3-1.1-.2-1-.1-.6v-.1h-.2s0 .2-.2.2l-1 .8-1 .7-.4.1-.1.1h-.2v-.2l-.2-.2-.1-.9-.3-1.3v-.1a.8.8 0 00-.3 0h-.3-.1l-.1.3-.1.1-.4.5-.5.4-.1.1h-.2v-.1c-.4-1.4-1.2-2.6-2.2-4.2a.1.1 0 010-.2l-.3-.5zm-9 8h.1z" fill="#b07400"/>
    <path d="M429 116.3v.4l-.5 2-.3 1-.5-.9-.7-1.1-.1-.1c-.2-1.9-.2-3.6.2-5.8-1 1.4-.8 4.8-.8 6.1v.5c.2 1-.2 3-.8 3.6l-.4.4-.8-1.5-.4-.7c-.3-1.8.5-4.9.5-5.6-.5 2-1.2 3.8-1.3 5.8v.1a95.4 95.4 0 00-1.5 4.8l-.4 1-.4-1.3c0-.3-.1-.2-.2-.4.3-2 .4-4 .2-6-.2 1.8-.4 4.5-.8 6.1a68.9 68.9 0 00-1.1 4l-.4 1.2-.3.3-.5-1-.5-1c-.4-1.4-.5-2.9-.4-4.5-.5 1.7-.2 3.8 0 5.2l-.8 2.4a18 18 0 01-1.7 4.3l-.5.8-.7-1.2v-.2c-.7-2-.2-4.9-.4-5.7-.4 2-.5 4-.4 5.8v.5l-.4 2.5c0 .5-.1.9-.2.9l-.6-1.2c0-.3-.1-.2-.2-.4.3-2 .3-4.2.2-6.3-.2 1.2-.2 4.6-.8 6.2-.5 1-1.7 4.4-2.2 5.9-.4 1.2-.3 1.2-1.2-.3-.9-1.6-.8-4.7-1-5.6-.2 1.8-.2 3.6.1 5.4l-.6 1a13.2 13.2 0 00-1.4 4.2c0 .4-.1.7-.2.7v-.1c-1-1.7-1.6-4.4-1.9-5.1.2 1.9.6 3.7 1.2 5.4v.9c0 1.9.2 3.5.7 4.7.4.8.6 1 2 2.4l1.4 1.5-5.8 9.8-5.9 9.7.3.2a28.3 28.3 0 012.7 1.8l.5-.8 10.6-17.4.7-1.1.3.2c.8.5 3 1.3 4 1.5 1 .1 1.8-.1 3.3-.7 1.1-.5 3.9-1.8 4.8-2.4 1.2-.5 3.2-.8 4.6-.6-1.2-.9-3.2-.6-4.4-.1 0-.1 0-.2.6-.5 1-.5 2.6-1.6 3.1-2.1l.3-.5c3.2 0 5.4-1.7 6-3a9 9 0 01-6 2.3 3 3 0 00-1.3-1.6c-.5-.3-.5-.4.2-.4 2 0 3.5-.8 5-2.5.6-.9 1.1-2 1.2-2.5 2-1 3.8-2.7 4.4-4-1.4 1.5-3.2 3-4.4 3.3-.1-.2-.4-.2-.9 0-.3.2-.5.2-1 .2a3 3 0 01-1-.2l1.2-1a23.7 23.7 0 005.4-5c2.4-.4 4.7-1 6.3-2a24.3 24.3 0 01-5.8 1.3l-.8-.1c-1.2-.2-1.4-.2-1.2-.5l1.4-1a33.6 33.6 0 004.2-3c2.1 0 5.2-1.3 6-2-2.8 1-4 1.3-5.8 1.3l-.3-.1-.7-.3 1-1 1.5-1.8.6-.8.1-.2c1.2-1.3 4-3 4.8-3.6a19.4 19.4 0 00-5.3 3.3 8.2 8.2 0 00-1.6-.7l-1-.3v-.5c-.1-.3 0-.9.1-1.5.4-1.5.5-3.1.4-4v-.3a6.2 6.2 0 012.8-4.4c-1.9.4-3 2.6-3.3 4l-.4.4c0 .3-.3.7-.5.7 0 0-.1 0 0-.1 0-.2-.3-2.1-.6-3a17.3 17.3 0 012.7-4.8 12 12 0 00-3.2 4.4l-1.2.8-1.4 1-.3-1.2c-.2-1-.2-1.3-.4-1.4.5-1.6 1-3 1.4-6.4-.4 1.6-1.1 4.8-2.2 6.5 0 .2-1.2 1.4-1.3 1.2a14 14 0 00-2-4.4c-.3-1.8.2-3.9.7-5.8-.8 1.5-1.5 4.3-1.4 5.8zm.6 1.5l.2.4a9.4 9.4 0 011.1 2.8l.1.7-.8.6-.7.6v-.3l-.5-1.2c-.3-.8-.3-.8-.2-1.2.1-.1.4-.8.5-1.4zm-2.3 1.7l.4.8 1.1 3c0 .3 0 .6-.3 1a7.4 7.4 0 00-1 1.7l-.2-.9-.4-1s-.2 0-.6.5c-.4.6-.4.7-.4.3l.7-2.9zm6 1.1l.2.7.3 3.6c0 .2-.2.4-.8.7a8 8 0 00-2.9 2.7c-.3.6-.6.8-1 1.1-.4.3-.8.4-.9.4v-.3l-.2-1.2a2.4 2.4 0 01.1-1.6c.6-1.6.9-1.8 3-4l2.1-2zm-9.7.7l.3.5c.4.7 1 2.7 1.1 3 .1.8 0 2.2-.4 2.6l-.8 1.5c-.2.6-.3 1-.4.8l-.3-.6v-.5l-.7 1.1-.5 1.2v-1.7c0-1.5 0-1.7.4-3.5l1-3zm13.4.1c.2.2.4 1.5.4 2.1l-.2.6a13 13 0 01-2.5.8v-2.3l1.1-.7a5.2 5.2 0 011.3-.8zm-11.5 1.6v.2c0 .3 0 .3 0 0v-.2zm13.3 1.4c.2.2-.5 3.5-.9 4.4-.1.4-.2.4-.6.4-1 0-2.7.5-3.8 1l-1 .6v-1.2c.2-1.2.2-2.2.1-2.2l-.8.4-.7.4.3-.4a6.5 6.5 0 012.2-1.7l2.3-.7a19 19 0 002.2-.7l.7-.3zm-12.2 1.4c.2.4.8 3.7.8 4.3 0 .3 0 .5-.5.7-.5.4-1.4 1.6-1.9 2.6-.1.4-.3.6-.4.6 0 0-.4-1.3-.5-2.2 0-.8.3-2.1 1-3.6a8.8 8.8 0 011.5-2.4zm-6.2.7c.3.3.6 2.2.6 3.1l.1 1.8c.1.8.2.9-.2 1.7a28.7 28.7 0 00-1.5 4.3l-.5-.7-.4-.6.1-1.3a41 41 0 011.8-8.3zm11.2 2.4c.2 0 0 2.2-.4 3.4a8.3 8.3 0 01-.6 1.5c-.3.6-1.2 1.6-2.4 2.5-.5.5-.6.5-2 .7l-1.7.3.1-.6c.2-1.3 1.6-4.2 2.5-5a50 50 0 014.5-2.8zm6 1.2c1.7 0 2.7.2 3.2.6.2.2.2.3-.4 1-.3.5-1 1.2-1.4 1.6l-.9.8-.9-.3c-2.2-.7-3.6-.7-4.9 0l-.8.3.2-.8.3-1c0-.4 1.7-1.4 3-1.8.9-.3 1.1-.4 2.6-.4zm-20.4.1l.5.8.4 1-.2 1.5-.2 2.2c0 .8 0 .8-.8 2.1a36.8 36.8 0 00-1.3 2.2c-.5 1-.5 1-.6.6v-2c0-1.7 0-1.8.4-3l1.1-3.3.7-2zm5.6.6a13.8 13.8 0 011 6.2c-.1.5-.2.7-.5.7-.5.2-.9.5-1.3 1.1l-.7 1.5-.4.8-.3-1c-.5-1.5-.4-2.9.5-5.4a34.8 34.8 0 011.7-3.9zM434 134l1 .1c.9.2 3.8 1 3.8 1.2a24.3 24.3 0 01-6 3.7c-1 .5-1.3.6-2.4.6h-1.2l1.2-2.9-.4-.2h-.5l1-.7a11.4 11.4 0 012.8-1.7h.7zm-21 2.3l.6.7c.5.8.5 1 .6 2.3l.2 1.8.1.7h-.1c-.2-.3-.3-.2-.7.5-.9 1.7-1 1.8-1 1.4a23.1 23.1 0 01.3-7.4zm5.3.5l.3.3c.4.5 1.3 2.4 1.5 3.2.3 1.1.3 3 0 3.4l-.7 1a9.2 9.2 0 00-.8 1.5l-.5 1c-.4.5-.6.2-1-1a11.5 11.5 0 00-1.3-2.5c-.5-.8-.5-.8-.4-1.4a21.4 21.4 0 012.2-4.4zm10.3.3h.7l-.5 1.4-.6 1.2-.9.5-2.1 1.3c-1 .8-1.1.9-2.3 1.1l-1.5.3c-.2.1-.2.1-.1-.3.2-.8 1-3 1.4-3.7l.8-.8c.7-.3 3.7-.8 5.1-1zm-18 1.2a7.5 7.5 0 011 3.4l.3 2.2.2 1.1-.4 1.3-.5-1.2-.4-1.3-.3.3-.6 1-1 1.4c-.5 1-.6 1-.6 0 0-.7.2-1.9.6-3.4l1.8-4.8zm19 1.6l1.2.1c1.5 0 3.7.3 3.9.4.1.2-2.2 2.5-3.5 3.5a7.6 7.6 0 01-3.1 1.7c-1.3.3-1.5.3-2.3.1a8 8 0 01-.8-.2l.3-.5 1.2-2.4c0-.2 0-.2-.4-.3h-.5l.9-.7 2-1zm-15.3 3.1a12 12 0 011.8 2.8c.4 1 .6 2.1.6 2.8 0 .4-.1.6-.5.8l-.5.4-.2-1c-.4-1.9-.5-2-.8-2-.5.2-1.5.9-2.1 1.4-.6.4-.6.4-.5-.4 0-.6 2-4.7 2.2-4.7zm10.5.1c.6 0 .6 0-.2 1.3-.6.9-.6 1-1 .8a4.3 4.3 0 00-2.5.3l-1.2.6-.5.2.4-.7a4.3 4.3 0 012-1.9c.8-.2 2.3-.6 3-.6zm-18.2.1l.6 1c.3.7.4.8.3 1.7v1.8l.4.7-.3 1.1-.3 1.1-1.2-1-1.3-.9v-1a9.5 9.5 0 011.3-3.8c.2-.4.3-.7.5-.7zm3.8 2.4c.2 0 .9 2.7.9 3.4 0 .2-.1.6-.3.8a11.8 11.8 0 00-1.5 3.3c-.3 1.1-.3 1.2-.4.7l-.6-1.3-.4-1v-1l.6-1.9c.4-1 1.5-3 1.7-3zm12.5.4c.7 0 1.7.2 3.4.6a18.1 18.1 0 005 .8c0 .3-.8 1.4-1.5 2.1a5 5 0 01-3.1 1.7c-1.1.2-3.2.2-4.7 0-.5 0-.6 0-.4-.4a25 25 0 001.3-3c0-.2-.2-.1-.7 0a23.7 23.7 0 00-3.8.6l-.8.2c0-.1 2.4-1.7 3.4-2.2a3.5 3.5 0 011.9-.4zm-8.4 2l.4 1.6.3 3.3c0 2.4-.3 3-1.5 3.7l-1.5 1a7 7 0 01-1.4.7l-.6.3-6 9.8a292.3 292.3 0 01-6 9.7l-1.4-1c0-.2 2.5-4.5 5.6-9.6l5.5-9.2.4.2.4.3s-.2-.5-.7-1c-.8-1-2-2-2.5-2.7a7.3 7.3 0 01-1.2-2.5c-.2-.7-.4-3.4-.2-3.4.1 0 2 1.4 2.6 2 .8.8 1.2 1.6 2 4 0 0 .5 1 .5 1.6 0 .6-.4 1.7-.4 1.7.2-.6 1.3-1.2 1-2.4-.1-1 .7-3.9 1.4-5.2.6-1.1 3-3.3 3.3-3zm6.7.6l.5.1a20 20 0 01-1.4 3l-1.3.3-1.8.3-1 .3c-.2.1-.1 0-.2-.9-.1-1.2-.1-1.4 1.2-2 1-.5 3-1 4-1zm1.7 4c1.3 0 2 .3 2.8 1 .6.6.7 1 .2 1.4a16 16 0 01-4.1 2.3l-1-.3a12 12 0 00-4.3-.8h-1a6 6 0 00.5-1.9v-.7l.7-.3c1.3-.4 4.4-.8 6.2-.8zm-6.1 4.6h2c1 .3 2.9 1 2.9 1.2 0 .2-3.8 2-5.1 2.4l-1.4.2a6.9 6.9 0 01-3.6-1.4c-.6-.4-.6-.5-.4-.6.1-.2.3-.2.4-.1 0 0 .3 0 .8-.3a5.8 5.8 0 012.4-1.3l2-.1z"/>
  </g>
  <g color="#000">
    <path d="M429.2 65.3l-.1.9c0 .6-.3 1.6-.5 2l-.2.9a.1.1 0 010 .1.1.1 0 01-.1 0 .1.1 0 01-.2 0 .1.1 0 010-.1l-.4-1-.8-1-.1-.2h-.1a2 2 0 00-.3.4v.5c.2.5 0 1.3 0 2-.2.7-.5 1.4-.8 1.7l-.4.4a.1.1 0 01-.2 0 .1.1 0 010-.1l-1-1.5-.4-1-.3-.2v.5l-.6 1.6-1 3.5-.3.7-.1.2v.2H421v-.5l-.4-1-.3-.8h-.1l-.1.3-.3 1.1-.8 3-.3.9-.2.6-.3.4a.1.1 0 01-.2 0 .1.1 0 010-.2l-.5-1.2-.5-.8-1 3.1c-.9 2.9-1.2 3.7-1.6 4.4l-.6.8a.1.1 0 01-.2 0l-.7-1.3-.3-.8-.3 1.2a57 57 0 00-.3 2.5l-.2.6v.3H411.4l-.2-.4-.3-.8a5 5 0 00-.4-.8l-.1-.2v.2l-.2.6-.8 1.8-1.3 3.8-.2.7-.2.3h-.2l-.1-.2s-.2 0-.3-.2l-.5-1-.3-.6h-.1l-.3.4-.6 1.2a13 13 0 00-1.3 4.1l-.1.5v.3h-.3l-.1-.2-.4-.1v-.1V99c0 2 .3 3.6.8 4.8.3.8.5 1 1.8 2.3l1.4 1.5a.1.1 0 010 .1l-5.8 9.7-5.8 9.8h.1a.1.1 0 01.1 0l1.5 1.1.7.6.3.2.2-.2.4-.4 10.5-17.5a.1.1 0 010-.1l.7-1.1a.1.1 0 01.2 0l.1.2c.7.5 2.8 1.3 3.8 1.5.8.1 1.9-.1 3.4-.7l2.9-1.4 1.4-.8c.4-.2.5-.4.6-.5l-.1-.1v-.1-.2l.3-.2.4-.2c1-.5 2.4-1.7 3-2.2l.3-.4v-.5c0-.6-.6-1.3-1.2-1.7l-.4-.2v-.1c-.1 0-.1-.1 0-.2l.3-.2h.3c2 0 3.5-.7 4.9-2.4l1-1.5.3-1v-.4l-.1-.1h-.7c-.4.2-.6.3-1.2.2l-.6-.1h-.4V96.2h.1c0-.2.1-.2.2-.3l1-.6c1-.7 2.2-1.8 4.1-3.8l1.5-1.4.2-.4-.2-.1h-.5l-1.1-.3h-.1l-.1-.2V89l.3-.3.3-.2 1-.6c1.2-.7 3-2 4-3l.4-.4-.3-.1-.8-.4a.1.1 0 010-.1.1.1 0 010-.1l.8-1 1.5-1.8.6-.9-.3-.2-.6-.4-.9-.2-1-.4a.1.1 0 01-.2 0 .1.1 0 010-.1v-.5a4.6 4.6 0 01.1-1.6c.4-1.4.6-3 .5-3.8V72h-.1l-.2.2c-.2 0-.3.1-.3.2 0 .2-.2.4-.3.5l-.2.1-.2.1a.1.1 0 01-.1 0 .1.1 0 010-.1V72.5l-.3-1.1-.2-1-.1-.6h-.2l-.2.2-1 .7-1 .7-.4.1-.1.2h-.2v-.2l-.2-.3-.1-.9-.3-1.3v-.1a.8.8 0 00-.3 0h-.3c0 .1 0 0-.1 0l-.1.3-.1.2-.4.4-.5.4-.1.1h-.2v-.1c-.4-1.4-1.2-2.6-2.2-4.2a.1.1 0 010-.2l-.3-.4zm-9 8.1h.1z" fill="#b07400"/>
    <path d="M429 65.8v.4l-.5 2-.3 1-.5-1a13 13 0 00-.7-1l-.1-.2c-.2-1.9-.2-3.6.2-5.8-1 1.4-.8 4.8-.8 6.1v.5c.2 1-.2 3-.8 3.6l-.4.4-.8-1.5-.4-.7c-.3-1.8.5-4.9.5-5.6-.5 2-1.2 3.8-1.3 5.8v.1a95.4 95.4 0 00-1.5 4.8l-.4 1-.4-1.3c0-.3-.1-.2-.2-.4.3-2 .4-4 .2-6-.2 1.8-.4 4.5-.8 6.1a68.9 68.9 0 00-1.1 4l-.4 1.2-.3.3-.5-1-.5-1c-.4-1.4-.5-2.9-.4-4.5-.5 1.7-.2 3.8 0 5.2l-.8 2.4a18 18 0 01-1.7 4.3l-.5.8-.7-1.2v-.2c-.7-2-.2-4.9-.4-5.7-.4 2-.5 4-.4 5.8v.5l-.4 2.5c0 .5-.1.9-.2.9l-.6-1.2c0-.3-.1-.2-.2-.4.3-2 .3-4.2.2-6.3-.2 1.2-.2 4.6-.8 6.2-.5 1-1.7 4.4-2.2 5.9-.4 1.2-.3 1.2-1.2-.3-.9-1.6-.8-4.7-1-5.6-.2 1.8-.2 3.6.1 5.4l-.6 1a13.2 13.2 0 00-1.4 4.2c0 .4-.1.7-.2.7v-.1c-1-1.7-1.6-4.4-1.9-5.1.2 1.9.6 3.7 1.2 5.4v.9c0 1.9.2 3.5.7 4.7.4.8.6 1 2 2.4l1.4 1.5-5.8 9.8-5.9 9.7.3.2a28.3 28.3 0 012.7 1.8l.5-.8 10.6-17.4.7-1.1.3.2c.8.5 3 1.3 4 1.5 1 .1 1.8-.1 3.3-.7 1.1-.5 3.9-1.8 4.8-2.4 1.2-.5 3.2-.8 4.6-.6-1.2-.8-3.2-.6-4.4-.1 0-.1 0-.2.6-.5 1-.5 2.6-1.6 3.1-2.1l.3-.5c3.2 0 5.4-1.7 6-3a9 9 0 01-6 2.3 3 3 0 00-1.3-1.6c-.5-.3-.5-.4.2-.4 2 0 3.5-.8 5-2.5.6-.9 1.1-2 1.2-2.5 2-1 3.8-2.7 4.4-4-1.4 1.5-3.2 3-4.4 3.3-.1-.2-.4-.1-.9 0-.3.2-.5.2-1 .2a3 3 0 01-1-.2l1.2-1c1.1-.6 2.3-1.7 4.2-3.6l1.2-1.3c2.4-.5 4.7-1.1 6.3-2.1a24.3 24.3 0 01-5.8 1.3 7 7 0 00-.8-.1c-1.2-.2-1.4-.2-1.2-.5l1.4-1a33.6 33.6 0 004.2-3c2.1 0 5.2-1.3 6-2-2.8 1-4 1.3-5.8 1.3l-.3-.1-.7-.3 1-1 1.5-1.8.6-.8.1-.2c1.2-1.3 4-3 4.8-3.6a19.4 19.4 0 00-5.3 3.3 8.2 8.2 0 00-1.6-.7l-1-.3v-.5c-.1-.3 0-.9.1-1.5.4-1.5.5-3.1.4-4v-.3a6.2 6.2 0 012.8-4.4c-1.9.4-3 2.6-3.3 4l-.4.4c0 .3-.3.7-.5.7 0 0-.1 0 0-.1 0-.2-.3-2.1-.6-3a17.3 17.3 0 012.7-4.8 12 12 0 00-3.2 4.4l-1.2.8-1.4 1-.3-1.2c-.2-1-.2-1.3-.4-1.4.5-1.6 1-3 1.4-6.4-.4 1.6-1.1 4.8-2.2 6.5 0 .2-1.2 1.4-1.3 1.2-.3-1.4-1-2.8-2-4.4-.3-1.8.2-3.9.7-5.8-.8 1.5-1.5 4.3-1.4 5.8zm.6 1.5l.2.4a9.4 9.4 0 011.1 2.8l.1.7-.8.6-.7.6V72l-.5-1.2c-.3-.9-.3-1-.2-1.2l.5-1.4zm-2.3 1.7l.4.8c.5 1 1 2.5 1.1 3 0 .2 0 .5-.3 1a7.4 7.4 0 00-1 1.7l-.2-1-.4-1s-.2 0-.6.6c-.4.6-.4.6-.4.3l.7-3zm6 1l.2.8.3 3.6s-.2.4-.8.7a8 8 0 00-2.9 2.7c-.3.5-.6.8-1 1a5 5 0 01-.9.5V79l-.2-1.2a2.4 2.4 0 01.1-1.6c.6-1.7.9-2 3-4l2.1-2.1zm-9.7.8l.3.5c.4.7 1 2.6 1.1 3 .1.7 0 2-.4 2.6l-.8 1.5c-.2.5-.3.9-.4.8l-.3-.6V78l-.7 1-.5 1.3v-1.7c0-1.6 0-1.8.4-3.5l1-3.1zm13.4 0c.2.2.4 1.5.4 2.2l-.2.6-1.3.5-1.2.3V72l1.1-.7a5.2 5.2 0 011.3-.8zm-11.5 1.7v.2c0 .2 0 .2 0 0v-.2zm13.3 1.4c.2.1-.5 3.4-.9 4.4-.1.4-.2.4-.6.4a10.8 10.8 0 00-4.9 1.6l.1-1.2c.2-1.3.2-2.2.1-2.2l-.8.4-.7.4.3-.4a6.5 6.5 0 012.2-1.7l2.3-.7a24 24 0 002.2-.7l.7-.3zm-12.2 1.4c.2.3.8 3.6.8 4.3 0 .2 0 .4-.5.7a8 8 0 00-1.9 2.6 2 2 0 01-.4.6l-.5-2.2c0-1 .3-2.2 1-3.6.7-1.3 1.4-2.6 1.5-2.4zm-6.2.7c.3.3.6 2 .6 3l.1 1.9c.1.7.2.8-.2 1.7a27.8 27.8 0 00-1.5 4.3l-.5-.7-.4-.6.1-1.3c.1-1.9 1.6-8.6 1.8-8.3zm11.2 2.4c.2 0 0 2.1-.4 3.4a8.3 8.3 0 01-.6 1.5c-.3.5-1.2 1.5-2.4 2.5-.5.4-.6.4-2 .7l-1.7.3.1-.6c.2-1.4 1.6-4.3 2.5-5.1.4-.4 4.3-2.7 4.5-2.7zm6 1.2c1.7 0 2.7.2 3.2.6.2.1.2.2-.4 1l-1.4 1.6-.9.8-.9-.3c-2.2-.8-3.6-.8-4.9-.1l-.8.4.2-.8.3-1.1c0-.4 1.7-1.4 3-1.7.9-.4 1.1-.4 2.6-.4zm-20.4 0s.3.3.5.9l.4 1-.2 1.5-.2 2.2c0 .7 0 .8-.8 2a36.8 36.8 0 00-1.3 2.3c-.5.8-.5.9-.6.6V88c0-1.7 0-1.8.4-3l1.1-3.2.7-2.1zm5.6.7a13.6 13.6 0 011 6.2c-.1.4-.2.6-.5.7-.5 0-.9.4-1.3 1l-.7 1.6-.4.8-.3-1c-.5-1.6-.4-3 .5-5.4a34.8 34.8 0 011.7-4zm11.2 3.2h1c.9.2 3.8 1 3.8 1.3a27.2 27.2 0 01-6 3.7c-1 .4-1.3.5-2.4.6h-1.2l1.2-3-.4-.1-.5-.1 1-.6a11.4 11.4 0 012.8-1.7l.7-.1zm-21 2.3c0-.1.3 0 .6.7.5.8.5 1 .6 2.3l.2 1.8.1.7h-.1c-.2-.4-.3-.3-.7.5-.9 1.6-1 1.7-1 1.4a23.1 23.1 0 01.3-7.4zm5.3.5l.3.3a14 14 0 011.5 3.2c.3 1 .3 3 0 3.4l-.7 1a9.2 9.2 0 00-.8 1.5 6 6 0 01-.5 1c-.4.4-.6 0-1-1a11.5 11.5 0 00-1.3-2.5c-.5-.9-.5-.9-.4-1.4a21.4 21.4 0 012.2-4.4zm10.3.3h.7l-.5 1.4-.6 1.2-.9.5c-.5.2-1.5.8-2.1 1.3-1 .7-1.1.8-2.3 1l-1.5.4c-.2 0-.2 0-.1-.3.2-1 1-3.1 1.4-3.7.3-.5.5-.7.8-.8a26 26 0 015.1-1zm-18 1.1a7.5 7.5 0 011 3.4l.3 2.2.2 1.1-.4 1.3-.5-1.2-.4-1.3-.3.3-.6 1-1 1.4c-.5 1-.6 1-.6 0 0-.7.2-1.9.6-3.4l1.8-4.8zm19 1.6l1.2.1c1.5 0 3.7.3 3.9.4.1.2-2.2 2.5-3.5 3.5A7.6 7.6 0 01428 95c-1.3.3-1.5.3-2.3.1a8 8 0 01-.8-.2l.3-.5 1.2-2.4c0-.2 0-.2-.4-.3h-.5l.9-.7 2-1zm-15.3 3.1c.2 0 1.3 1.8 1.8 2.8.4 1 .6 2.1.6 2.8 0 .4-.1.6-.5.8l-.5.4-.2-1c-.4-1.9-.5-2-.8-2-.5.2-1.5.9-2.1 1.4-.6.4-.6.4-.5-.4 0-.6 2-4.7 2.2-4.7zm10.5.1c.6 0 .6 0-.2 1.3-.6.9-.6 1-1 .8a4.3 4.3 0 00-2.5.3l-1.2.6-.5.2.4-.7a4.3 4.3 0 012-1.9c.8-.2 2.3-.6 3-.6zm-18.2.1l.6 1c.3.7.4.8.3 1.7v1.8l.4.7-.3 1.1-.3 1.1-1.2-1-1.3-.9v-1a9.5 9.5 0 011.3-3.8c.2-.4.3-.7.5-.7zm3.8 2.4c.2 0 .9 2.7.9 3.4 0 .2-.1.6-.3.8a11.8 11.8 0 00-1.5 3.3c-.3 1.1-.3 1.2-.4.7l-.6-1.3-.4-1v-1l.6-1.9c.4-.9 1.5-3 1.7-3zm12.5.4c.7 0 1.7.2 3.4.6a17.7 17.7 0 005 .8c0 .3-.8 1.4-1.5 2.1a5 5 0 01-3.1 1.7c-1.1.2-3.2.2-4.7 0-.5 0-.6 0-.4-.4l1.3-3c0-.2-.2-.1-.7 0a23.7 23.7 0 00-3.8.6l-.8.2c0-.1 2.4-1.7 3.4-2.2a3.5 3.5 0 011.9-.4zm-8.4 2l.4 1.6.3 3.3c0 2.4-.3 3-1.5 3.7l-1.5 1a7 7 0 01-1.4.7l-.6.3-6 9.8a292.3 292.3 0 01-6 9.7l-1.4-1c0-.2 2.5-4.5 5.6-9.6l5.5-9.2.4.2.4.3s-.2-.5-.7-1c-.8-1-2-2-2.5-2.7a7.3 7.3 0 01-1.2-2.5c-.2-.7-.4-3.4-.2-3.4.1 0 2 1.4 2.6 2 .8.8 1.2 1.6 2 4 0 0 .5 1 .5 1.6 0 .6-.4 1.7-.4 1.7.2-.6 1.3-1.2 1-2.4-.1-1 .7-3.9 1.4-5.2.6-1.1 3-3.3 3.3-3zm6.7.6l.5.1-1.4 3-1.3.3-1.8.3-1 .3c-.2.1-.1 0-.2-.9-.1-1.2-.1-1.4 1.2-2 1-.5 3-1 4-1zm1.7 4c1.3 0 2 .3 2.8 1 .6.6.7 1 .2 1.4a16 16 0 01-4.1 2.3l-1-.3a12 12 0 00-4.3-.8h-1a6 6 0 00.5-1.9v-.7l.7-.3c1.3-.4 4.4-.8 6.2-.8zm-6.1 4.6h2c1 .3 2.9 1 2.9 1.2 0 .2-3.8 2-5.1 2.4l-1.4.2a6.9 6.9 0 01-3.6-1.4c-.6-.4-.6-.5-.4-.6.1-.2.3-.2.4-.1 0 0 .3 0 .8-.3a5.8 5.8 0 012.4-1.3l2-.1z"/>
  </g>
  <path d="M453.1 129.9c8.4 8.5 16.9 14.7 25.3 28 0 0 8.4-4.4 11.5-2.1 10.7 7.6-3.5 22 6.2 38.8l-43.6 49.8z" color="#000" fill="#fff" stroke="#000" stroke-width="1.4"/>
  <path style="text-indent:0;text-align:start;text-transform:none" d="M478 157.4c-3 1.3-5.1 5-6.5 9.7a75 75 0 00-2.5 16.2c-.7 11-.2 17.6-.1 21.3.2-13 0-25.3 3.5-37.3 1.4-4.6 3.7-7.7 6.4-9l-.7-1zm-15.2.2c.2.4.7.3 1.2.2l1.3-.3c.6-.2 1.4-.5 1.7-.4.5.1.5 1 .5 1.6 0 .8-.3 2-.3 2 .6-1.4.9-2.3.8-3.2-.1-.4-.1-.7-.5-1-.3-.3-.7-.3-1.2-.2l-1.3.6c-.5.2-1.3.5-1.7.3-.3-.2-.2-.8-.1-1.1l.2-.9c-.5 1-.9 2-.6 2.4zm-5.2 46.1s2.5-.3 3.4-.2c1.5 0 3 0 3.8.8.4.4.4.8.4 1.3l-.3 2.6-.5 3.5c0 .3.1.7.3.9.5.6 1.3 1.1 2 1.5.8.4 1.6.5 1.6.5-1.6-1-3-1.8-3-3l.3-3.3.3-2.6c0-.8-.1-1.5-.6-2s-1.3-.5-2-.6a16 16 0 00-5.7.6zm24.2-35.3c1.8-.2 4.1-.6 5.2 0 .5.3.5 1.8.5 3 0 1.7-.3 2.4-.7 4.1.7-1.4 1-2.2 1.2-3.4.2-1.7.2-3.7-.5-4.3-.4-.4-1-.4-1.4-.4-2 .3-3.7.8-4.3 1z" color="#000"/>
  <path style="text-indent:0;text-align:start;text-transform:none" d="M476.3 173c-.8.3-1.8 1-2.6 1.6 0 0 1.8-1 3.2-1.3.9-.2 2.1-.5 2.6 0 .6.5 0 2.1-.2 3-.2 1.3-.7 2.7-.6 3.6 0 .4.8.5 1 .4 1-.3 1.8-1.2 2.6-1 .2.1.3.9.3 1.2l.1 2.7v4h.9v-4l-.2-3.1c-.1-.8-.3-1.4-.8-1.5-.9-.3-1.6.2-2.2.6-.3.2-.8.5-1 .3l.7-3c.4-1.7.8-3.6-.1-4-1.2-.5-2.6 0-3.7.5zm-2.6 20.2c0 .8 0 1.5.3 1.8.3.3 1 0 1.4-.1l.9-.7c.4-.4.9-.7 1.1-.5.3 0 .2 1 .2 1.3 0 .8-.2 1.8-.4 2.8a69.3 69.3 0 01-.6 4.3h.8l.6-4.2.3-3c0-.9 0-1.6-.4-2-.3-.2-.8-.1-1.2 0l-1 .6c-.3.4-.8 1-1.2.7v-1.4l.3-2.6c.5-2.2.8-2.8 1.2-4.3a19.3 19.3 0 00-2.3 7.3zM460 173a27.3 27.3 0 00-4.9.7l.2.8 2.8-.5 2-.3 1 .1.5 1.1.1 2.5c.1 1.8-.1 3.5-.1 3.5.6-1.7.5-2.3.6-3.5v-2.7l-.2-.9c-.1-.3-.1-.5-.4-.7a1.3 1.3 0 00-.7-.1 7.4 7.4 0 00-.9 0z" color="#000"/>
  <path d="M476 133.7l.8.9.8.8s2-2.7 1.9-3.3c-.6-.2-3.5 1.6-3.5 1.6zm10.8-2l.8.9.7.8s2-2.7 2-3.3c-.7-.2-3.6 1.6-3.6 1.6z" color="#000" fill="none" stroke="#000" stroke-width=".2"/>
  <g color="#000" fill="none" stroke="#000" stroke-width=".4" stroke-linejoin="round">
    <path d="M139 368.6a2.4 2.4 0 11-4.7-1.2 2.4 2.4 0 114.7 1.2zm4.8 2.2a2.4 2.4 0 11-4.7-1.2 2.4 2.4 0 114.7 1.2z"/>
    <path d="M139.6 373.9a2.4 2.4 0 11-4.8-1.2 2.4 2.4 0 114.8 1.2z"/>
  </g>
  <g color="#000" fill="none" stroke="#000" stroke-width=".4" stroke-linejoin="round">
    <path d="M144.6 416.6a2.4 2.4 0 11-4.7-1.2 2.4 2.4 0 114.7 1.2zm4.9 2.1a2.4 2.4 0 11-4.8-1.2 2.4 2.4 0 114.8 1.2z"/>
    <path d="M145.2 421.8a2.4 2.4 0 11-4.7-1.2 2.4 2.4 0 114.7 1.2z"/>
  </g>
  <g color="#000" fill="none" stroke="#000" stroke-width=".4" stroke-linejoin="round">
    <path d="M149.2 466.9a2.4 2.4 0 11-4.8-1.2 2.4 2.4 0 114.8 1.2zm4.8 2a2.4 2.4 0 11-4.7-1.1 2.4 2.4 0 114.7 1.2z"/>
    <path d="M149.8 472a2.4 2.4 0 11-4.8-1.1 2.4 2.4 0 114.8 1.2z"/>
  </g>
  <path style="text-indent:0;text-align:start;text-transform:none" d="M464.2 368.8c-1 .1-2.1.4-3.3 1.1a27.4 27.4 0 00-8.1 7.4 15.7 15.7 0 00-2.7 12.5c.4 2 1.2 3.7 2.2 5a6 6 0 003.8 2.6c2.8.4 5.3-.5 7.5-1 1.1-.2 2.2-.4 3-.3 1 0 1.8.4 2.6 1 1.6 1.5 1.7 3.6 1.3 5.6-.3 1.8-1 3-1.1 3.3-1-.3-11.3-3.4-19 2-3.9 3-5.4 6-6.6 9.1-1.3 3-2.2 6-4.7 8.6-2.6 2.7-6.9 5-10.8 7.3a38 38 0 00-5.2 3.4 8.2 8.2 0 00-2.9 4 6 6 0 00.1 3.5c.3 1 1 1.5 1.5 2l1.5 1.3c.4.3.6.6.6 1 0 1.2-.4 1.6-.8 2l-.8.6c-.3.3-.4.8-.4 1.2 0 1 .6 1.7 1 2.2l.7.8c.1.3.2.4.1.6 0 .5-.3.6-.7.9l-.7.4c-.2.2-.4.6-.4 1-.1.7 0 1.3.3 1.8l.4.9c.2-1.2-.6-1.6 0-2.8l.1-.2.5-.4c.5-.2 1.4-.6 1.6-1.4 0-.5 0-1-.3-1.3l-.7-1c-.5-.6-1-1.1-1-1.5 0-.2.1-.2.3-.4l.6-.6c.6-.5 1.2-1.3 1.2-2.7 0-.8-.3-1.4-.8-1.9l-1.6-1.3c-.5-.4-1-1-1.1-1.6a4.8 4.8 0 010-2.8 7.1 7.1 0 012.5-3.5 37.1 37.1 0 015-3.3c3.9-2.2 8.2-4.5 11-7.4 2.7-2.9 3.7-6 4.9-9 1.2-3 2.5-5.8 6.3-8.5 7.4-5.3 18.6-1.9 18.6-1.9a.6.6 0 00.2 0h.3a.5.5 0 000-.1.5.5 0 00.1-.1s1-1.8 1.3-4c.4-2.1.3-4.8-1.7-6.6a5.3 5.3 0 00-3.1-1.3c-1.1-.1-2.3.1-3.4.4-2.3.5-4.7 1.3-7.2 1-1.1-.2-2.2-1-3-2.1-1-1.2-1.7-2.9-2-4.7-.8-3.7-.2-8.1 2.4-11.6 2.8-3.6 5.5-6 7.8-7.1a8 8 0 012.9-1c.8-.2 1.5 0 1.9.4v.4c0 .3-.1.8-.4 1.3a21.5 21.5 0 01-2.4 3.5 62 62 0 01-4.2 4.6v.1a.5.5 0 00-.1.1.6.6 0 000 .3.6.6 0 000 .1l.3.3a.6.6 0 00.2 0h.2l1.3-.1c.8 0 1.4.2 1.7.7v.2c0 .2 0 .5-.2.8a13.5 13.5 0 01-1.5 2 40.5 40.5 0 01-2.6 2.7.6.6 0 00-.3.4l.1.3h.1v.1l.3.1a.6.6 0 00.1 0 .6.6 0 00.2 0h.2l2.8-2 2.1-1c.7-.2 1-.1 1.2 0v1l-1.3 2.3-2.1 3v.1a.5.5 0 000 .2.6.6 0 000 .3v.2l.3.1h.2a.5.5 0 00.1 0s2.4-.8 5.1-.9c1.4 0 2.8.2 4 .6a4.9 4.9 0 012.8 2.6c1.3 2.7 1.1 6.3.6 9.1-.5 2.9-1.3 5-1.3 5a.6.6 0 000 .2.6.6 0 000 .2v.2h.1l.1.1a.6.6 0 00.2 0h.2c2.2-.4 3.7-.3 4.9.1 1.2.4 1.9 1.1 2.5 2 1.1 2 1.5 4.7 2.2 7.4V419.3l.2.1h.1l.1.2a.6.6 0 00.2 0 .6.6 0 00.1-.1.6.6 0 00.2-.1l.1-.2v-.1c.1-2 1.7-3.3 3.7-3.2 2 0 4.4 1.5 6 5.1.1.5.3.8.6 1 .3.3.8.3 1.1.2.7-.2 1-.7 1.4-1.3l1.3-1.4c.5-.3.7-.5 1-.4.3.1.4.2.5.5v1c0 .9-.2 2 0 3 0 .3.3.5.5.6.3 0 .8-.4 1-.2.2.1.4.8.8 1.3.2.3.8.2 1.2.2.5 0 .8-.2 1 .2.4.4.2.6.5 1 .3.6 1.2 1.2 1.4 1.6-.7 1-3 3.7-5 6a83.5 83.5 0 01-2.8 3c-.8 1-1.6 1.7-2 2l-.3.1c-.1 0-.3-.3-.3-.7-.1-1 .1-2.4.5-3.4a16.4 16.4 0 013-4.4v-.2l-.1-.5a1.9 1.9 0 00-.6-.8c-.7-.6-1.9-1-4.2-1-4.6.3-8.3 2-14.8 2a9 9 0 01-6-1.7c-.7-.5-1.2-1-1.8-1.3-.7-.3-1.4-.3-2.2 0a2 2 0 00-.9 1c-.2.5-.3 1-.3 1.6l-.1 3.9c-.1 3-.7 6.7-3.6 10.3-3 3.7-4.8 6.2-6.2 7.7-1.4 1.6-2.4 2.4-4 2.9l-9.5 2.2c-.2 0-.2.2 0 .2 2.8-.2 4.8-.4 6.8-.4 1.5 0 2.3 0 3.3.8.4.3.6.7.7 1.2a7 7 0 01-.1 1.8l-.3 2c0 .8.2 1.6.7 2.1.5.6 1.1.7 1.7.7a8 8 0 001.7-.3l1.3-.1c.4 0 1 .1 1.2.7.2.6-.2 1.2 0 1.7.2.6 1.4.3 1.6.9.2.5-.5.6-.3 1.5.1.5.9.9 1 1.4.1.7-.4 1.5-.8 2l-.6.8-1.1 1.3a78.3 78.3 0 01-6.7 6.5 10.4 10.4 0 01-2.3 1.5l-.7-.1a1.7 1.7 0 01-.4-1 6 6 0 01.6-3.3c.5-1.1 1.3-2 2-2.8.6-.8 1.2-1.7 1.2-2.9a2 2 0 00-.4-1.2l-1.1-1a27 27 0 00-7.2-4.3 8.5 8.5 0 00-3.3-.9c-1 0-1.7.4-2.2.9-.6.5-1 1.1-1.2 1.7l-.8 1.4c-.3.4-.5.6-1 .6-.3 0-.6-.1-1-.6-.5-.4-1-1.1-1.5-1.8-1-1.5-2.6-3.3-5-3.4-3.4 0-4.2 2-4 2.4 0 0 0-.3.5-.7.5-.4 1.5-.9 3.5-.6 1.9.2 3 1.6 4 3l1.7 1.9c.6.6 1.2 1 2 .9.7-.1 1.3-.6 1.7-1l.9-1.6 1-1.4a2 2 0 011.4-.6c.7 0 1.8.2 3 .7a25 25 0 016.8 4.1l.8 1 .3.5c0 .8-.4 1.5-1 2.3-.7.8-1.4 1.6-2 2.9a7 7 0 00-.8 4c0 .7.3 1.2.7 1.6.5.4 1 .5 1.7.3.8-.2 1.7-.8 2.8-1.7a68.7 68.7 0 008-8l.6-.8c.2-.3.5-.7.6-1.2.2-.6.3-1.3 0-2l-.6-.7-.4-.3.2-.4.2-.6v-.7c-.2-.3-.4-.4-.6-.5l-.6-.2-.5-.1v-.6l.2-.6c0-.2 0-.5-.2-.7a2.6 2.6 0 00-1.7-1.2c-.6-.2-1.2 0-1.8 0l-1.4.3c-.4 0-.7 0-1-.3-.2-.3-.3-.8-.3-1.3 0-.6 0-1.2.2-1.9.1-.7.3-1.4.2-2.1a3 3 0 00-1.1-2c-.8-.6-1.7-.6-2.6-.7l2-.4a8.6 8.6 0 004.1-3c1.5-1.6 3.2-4 6.2-7.7 3.2-3.9 3.8-7.9 3.9-11V430l.2-1.2a.7.7 0 01.5-.5c.5-.2.7-.2 1.2 0l1.6 1.1c1.3 1 3.3 2.2 6.7 2 6.7 0 10.5-1.7 14.8-2 2.2 0 3.1.4 3.5.7l.3.4c-.3.2-2.1 2.2-3 4.3a9 9 0 00-.4 3.9c0 .5.1 1.1.6 1.5.2.2.5.3.8.2l.9-.3 2-2a93.9 93.9 0 007.5-9c.2-.3.2-.8 0-1.1 0-.3-.2-.5-.4-.8l-1-.9-.1-.6-.3-.6c-.1-.2-.4-.3-.7-.3h-1.1l-.6-.1-.1-.4-.3-.6c-.1-.2-.3-.5-.6-.5h-.6c-.6-.5.1-1.7.2-2.6 0-.5 0-1-.2-1.5a1.9 1.9 0 00-1-1c-.9-.4-1.7 0-2.2.4-.6.5-1 1.2-1.5 1.7a5 5 0 01-.8.9h-.1l-.3-.6c-1.7-4-4.4-5.7-7-5.8-1.9 0-3.3 1.2-4 2.8-.5-2.2-.8-4.7-2-6.5a5.7 5.7 0 00-3-2.5 12 12 0 00-5 0c.2-.4 1-2 1.4-4.6.6-3 .8-6.6-.6-9.7a6 6 0 00-3.4-3.2c-1.4-.5-3-.6-4.4-.6-2.2 0-3.2.5-4 .7l1.4-2.1c.5-.9 1-1.8 1.2-2.6.2-.4.2-.7.2-1 0-.5 0-1-.4-1.2-.6-.5-1.4-.4-2.2-.2-.6.2-1.2.6-1.7.9l1.4-1.9c.2-.3.4-.6.4-1 .1-.4.1-.8-.1-1.1-.7-1-1.8-1.2-2.7-1.2h-.1c.7-.7 1.7-1.7 3.3-3.7 1-1.2 1.9-2.5 2.5-3.6a5.3 5.3 0 00.6-1.7 1.5 1.5 0 00-.6-1.4 3.4 3.4 0 00-2.6-.6z" color="#000"/>
  <path style="text-indent:0;text-align:start;text-transform:none" d="M399 428c-.4 0-.8.2-1.1.4l-.8 1c-.5.7-1 1.6-1.4 2.6-.9 2-1.8 4.5-2.9 5.7-1 1.3-2.5 2.1-3.9 3a9.3 9.3 0 00-3.4 3c-.7 1.3-.5 2.7-.4 4 .1 1.3.1 2.4-.2 3 0 0-.6.4-1.3.6l-2.8.4-2.7.2-1 .2-.3.2-.1.4h-.1V453.9c.2.4.5.8 1 1.2.5.4 1.8.6 2.9 1h-.3a2 2 0 00-.7 1.4c0 1.2.8 2.1 1.6 2.8l1.2.8c-.2.3-.4.8-.5 1.6 0 .6 0 1.2.4 1.8a3 3 0 001.8 1.4c1.5.4 2.6-.2 3.4-.8l-.7 1.7c-.4 1-.6 2.1-.6 3v1.5c.2.4.5.8 1 1 .7.5 1.6.4 2.7.2 1-.1 2-.5 3.1-.8 1.5-.5 2-.8 2.6-1.1-.2.7-.5 1.6-.7 3.1-.2 1-.2 2.1.1 3a2.8 2.8 0 002.7 1.6c1.3 0 2.3-.8 3.1-1.8a13 13 0 002-3.6c.8-2 .9-3.3 1-4 .4.5 1 1.2 2.4 2.4 1.8 1.6 4.2 3.1 6.7 2.5 1.2-.3 2-1 2.3-2a5.6 5.6 0 00-2-6.3 14 14 0 011.3 3.7c0 .9-.1 1.6-.4 2.2-.2.7-.6 1.2-1.5 1.4-1.8.5-4-.8-5.7-2.3-1.7-1.5-3-3-3-3a.5.5 0 000-.2.6.6 0 00-.4-.1.5.5 0 00-.1 0l-.3.2a.5.5 0 000 .1v.2s-.4 2.4-1.3 4.8c-.5 1.2-1 2.4-1.7 3.3-.7.8-1.6 1.4-2.5 1.4-1 0-1.3-.3-1.5-1a5 5 0 01-.2-2.4 18.9 18.9 0 011-4 .5.5 0 00.1 0 .6.6 0 000-.2v-.2a.5.5 0 00-.2-.1.6.6 0 00-.3-.2.6.6 0 00-.2 0 .5.5 0 000 .1l-3.7 1.5c-1 .3-2 .7-3 .8-.8.2-1.6 0-2-.2a.7.7 0 01-.3-.4 2.6 2.6 0 010-1c0-.7.3-1.7.6-2.7l1.5-3.9a.5.5 0 00.1-.1.6.6 0 000-.2.6.6 0 000-.3.5.5 0 00-.2 0 .5.5 0 000-.1h-.1a.5.5 0 00-.1-.1.6.6 0 00-.2 0 .6.6 0 00-.2 0 .6.6 0 00-.2.3s-.3.7-1 1.3c-.7.6-1.7 1-3.1.7-.7-.2-1-.4-1.2-.8a2 2 0 01-.2-1.2c0-.8.5-1.7.5-1.7v-.1a.6.6 0 000-.2.6.6 0 000-.2.5.5 0 00-.1 0 .5.5 0 00-.1-.2h-.1l-1.4-1c-.6-.6-1.1-1.3-1-1.9 0-.3 0-.4.2-.6l.6-.2h1.2a.5.5 0 000-.1c.2 0 .3 0 .3-.2a.5.5 0 00.1 0v-.1-.2a.6.6 0 000-.2.5.5 0 000-.1.5.5 0 00-.2-.1.6.6 0 00-.2-.1c-2.4-.1-3.7-.7-4.4-1.3a2.1 2.1 0 01-.7-1.1l.7-.2 2.6-.2c1-.1 2-.2 2.9-.5.9-.2 1.6-.3 2-1 .7-1 .5-2.4.4-3.6-.1-1.3-.3-2.5.2-3.4.5-1 1.7-1.7 3-2.6 1.5-.9 3-1.8 4.3-3.2 1.2-1.5 2.1-3.9 3-6a19.3 19.3 0 011.3-2.5l.5-.7h.3l.2.1c.2.2.3.5.4.9.2.7.3 1.7.3 2.7a45.5 45.5 0 01.1 4.2.5.5 0 00.2.2l.1.1h.5a.5.5 0 00.1-.1.5.5 0 00.1-.1l.1-.3 1.3-2.6a16.5 16.5 0 011.7-2.5c.1-.1.2 0 .2 0l.8.2 1.4.7c1 .5 2 1 3.2.9.7 0 1.2-.4 1.5-.9.4-.4.7-1 .9-1.4.2-.5.4-.9.7-1.2l.7-.6c.3 0 .4 0 .7.3l1.1 1.3 1.4 1.5a3 3 0 002 .7c1.6-.1 2.5-1.1 3.3-2l1-.9c.4-.2.7-.3 1.1-.3.4 0 .6.3.9.7.2.4.5 1 .6 1.6.4 1.2.4 2.4.4 2.4l1-.1s0-1.2-.3-2.6c-.2-.6-.4-1.3-.8-2-.4-.5-1-1-1.7-1-.7-.1-1.3 0-1.8.4-.5.3-.8.7-1.2 1.1-.7.8-1.4 1.5-2.5 1.5-.6 0-1 0-1.3-.4l-1.2-1.3-1.2-1.4a2 2 0 00-1.7-.5c-.6.1-1 .5-1.4 1l-.8 1.4-.7 1.2c-.2.3-.4.4-.8.5-.7 0-1.7-.4-2.6-.9l-1.5-.7a2.8 2.8 0 00-1.2-.4c-.4 0-.7.2-.9.4a16.3 16.3 0 00-2 2.8l-.4.7V433a15.6 15.6 0 00-.4-3l-.5-1c-.2-.4-.5-.7-1-.7z" color="#000"/>
  <path style="text-indent:0;text-align:start;text-transform:none" d="M403.5 438.2a7 7 0 012.8 2.8c.5.8.5 1 .7 1.7.1.6.2 1.4.1 2.7 0 .9.5 1.6 1.2 2.4.7.7 1.6 1.4 2.6 2.1 1.9 1.4 4 3 4.8 4.4a4 4 0 01.3 3.4c-.3.8-.8 1.3-.8 1.3a.5.5 0 000 .1.6.6 0 00-.1.3v.2l.1.2s.6.4.9 1c.3.8.5 1.6-.2 2.6-.3.4-.6.6-1 .6s-.8 0-1.2-.2c-.8-.4-1.5-1-1.5-1a.5.5 0 00-.1 0 .6.6 0 00-.3-.1.6.6 0 00-.1 0 .6.6 0 00-.2 0 .5.5 0 00-.1.2l-1.5 1.2c-.8.5-1.9.7-2.9.3a9 9 0 01-2-1.7l-2.7-3c-1-1-2-1.9-3-2.6-1-.6-2-1-3-.8l-2.6.6c-.5 0-.9 0-1.5-.4a6.3 6.3 0 01-2.8-3 4.7 4.7 0 002.3 3.7c.6.4 1.2.8 1.9.8s1.6-.1 3.1-.6c.5-.1 1.2 0 2 .7a21 21 0 012.7 2.5l2.8 2.9a9 9 0 002.4 2c1.5.6 2.8 0 3.9-.5.8-.5 1.1-1 1.3-1.1.3.2.6.6 1.5 1a3.5 3.5 0 001.8.3 2.4 2.4 0 001.7-1.1c.9-1.4.7-2.7.3-3.6-.3-.7-.7-1-.8-1.2.2-.3.5-.5.7-1.3a5.2 5.2 0 00-.4-4.3c-1-1.7-3.1-3.2-5-4.6a21 21 0 01-2.5-2c-.6-.7-.9-1.3-.9-1.7.1-1.4 0-2.2-.1-3a5.3 5.3 0 00-1-2c-1.5-2-2.8-2.2-3.6-2.2z" color="#000"/>
  <path d="M393.7 456.7c.4-3.5 3.2-2.8 5.5-3.1-1.4 1-3 1.7-3.7 3.5zm13.8-14.4c-3.6.4-2.9 3.3-3.2 5.5 1-1.4 1.4-2.8 3.2-3.6" color="#000" stroke="#000" stroke-width=".5" stroke-linejoin="round"/>
  <path style="text-indent:0;text-align:start;text-transform:none" d="M443 466.9l-1.1.3a71.4 71.4 0 001.8 7.5c-.2.4-.5.5-1 .8-.3 0-.5.2-.8.4-.3.2-.6.4-.7.8-.3 1.3-.3 4.8-.2 5.8 0 .2 0 .5.3.6.6.2 1.7-.7 2-.2.2.6-1 1.5-1.1 1.9-.2.7.6.6 1 .6s.8-.1 1.2.2c.3.3.2.7 0 1-.1.2-.4.3-.5.7 0 .6.3 1 .6 1.1.5.3.8.2 1.2.5.5.4.4 1 .2 1.3-.4 1.1-.5 1.4-1.2 2.2-.6.7-1.5 1.5-2.3 2.1-.8.7-1.8 1.2-2.5 1.4-.8.2-1.5.2-2-.2-.3-.3-.7-1.2-.9-2.4V489c.2-3 .7-5.7.7-5.7a.6.6 0 000-.2.6.6 0 000-.2.6.6 0 00-.1-.2l-5-3.4a73 73 0 00-3.5-2.3l-1.4-.9c-.4-.2-.7-.4-1.1-.4a2 2 0 00-1.2.5l-.9.7c-.5.5-1 .9-1.9.9-.2 0-1-.3-1.8-.9a31 31 0 01-2.8-2.1l-3.4-3.2-.7.8a52.9 52.9 0 006.3 5.4c.9.6 1.6 1 2.4 1 1.3 0 2.1-.6 2.7-1.1l.7-.6c.2-.2.3-.3.5-.3l.7.3 1.3.8a73.1 73.1 0 018.1 5.5 45.4 45.4 0 00-.6 10c.2 1.3.5 2.5 1.4 3.1.8.6 1.8.7 2.8.4 1-.3 2-.9 2.9-1.6.9-.7 1.7-1.5 2.4-2.4.6-.8 1.1-1.5 1.2-2.3v-1.4c0-.4-.2-.7-.5-.9l-1.5-.7v-.1s-.1 0 0-.2c.1-.1.4-.3.5-.7v-1.2a1.4 1.4 0 00-1-.7 2.5 2.5 0 00-1 0h-.2l.3-.4.5-.7c.2-.3.2-.8 0-1.1-.3-.4-.7-.4-1-.5l-.7.1h-.1c0-.7.1-4.4.3-5.2l.2-.2.6-.3c.5-.2 1.3-.6 1.6-1.4.2-.6 0-1.3 0-2l-.7-2.7a45.8 45.8 0 00-1.1-3.6zm43-36.4l-1 .3s1 3-.3 5.7c-.7 1.2-1.8 1.8-2.9 2.3l-1.4.7c-.5.3-1 .8-1 1.5 0 2 1.6 3 2.2 3.5.1.1 0 .2 0 .2s.1 0 0 0c0 .2-.1.8.2 1.3.1.3.5.5.7.5.4.1.8-.1 1 .2.4.9 0 2 0 3a15 15 0 01-.8 3.5 49.5 49.5 0 01-7.8 8.8l-.5.4s-.3-.1-.5-.4a3.3 3.3 0 01-.6-1.3 4.8 4.8 0 01.5-3.5c.9-1.3 1.7-3 2.3-4.8.7-1.8 1-3.6 1-4.8-.1-1.3-1.1-2-2-2.5-.9-.6-1.8-1.2-2.2-2-1-1.6-3.2-6.5-3.2-6.5l-1 .5s2.2 4.7 3.3 6.6c.6 1 1.7 1.6 2.5 2.2.9.6 1.4 1.1 1.5 1.9a23.4 23.4 0 01-3 8.8 5.8 5.8 0 00-.7 4.4c.2.7.4 1.2.8 1.7.3.5.9.9 1.5.8l1-.5 1.1-1a44.2 44.2 0 007-8.3c.4-1 .6-2.5.7-4v-2-1.2a1 1 0 00-.7-.7 2.4 2.4 0 00-.7-.1h-.4v-.1c-.2-.2-.1-.2 0-.5a1.3 1.3 0 00-.5-1.2c-.7-.7-1.6-1.3-1.5-2.8 0-.3 0-.4.4-.6.3-.3.8-.5 1.4-.7a6.2 6.2 0 003.2-3c1.5-3 .4-6.3.4-6.3zm-16.5-2.2s-.5 3.2-2.7 4c-1 .4-3 0-4.7-.3-.9-.2-1.7-.4-2.5-.4s-1.5 0-2 .5c-.6.5-.8 1.4-1 2.4l-.1 3.3-.2 3.1-.1 1.2c0 .3-.2.5-.2.5a1.6 1.6 0 01-.3-.1l-1.4-1.3-1.6-1.5a6.7 6.7 0 00-.8-.6 1.3 1.3 0 00-.7-.3c-.4 0-.6.2-.8.4a3 3 0 00-.4.8l-.5 2.1c-.4 1.6-.8 4.2-1.5 4.8-1.9 1.7-4.5 1.7-6.5 2.1 0 0 1.3.2 2.9 0 1.6-.1 3.5-.5 4.5-1.8s1.3-3.2 1.7-4.8l.4-2c0-.3.2-.4.3-.5v.1l.7.5a93.8 93.8 0 013.2 3l.8.2c.4 0 .7 0 .9-.4.2-.2.3-.6.3-1l.2-1.3v-3.2l.3-3.2.5-1.7c.2-.1.7-.3 1.3-.2.7 0 1.5.2 2.4.4 1.8.4 3.7.8 5.2.3 3-1.1 3.4-4.9 3.4-4.9l-1-.2z" color="#000"/>
  <path d="M425.3 519c-.4-2.4.8-3.2 1.2-4.8 1 0 1 1.6 2-.5.8-1.1 1.4-3.8 2.6-3.2 1.1-.2 1-4 2.2-3.3.8-.8 1.3-.8 1.7-1.4m12.7-4.6c-.5-2.6 2.8-1.7 2.8-3.9.6-.8.9-2 2.8-1.4-.5-2.8 1.2-3.4 3.1-4.1.2-1.4 1.9-.8 1.5-1.7m12.5-16c-1-2.5 3-1.2 2.6-3.3.1-1.3 1.7-1 2-2.1 2.7.7-.1-3.7 1.7-3.4.6.5 1.1-3 3-1.7-.7-2.9 2.9-.6 2.3-3.2-.1-2.7 2.9 1 2.4-2.8 2 0 .3-4.5 3.6-3.4.2-2.3 2.7-1.3 3.6-3.1 1-1.1 2-2.8 2-3.7m25.2-17.3c-1.2-.2-1.2.9-1.4 2.2-2.6-1.9-.2 4-3.7 1.9-1.3-1 .8 5-2.1 3.1-1 1.7-1.5 2.6-2.7 3.9-.8 1.5-1.7 2-3 2.1-.3.2-2 1.3-2.3 2.2" fill="none" stroke="#000" stroke-width=".5"/>
  <path d="M81.8 100.4c-.4.3-.5.7-.3 1.3.2.5.8 1 1.6 1.6a5.6 5.6 0 01.7.6v.2h0l-.2.2h-.2l-.7.3a42 42 0 00-4.2 1.8 8.1 8.1 0 00-3.1 2.5l-.2.5c-.3.6-.2 1.3.1 1.6.3.2.8.4 1.5.4s1.7-.1 2.8-.4h0l.2-.1a.2.2 0 010 0 .2.2 0 01.1 0 .2.2 0 01.1 0 .2.2 0 010 0 .2.2 0 01.1 0 .2.2 0 010 .2v1.2a.2.2 0 010 0 .2.2 0 010 .1l-1 1a70 70 0 00-4.7 4.7 13 13 0 00-1.6 2.3c-.6 1-.7 1.5-.3 2.7.2.6.3.7.6 1 .3.4.4.4.7.5h.2v.1h.1v.1h.1v.1s0 0 0 0v.8l-.2 1.8a6.4 6.4 0 00.3 2.5c.3.6.6 1 1 1.2.2 0 .3.2.3.2v1.1c.2 3.6.6 5.7 1.4 7 .3.6.8.9 1.2 1 .4 0 .8 0 1-.5.3-.2.6-1 .6-1.2l.1-.2s0 0 0 0l.1-.1v-.1H80.4v.1h.1l.3.4.9 1a16.6 16.6 0 002.5 2.4l.9.4.5-.1c.4-.2.7-.7.8-1.3a4.7 4.7 0 00-.1-2.1v-.5l-.1-.2v-.1l.1-.1h.2l.2-.1h.6l1.3.2.8-.1c.3-.2.4-.4.4-.7 0-.3-.3-.8-.7-1.4l-1.3-1.4-2-2-.8-.7a.2.2 0 010 0 .2.2 0 01-.1-.1.2.2 0 010 0l.3-3.1.3-4.2v-1.2a.2.2 0 010 0 .2.2 0 01.1-.1.2.2 0 010 0 .2.2 0 01.1-.1.2.2 0 010 0 .2.2 0 01.2 0l.6.3.9.5.1.4v.4l-.1.5-.1.4-.5.9-.2.5c0 .3.1.6.3.8a2.6 2.6 0 001.8.8l.5-.1.2-.1a.2.2 0 010 0 .2.2 0 010 0 .2.2 0 01.2 0 .2.2 0 010 0l.8.8a8 8 0 004.8 2.4l1 .2c.5.1 1.3-.1 2.2-.6l.4-.2h.2s0 0 0 0h.1l.1.1h0v.1h0v1.3l-.2 2.6-.2 3.3 1.6-1.6 2-2v-6.1a.2.2 0 010 0 .2.2 0 010-.1l.3-.3a.2.2 0 010 0l.4-.3a.2.2 0 010 0 .2.2 0 01.2 0 .2.2 0 010 0 .2.2 0 010 .1.2.2 0 01.1 0l.2.9.1.5H104.2v-2.2a.2.2 0 010-.1.2.2 0 010 0l.5-.6.5-.4h.2v-.1H105.7l.1.3.2.4.7 1.6.5 1.6v.1l.3-.1.8-1.4.9-1.4.2-.4v-.2-.3l-.6-1-.5-1-.1-.2v-.2h-.1v-.2h0l.1-.1.2-.2.5-.4 1.5-1.5 3.5-3.4 1.3-1.3a.2.2 0 010 0 .2.2 0 010-.1.2.2 0 01.1 0 .2.2 0 01.1 0l.3.2a.2.2 0 010 0l2.7 2 2.2 1.6.2-2.1.2-2v-.4l-.1-.2c-.1 0-.2 0-.3-.2l-1-.8-1-.7-.3-.2v-.1h-.1v-.1h0a.2.2 0 010-.1h-.1v-.1s0 0 0 0l.1-.1.2-.3.5-.5.5-.5.2-.2s0 0 0 0h.2v-.1h.5l1.1.3 3.6.7 3.6.8 1.1.2.2.1v-.6-4.2l-3.2-.8-2.4-.6-.8-.2h-.2s0 0 0 0h0l-.1-.1.1-.2h-.2 0v-.1l.2-.1.1-.3c.5-.7 1.1-1.9 1.3-2.4.2-.6.4-2 .3-2.9-.2-1.4-1-3-2.4-4.7l-.6-.7a.2.2 0 010 0 .2.2 0 010-.1.2.2 0 010-.1l.2-.4c.2-.5.2-.7 0-1.2v-.3l-.4-.4c-.6-.6-1.2-.7-1.9-.4l-.7.4-1.3 1-1.3.9-.8.5h-.2a.2.2 0 010 .1.2.2 0 010 0 .2.2 0 01-.2 0 .2.2 0 010 0 .2.2 0 010-.1.2.2 0 010-.1.2.2 0 01-.1 0 .2.2 0 010-.1l.2-.3a.2.2 0 010 0c.6-.8 1.5-2.5 1.8-3.5l.5-1.3.3-.6V90l.2-.2.5-.3.3-.2a.2.2 0 01.1 0 .2.2 0 01.1 0 .2.2 0 010 0l1.6 1.5c3 3 5.3 4.8 6.6 5.3.3.1.6.2.8.1.2 0 .4 0 .5-.2.2-.2.3-.7 0-1.5a16.6 16.6 0 00-1.2-2.5h-.1v-.3 0-.2h.3l.1.1.6.5c1.5 1.5 3.6 3 4.6 3.4.6.3 1.4.2 1.7-.1.3-.3.3-.8.1-1.5-.2-.8-.6-1.7-1.4-2.8h0l-.6-.8a.2.2 0 010-.1.2.2 0 01-.1 0 .2.2 0 010-.1.2.2 0 010 0 .2.2 0 010-.1.2.2 0 01.1 0 .2.2 0 010-.1l.7-.2c.3-.1 1-.6 1.8-.8a21.7 21.7 0 004.6-2.6c1-.8 1.4-1.5 1.3-2.1 0-.3 0-.3-.3-.6a1.8 1.8 0 00-1.3-.6h-.4a.2.2 0 01-.1 0 .2.2 0 01-.1 0 .2.2 0 010-.1.2.2 0 01-.1 0 .2.2 0 010-.1.2.2 0 010 0v-.3c.2-.9.2-2.8 0-3.5a3 3 0 00-.8-1.6 2 2 0 00-1.4-.6c-.8 0-1 .1-1.6.7a4.8 4.8 0 00-1.4 2.2c-.4 1.2-.6 2.2-.8 4.3a.2.2 0 010 0v.3a.2.2 0 010 0 .2.2 0 01-.1.1.2.2 0 010 0l-1 .5-1.9.6-.6.3a.2.2 0 010 0 .2.2 0 01-.1 0 .2.2 0 01-.1 0 .2.2 0 01-.1 0l-.5-.6-1-1.1-.6-.6a.2.2 0 010 0 .2.2 0 01-.1-.1.2.2 0 010 0 .2.2 0 010-.2.2.2 0 010 0l.6-.5c.8-1 1.1-1.8 1-2.4 0-.4 0-.5-.4-.9s-.9-.5-1.5-.4c-.6 0-1.4.3-2.3.8l-2.4 1.8-.3.3h-.4a.3.3 0 01-.2 0v-.3a4.4 4.4 0 010-.4 4.4 4.4 0 00-.5-2c-.3-.5-.6-.7-1-.7-.3 0-.4 0-.7.3-.3.1-.7.4-1.2 1l-.8.8-.4.4-.2.3a.2.2 0 010 0 .2.2 0 010 .1.2.2 0 01-.2 0 .2.2 0 010 0 .2.2 0 010 0l-.5-.1c-1.2-.4-2.3-.5-2.9-.3-.8.3-1.4.8-2.6 2a27.2 27.2 0 00-2.7 3l-.5.8-.2.3h0l-.2.1h-.2a3.9 3.9 0 01-.5-.5c-.6-.8-1.3-1.1-1.8-1.2-.5 0-1 .1-1.7.6-.5.5-.7 1-1.1 1.8l-.7 2.8a.2.2 0 010 0v.3a.2.2 0 010 0 .2.2 0 010 0 .2.2 0 01-.1.1.2.2 0 010 0 .2.2 0 01-.1 0 .2.2 0 01-.1 0l-.4-.2c-1.2-.7-2-.7-2.7-.2-.7.4-1.1 1.4-1.4 3-.1.9-.3 3.2-.2 4.3l.1.5v.2s0 0 0 0v.2h-.1v.1h-.1s0 0 0 0h-.1l-.2-.1-.5-.2c-1.3-.5-2.5-.6-3.3-.4-.6.2-1 .6-1.1 1l-.1.5a.2.2 0 01-.1 0 .2.2 0 010 0 .2.2 0 01-.1.1.2.2 0 01-.1 0 .2.2 0 010 0h-.4 0c-1.6-.2-4.2-.3-5.4-.2-.9.1-1.8.5-2 .7z" color="#000" fill="#f9a400" stroke="#3eb947" stroke-width="0"/>
  <path style="text-indent:0;text-align:start;text-transform:none" d="M100.1 148.7l-.2.3v1l.8 1.4a13.7 13.7 0 003.5 3.5 34.8 34.8 0 0014.7 5.3h.1v.1a.5.5 0 01.2.1v.5s1.1 1 2.5 1.7c.6.4 1.4.7 2.2 1 .7.2 1.3.3 1.9.1l.9-.5a.5.5 0 01.2 0h.2a35.4 35.4 0 005.6 2.4h1a.8.8 0 00.5-.3v-.7a2.6 2.6 0 00-.5-.8c-.6-.6-1.3-1.1-2.1-1.6l-2.7-1.4a.5.5 0 01-.1 0 .5.5 0 01-.2-.3v-.1-.2c.3-.4.6-.9 1-1.2.8-.6 1.7-1.7 3-2.3 1.3-.7 2.6-1.3 3.4-2 .8-.7 1.7-2.3 2.6-3.7.7-1.3 1.6-1.7 1.7-2a.5.5 0 01.2 0 .5.5 0 010-.1h.3l3.3.5a13.5 13.5 0 002.1 0l.3.2.1.2v.4a.5.5 0 01-.1 0c-2 1.8-3.3 3.5-3.8 5a7.2 7.2 0 00.4 5.7c1.6 3.5 5.3 6.8 8.7 10v.1h.1v.5l-.4.7c-.3.7-.6 1.6-.8 2.7a8 8 0 00.1 3.2 4 4 0 001.9 2.5H153l.2-.3c.2-.3.2-.7.4-1.3a14.3 14.3 0 011.6-3.7c.9-1.3 2-2.4 3-3.3l1.3-1.4c.3-.4.3-.7.3-1.1-.2-1.4-1.3-2.2-2.2-2.6a5.1 5.1 0 00-1.5-.5.5.5 0 01-.2 0 .5.5 0 010-.1.5.5 0 01-.1-.1.5.5 0 010-.2c-.6-2.4-2.2-3.9-4-5.4a.5.5 0 010-.2v-.1-.2a8 8 0 003.2-4.8.5.5 0 01.1-.1.5.5 0 01.1 0 .5.5 0 01.4 0h.1a16.2 16.2 0 005.4 1.3c1.5.1 3 0 4.3-.4a3.8 3.8 0 002.4-2 .5.5 0 010-.2.5.5 0 01.2 0l.1-.1H168.4a.5.5 0 01.1.2l.4.9c.4 1 .8 2.5 1.5 3.2.7.7 1.7 1 2.8 1.1 1 .2 2.2.4 3 1 .6.4 1 .8 1.1 1.1l.4.7v.2a.5.5 0 01-.1.3.5.5 0 01-.1.1.5.5 0 01-.2 0c-1 .1-2 .9-3.3 2.4-.7.7-1.8 1.6-1.9 3 0 .7-.2 1.4.2 1.9s1 .8 2 .8c.8 0 1.4-.4 2-1 .6-.7 1.2-1.6 2.1-2.2.7-.5 1.6-.7 2.4-1 .8-.4 1.6-.8 2-1.5.3-.6.7-1.2.9-2 .2-.6.2-1.3-.2-2-1.7-3.2-5-5-7.4-10.3a8.3 8.3 0 01-.1-6.3l.6-2.4c0-.7-.1-1.5-.7-2.3a4.2 4.2 0 00-2.4-1.7c-1-.2-2.2-.3-3.4-.3-2.3-.1-4.8-.2-6.5-1.4a6.5 6.5 0 01-2.7-4.8c-.2-1.6.3-3 1.1-3.7l.3-.3H163l.1.2 1.2 1.3c.8 1 1.8 2.3 3 3.2a7.3 7.3 0 003.7 1.4 5 5 0 003-.5c1.3-.8 1.8-2.4 1.9-3.8a5.9 5.9 0 00-.2-1.8l-.2-.5-.4-.4c-.1 0-.3 0-.4.2l-.6.6c-.4.4-1 1-1.9 1.1-.5 0-1-.2-1.6-.7-.6-.4-1.4-1.2-2-1.8a17.7 17.7 0 00-2.3-1.8c-.7-.5-1.4-.8-2-.7-2.2.1-3.7.7-4.6 1.6a5 5 0 00-1.4 3.4c-.2 2.6.9 5.6 1.9 7.6.5 1 1.9 1.7 3.4 2.5 1.6.7 3.4 1.5 4.7 2.5a11 11 0 013 3.1v.3l.1.2v.1a.5.5 0 01-.1.3.5.5 0 01-.1 0 .5.5 0 01-.2.1.5.5 0 01-.2 0l-.4-.2-2.5-1a235.8 235.8 0 00-13.2-4.8c-1-.2-1.6-.4-2.2-.4h-.2a.5.5 0 01-.3 0 .5.5 0 010-.2.4.4 0 01-.1-.2v-.1c0-.2 0-1.4.7-2 .4-.2 1.4.2 2 .3 1 .2-1-3.1-1.3-3.6-.6-.8 1.7 1 2.6 1.5.7.4-2-4.8-2-5.2-.4-1 1-1 2.1-1 .9 0-1-1.9-2.1-3.2-1.2-1.6 1.8-1.6 2.4-1.8 0-1.3-4.5-2-4.4-3 1.3-.2 3.3.2 3.1-.5-.4-1.7-5.3-1-7.2-3.1l-2-1.7c-.7-.4-1.5-1.1-2-1.1-.6 0-1.1.4-1.6.9-.6.5.2 2.4.1 3.6-1.8.5-2.5.4-4 1.7a16 16 0 01-5 3l-2 .8c-.7.2-1.2.3-1.4.5-.5.3-1.1 1.1-1 2 .2.8-.2.8.7 1.8 1 1 2.6 1.4 4.1 1.7l2 .3c.4.1.5.4.6.4a.5.5 0 01.2.1v.5a.5.5 0 01-.1 0c-.1.2-.2.3-.5.4l-1.3.2c-1.1.1-2.3.1-3 .7a.4.4 0 000 .2c-.1 0 0 .2 0 .2 0 .3 0 .4.3.6l1.9 1c1 .4.7 1 .7 1.7 0 0 .9.2 1 .7.1.2-.6.7-.3 1 .2.3 1.3.3 1.5.6.3.3-.4.8-.3 1.1.2.6 1.2 1 1.3 1.2l-.1.8-1.1-.2c-1 0-2.5-.7-4-.8-1.3-.2-1.7-.5-2.8-1-1-.9-2.7-2.4-3.4-4-1-1.4 0-3-1-3.9-.4-.4-.7-1-1.2-1.1-.4-.2-.7-.3-1-.1-.4.2-1 .2-1 .7-.2.4-.5 1-.5 1.5l.1 1.1v.1c0 .4-.4.3-.5.4-.5 0 0-.2-1.1-.4l-2-.4a4 4 0 00-.7 0c-.2 0-.7.6-.8.7l-.2.4.1.4.5 1.1.7 1 .1.2v.1a.5.5 0 01-.1.3.5.5 0 01-.1 0 .5.5 0 010 .1l-1.4.5-1.3.7c-.4.3-.7.5-.8.9a.6.6 0 00.1.4l.6.3 1.5.4 1.5.2h.1v.1a.5.5 0 01.2.1v.5l-1.3 1.2-1.2 1.4-.2.6c0 .1-.1.4 0 .4h.4c.3 0 1.1.4 1.5.2.8-.2 1.2-1 2.2-1.4 1-.4 2-1.1 2.7-1.4.4-.1 1 .2 1.2.1.3 0 .4.3.6.3.3.3 1 .6 1.7 1 .8.4 1.8.7 3 1.1.7.3 2.5.6 3.4.9a.5.5 0 01.1.1h.1l.3 1c0 .5-1.2.8-1.4 1.3a17.7 17.7 0 01-6 5.1l-2.4.9-.9.2s-.3 0-.5.2c0 .2-.4.2-.4.6-.5-.3 0 0 0 0 0 .4-.4.4-.5.5l-.2.3a20 20 0 01-5.3-2.7c-2.4-1.7-4.5-4.6-7.2-5.6a10 10 0 00-5.3-.4c-.8.1-1.3.3-1.7.5l-.7.4z" color="#000" fill="#f9a400"/>
  <path d="M122.9 194.7l-.2.5c-.3.7-.3 1.4-.2 2.3.2 1.1.4 1.7 1.4 2.7l.6.7-1 1.2c-.2.2-.4.5-.5.9-.3.8-.4 1.2 0 2.3 0 .3.2.7.4 1 .5.6 1 1.3 2.3 1.9.6.3 1.3.4 2.2.5h1.8l1.3.2v.4c0 1.2.8 2 1.9 2 .7.1 1.7-.3 2.3-1l.3-.1s.5.1.8.4a25.8 25.8 0 006.4 3.4c1.6.6 3 .8 4.3.8h.7l.3.4c.3.6.9 1 1.5 1.3 1 .3 2.5.2 4.2 0l3.8-1 2.4-.9h.2l.2.3.4.6c.4.4.8.6 1.3.6.7 0 2-.8 3.4-1.9l.7-.4 1.3-1.3 1.2-1 .7-.7.7-.8.1.7c.2.7.4 1.3.8 2 .3.6 1.4 1.6 2 2 .6.3 1.4.7 1.6.6.3 0 .4-.3.5-1.3.2-1.2.6-3 1-4a9.9 9.9 0 013.4-4.7l1-.7.4.5c.5.6.8.9 1.4 1 .5.3 1.2.3 1.4 0v-2.3c0-1.2.1-1.6 1.2-3.1l1.2-1.4 1-1 1-1.1 2-1.8h1.5a4 4 0 001-.2l.5-.2.2-.1.5-.3.2-.2.5-.4.2-.4.4-.4.2-.4.4-1.4v-.1-.8a6 6 0 000-.8l1.8-1.9 1.2-1.1 1-1 1.3-1.1c1.5-1.1 1.8-1.2 3.1-1.2h2.4c.2-.3.2-1 0-1.4-.2-.6-.4-1-1-1.4l-.6-.4.7-1a9.9 9.9 0 014.7-3.4c1-.4 2.8-.8 4-1 1 0 1.3-.2 1.3-.5l-.6-1.5a7.2 7.2 0 00-2-2.1 6.7 6.7 0 00-2-.8l-.6-.1.6-.7.7-.7 1.1-1.2 1.3-1.3.4-.7c1-1.3 1.9-2.7 1.9-3.4 0-.5-.2-.9-.6-1.3l-.6-.4-.4-.2.1-.2.8-2.3c.6-1.6.8-2.4 1-4 .3-1.6.4-3.2.1-4.1a2.9 2.9 0 00-1.3-1.5l-.3-.3v-.7a14.6 14.6 0 00-.9-4.3 25.7 25.7 0 00-3.4-6.4 3.5 3.5 0 01-.4-.8s0-.2.2-.3c.7-.7 1-1.6 1-2.4 0-1-1-1.8-2.1-1.8h-.4v-1.3l-.2-1.8c-.1-.8-.2-1.5-.5-2.2-.6-1.2-1.3-1.8-2-2.3l-1-.5a3.2 3.2 0 00-2.3 0c-.3 0-.6.3-.8.5l-1.2 1-.7-.5c-1-1-1.5-1.3-2.7-1.4-.9-.2-1.6-.1-2.2.1-.5.2-.6.3-1 .7-.6.6-.8 1.1-.8 2.1 0 .7 0 .8.3 1.2l.5.9 1 1.6h-.5c-1.4.1-2.2.5-2.8 1-.7.6-1 1.1-1 2-.1.8 0 1.5.3 2l.5.8.4.3h-.5l-.8.2c-.8.3-1.7 1.2-2.2 2-.7.8-.6 1.3-.7 2.5v.6a1.4 1.4 0 01-.4 0c-.6 0-1 .3-1.4.8-.5.6-.7 1-.8 1.9l.1 2.3.3.3c.2.7 1 1.2 2.1 1.4.7.2 2.1.3 3.3.3h1v.4c0 .7.3 1.3.8 1.8.4.4.5.4.9.6l.9.1.5.1.5.5 1 .9a25.6 25.6 0 013.9 4.1c.9 1.1 1 1 1.3 1.5-.3 1-.3 1.3-.3 2 0 1 .5 1.6.9 2.3l.2.4-1.2 1-1.3 1.3-.7 1-.6-.4a8.8 8.8 0 00-2.2-.8c-1-.2-3.1 0-3.4.2-.3.3-.2.5.3 1l1.1 1.8.8 1.3.2.6.7 1.7c.7 2 .8 4 .4 5.9-.1.8-.1.8-.3.8-.2 0-.3 0-.6-.4l-.3-.5-1.1-1.6c-1.8-2.1-3-2-4-1.6-.6.2-.8.5-.8.8l.3.6a17.8 17.8 0 012 4 8 8 0 01.5 3.8c0 .9-.3 2.6-.4 2.6v.6a6.8 6.8 0 01-.2.6H190.5l-.9.3h-.1l-.9.5h-.1l-.8.8-.3.4v.2c-.3.2-.4.4-.5.7-.1.3-.3.6-.3 1v1.8h-.7l-.6.2-2.5.4c-1.5.1-2.5 0-3.9-.4a17.7 17.7 0 01-4-2.2l-.6-.3c-.3 0-.6.3-.8.9-.5 1-.5 2.1 1.6 4l1.6 1.2.5.2c.4.3.5.3.5.5s0 .2-1 .4c-1.8.4-3.7.2-5.8-.5l-1.8-.6-.4-.2a16.2 16.2 0 01-3.1-2c-.6-.4-.9-.5-1.1-.2-.3.3-.4 2.4-.2 3.4.2.7.5 1.7.8 2.2l.3.6-.8.7-1.4 1.3-1 1.1-.4-.2c-.7-.3-1.3-.8-2.2-.8-.8 0-1.1 0-2 .3l-1.6-1.3a25.1 25.1 0 01-4-3.9l-1-1-.4-.6-.1-.5-.2-.8c-.2-.4-.2-.5-.6-.9a2.4 2.4 0 00-1.7-.8h-.5v-1a17 17 0 00-.2-3.3c-.3-1.1-.8-2-1.5-2.2a1.7 1.7 0 01-.3-.1 14.8 14.8 0 00-2.3-.1 2.6 2.6 0 00-2 .7c-.4.4-.6.8-.7 1.4v.4h-.6c-1.2 0-1.6 0-2.5.6a6.1 6.1 0 00-2 2.4v.7l-.1.4-.4-.2-.7-.6a3.6 3.6 0 00-2.1-.4c-.8.1-1.4.3-2 1-.5.7-.8 1.5-.9 3l-.1.5-1.6-1.1-.9-.5c-.4-.2-.5-.3-1.2-.3-1 0-1.5.2-2 .8l-.5.4z" color="#000" fill="#f9a400" stroke="#000" stroke-width="0" stroke-linejoin="round"/>
  <path d="M122.9 194.7l-.2.5c-.3.7-.3 1.4-.2 2.3.2 1.1.4 1.7 1.4 2.7l.6.7-1 1.2c-.2.2-.4.5-.5.9-.3.8-.4 1.2 0 2.3 0 .3.2.7.4 1 .5.6 1 1.3 2.3 1.9.6.3 1.3.4 2.2.5h1.8l1.3.2v.4c0 1.2.8 2 1.9 2 .7.1 1.7-.3 2.3-1l.3-.1s.5.1.8.4a25.8 25.8 0 006.4 3.4c1.6.6 3 .8 4.3.8h.7l.3.4c.3.6.9 1 1.5 1.3 1 .3 2.5.2 4.2 0l3.8-1 2.4-.9h.2l.2.3.4.6c.4.4.8.6 1.3.6.7 0 2-.8 3.4-1.9l.7-.4 1.3-1.3 1.2-1 .7-.7.7-.8.1.7c.2.7.4 1.3.8 2 .3.6 1.4 1.6 2 2 .6.3 1.4.7 1.6.6.3 0 .4-.3.5-1.3.2-1.2.6-3 1-4a9.9 9.9 0 013.4-4.7l1-.7.4.5c.5.6.8.9 1.4 1 .5.3 1.2.3 1.4 0v-2.3c0-1.2.1-1.6 1.2-3.1l1.2-1.4 1-1 1-1.1 2-1.8h1.5a4 4 0 001-.2l.5-.2.2-.1.5-.3.2-.2.5-.4.2-.4.4-.4.2-.4.4-1.4v-.1-.8a6 6 0 000-.8l1.8-1.9 1.2-1.1 1-1 1.3-1.1c1.5-1.1 1.8-1.2 3.1-1.2h2.4c.2-.3.2-1 0-1.4-.2-.6-.4-1-1-1.4l-.6-.4.7-1a9.9 9.9 0 014.7-3.4c1-.4 2.8-.8 4-1 1 0 1.3-.2 1.3-.5l-.6-1.5a7.2 7.2 0 00-2-2.1 6.7 6.7 0 00-2-.8l-.6-.1.6-.7.7-.7 1.1-1.2 1.3-1.3.4-.7c1-1.3 1.9-2.7 1.9-3.4 0-.5-.2-.9-.6-1.3l-.6-.4-.4-.2.1-.2.8-2.3c.6-1.6.8-2.4 1-4 .3-1.6.4-3.2.1-4.1a2.9 2.9 0 00-1.3-1.5l-.3-.3v-.7a14.6 14.6 0 00-.9-4.3 25.7 25.7 0 00-3.4-6.4 3.5 3.5 0 01-.4-.8s0-.2.2-.3c.7-.7 1-1.6 1-2.4 0-1-1-1.8-2.1-1.8h-.4v-1.3l-.2-1.8c-.1-.8-.2-1.5-.5-2.2-.6-1.2-1.3-1.8-2-2.3l-1-.5a3.2 3.2 0 00-2.3 0c-.3 0-.6.3-.8.5l-1.2 1-.7-.5c-1-1-1.5-1.3-2.7-1.4-.9-.2-1.6-.1-2.2.1-.5.2-.6.3-1 .7-.6.6-.8 1.1-.8 2.1 0 .7 0 .8.3 1.2l.5.9 1 1.6h-.5c-1.4.1-2.2.5-2.8 1-.7.6-1 1.1-1 2-.1.8 0 1.5.3 2l.5.8.4.3h-.5l-.8.2c-.8.3-1.7 1.2-2.2 2-.7.8-.6 1.3-.7 2.5v.6a1.4 1.4 0 01-.4 0c-.6 0-1 .3-1.4.8-.5.6-.7 1-.8 1.9l.1 2.3.3.3c.2.7 1 1.2 2.1 1.4.7.2 2.1.3 3.3.3h1v.4c0 .7.3 1.3.8 1.8.4.4.5.4.9.6l.9.1.5.1.5.5 1 .9a25.6 25.6 0 013.9 4.1c.9 1.1 1 1 1.3 1.5-.3 1-.3 1.3-.3 2 0 1 .5 1.6.9 2.3l.2.4-1.2 1-1.3 1.3-.7 1-.6-.4a8.8 8.8 0 00-2.2-.8c-1-.2-3.1 0-3.4.2-.3.3-.2.5.3 1l1.1 1.8.8 1.3.2.6.7 1.7c.7 2 .8 4 .4 5.9-.1.8-.1.8-.3.8-.2 0-.3 0-.6-.4l-.3-.5-1.1-1.6c-1.8-2.1-3-2-4-1.6-.6.2-.8.5-.8.8l.3.6a17.8 17.8 0 012 4 8 8 0 01.5 3.8c0 .9-.3 2.6-.4 2.6v.6a6.8 6.8 0 01-.2.6h-.5a4 4 0 00-1.2 0l-.9.3h-.1l-.9.5h-.1l-.8.8-.3.4v.2c-.3.2-.4.4-.5.7-.1.3-.3.6-.3 1v1.8h-.7l-.6.2-2.5.4c-1.5.1-2.5 0-3.9-.4a17.7 17.7 0 01-4-2.2l-.6-.3c-.3 0-.6.3-.8.9-.5 1-.5 2.1 1.6 4l1.6 1.2.5.2c.4.3.5.3.5.5s0 .2-1 .4c-1.8.4-3.7.2-5.8-.5l-1.8-.6-.4-.2a16.2 16.2 0 01-3.1-2c-.6-.4-.9-.5-1.1-.2-.3.3-.4 2.4-.2 3.4.2.7.5 1.7.8 2.2l.3.6-.8.7-1.4 1.3-1 1.1-.4-.2c-.7-.3-1.3-.8-2.2-.8-.8 0-1.1 0-2 .3l-1.6-1.3a25.1 25.1 0 01-4-3.9l-1-1-.4-.6-.1-.5-.2-.8c-.2-.4-.2-.5-.6-.9a2.4 2.4 0 00-1.7-.8h-.5v-1a17 17 0 00-.2-3.3c-.3-1.1-.8-2-1.5-2.2a1.7 1.7 0 01-.3-.1 14.8 14.8 0 00-2.3-.1 2.6 2.6 0 00-2 .7c-.4.4-.6.8-.7 1.4v.4h-.6c-1.2 0-1.6 0-2.5.6a6.1 6.1 0 00-2 2.4v.7l-.1.4-.4-.2-.7-.6a3.6 3.6 0 00-2.1-.4c-.8.1-1.4.3-2 1-.5.7-.8 1.5-.9 3l-.1.5-1.6-1.1-.9-.5c-.4-.2-.5-.3-1.2-.3-1 0-1.5.2-2 .8l-.5.4zm.7.5l.5-.5a2.3 2.3 0 011.6-.3c.5 0 1.4.6 2.4 1.4a94.3 94.3 0 016.7 6s.4.4.4.8-.6 1-.6 1l-1 1c-.2.4-1 .4-1.3.3l-2.5-1.4c-3.7-2.2-5.8-4-6.2-5.3a5.7 5.7 0 01-.2-2.3l.2-.7zm71.4-71.3c.3-.4.6-.6 1.2-.7a5.7 5.7 0 012.2.2c1.3.4 3.1 2.5 5.4 6.2a25 25 0 011.3 2.5c.1.2 0 1-.2 1.4-.3.2-.6.4-1.1 1 0 0-.5.5-1 .5-.4 0-.8-.4-.8-.4a95.5 95.5 0 01-6-6.7 7.1 7.1 0 01-1.4-2.4c-.1-.5 0-1.3.4-1.6zm-64 68.4c.1-.2.3-.2.5-.3.6-.2 1.2-.4 1.8-.2.8.3 2.2 1.9 4 4.3l1.2 1.8c.2.2.3.8.3 1 0 .5-.5 1-1 1.5-.5.6-1 1.1-1.8 1.1-.3 0-.7-.4-.7-.4l-4.3-4c-.8-.8-.9-.8-1-1.1a5 5 0 010-1.3c.2-1.3.4-2 1-2.4zm61.5-61.6c.4-.5 1.2-.8 2.5-.9a5 5 0 011.2 0c.3.1.3.1 1.1 1a125.8 125.8 0 004.4 5c0 .7-.5 1.2-1 1.7s-1.1 1.2-1.6 1.2l-1-.4a22 22 0 01-1.8-1.2c-2.4-1.7-4-3.2-4.3-4-.2-.5 0-1.2.2-1.8l.3-.6zm-68.4 72l.4-.5c.7-.6.8-.6 1.3-.3l4 2.6c.8.5 1.9 1.1 2 1.6.2.3.1.6 0 1l-.8.6c-.3.2-.6.3-1 .2-2.8 0-4.3-.5-5.3-1.5s-1.4-2.3-1-3.3l.4-.4zm78.4-78.4c.4-.4.5-.6.8-.7 1-.5 2.4-.2 3.4.9 1 1 1.4 2.5 1.5 5.2a2 2 0 01-1 1.8c-.3.2-.6.2-.8.1-.5-.2-1.2-1.2-1.7-2-1-1.3-1.7-2.7-2.6-4-.4-.4-.3-.6.4-1.3zm-12 12.3a3 3 0 011-.6c.4 0 1.2 0 1.8.2.4 0 .6.2 1.7 1l2.3 1.7c.4.3.7.5.7.9s-.3.7-.5 1l-1.6 1.7a2 2 0 01-.8.6h-.9l-3.7-1.2a2.8 2.8 0 01-1-.6c-.6-.7-.6-2.4 0-3.5a4 4 0 011-1.2zm-53.6 53.6a4 4 0 011.1-1c1.2-.6 3-.5 3.6.2l.5.9a36.1 36.1 0 011.2 4.6c-.1.3-.4.6-.7.9l-1.6 1.5c-.2.2-.6.4-1 .4s-.7-.2-.9-.6l-1.7-2.4c-.8-1-.9-1.2-1-1.6a4 4 0 01-.2-1.7c0-.4.4-.8.7-1.2zm5.1-3.6c.6-.4 1.8-.4 3-.2.8.2 1 .4 1.3 1.2.3.9.4 2 .4 3.5l-.1 1.2-.6.7-1.2.8c-.2.2-.3.3-.5.2a47.2 47.2 0 00-1.4-4.1c-.4-.8-.6-1.1-1.1-1.5l-.5-.2v-.4c.1-.5.4-1 .7-1.2zm44.8-44.8c.3-.4.7-.6 1.2-.6h.4l.3.3c.3.6.7.8 1.5 1.1a47.2 47.2 0 004 1.5l-.1.4c-.5.6-.7 1-1 1.2-.2.4-.4.6-.6.7h-1.1a11 11 0 01-3.5-.3c-1-.3-1-.5-1.3-1.4-.2-1.1-.1-2.3.2-3zm-53.1 64c1-1 8.9-9 10.6-10.4 2.1-2 2.8-2.3 3.7-2.2.7 0 1.4.6 1.5 1.3 0 .5-.2.9-1.5 2.4l-6.6 6.7a118.5 118.5 0 01-7 6.4c-1 .7-1.5.8-2 .3-.6-.3-.7-1.2-.4-2 .2-.5.7-1.3 1.7-2.4zm67.3-67.2l5-5.1a9.4 9.4 0 012.4-1.7c.9-.3 1.8-.2 2.2.3.4.5.2 1.2-.4 2a120.4 120.4 0 01-13 13.6c-1.6 1.4-2 1.7-2.5 1.6a1.6 1.6 0 01-1.4-1.5c0-1 .3-1.6 2.3-3.7.7-.9 3.1-3.2 5.4-5.5zm-63.3 69.6c.6-.6 1-.7 1.4-.8.7 0 1 .2 1.3.4a27 27 0 007 3.4h.6l-.2.4a7.7 7.7 0 00-.4 2v.4h-.5c-2.8-.2-4.8-.9-8-2.8-1-.6-1.7-1-1.8-1.5-.2-.7 0-1 .6-1.5zm70.7-70.7c.6-.7.8-.8 1.4-.6.6.1 1 .9 1.6 1.9 1.9 3 2.6 5 2.8 8v.5h-.4a7.3 7.3 0 00-2 .3l-.3.2-.2-.6c-.4-1.9-1.8-4.6-3.3-7-.3-.3-.4-.6-.3-1.3 0-.5.2-.8.7-1.4zM149 197c.2-.2.7-.8 1-.8.3 0 .7.2 1 .6a27.2 27.2 0 004.8 4.6l1 .8-.6.5-1.2.8-.6.5-.5-.4c-.8-.6-2.2-1.7-3.3-2.8-.8-.7-2-2-2.2-2.6 0-.4.2-.7.6-1.2zm47.7-47.7l.7-.7c.5-.4.9-.7 1.3-.6.6 0 1.8 1.4 2.6 2.2l2.7 3.4.4.4-.5.6a15 15 0 00-.8 1.2l-.4.6-.9-1a27.3 27.3 0 00-4.6-4.8 1.6 1.6 0 01-.6-1l.1-.3zm-56 56.2l.8-.8c.6-.6 1.5-1.3 2-1.3.6 0 2.7 1.6 4.2 2.6a35.7 35.7 0 002.7 1.8 26.1 26.1 0 00-1.8 2.4c-.1.2-.2.2-.8 0a9.5 9.5 0 01-2.6-.8c-1.7-.8-4.7-2.8-4.7-3.2 0-.2 0-.5.3-.7zm64.4-64.4c.5-.5 1.1-1.1 1.5-1.1.4 0 2.3 3.1 3.1 4.8a9.5 9.5 0 011 2.7v.7a20.6 20.6 0 00-2.5 1.8h-.1a35.3 35.3 0 00-1.6-2.7c-1-1.5-2.7-3.7-2.7-4.3 0-.4.8-1.3 1.3-1.9zm-60 60l1.2-1.1s.5-.6 1-.6c.6 0 1.3.8 1.3.8a54.2 54.2 0 004.8 4.1l.3.2-.4.4-1.4 1.3-.9.9-.4-.2a33 33 0 01-3.4-2.3c-1-.7-2.4-1.7-2.6-2.5 0-.2.2-.6.6-1zm55-54.9c.1-.2.3-.2.3-.2.7-.8 1.7-1.8 2.1-1.8.8.2 1.9 1.7 2.6 2.6a31 31 0 012.1 3.4l.2.4-.8.9-1.2 1.3-.5.4-.2-.2a54.2 54.2 0 00-4.1-4.8s-.8-.7-.8-1.3l.3-.7zm7 6a21 21 0 014.5-3.6c1.5-.8 2.8-.9 3.8 0 .4.4.5.5.6 1 .4 1.1.2 3.3-.7 6.3a37.8 37.8 0 01-1.3 3.6h-.7a18.2 18.2 0 00-9.1 2c-.3 0-.3 0-.7-.7-.8-1.4-.8-2.5 0-4 .7-1.4 2.1-3.1 3.7-4.6zm-54.5 54.6a23.1 23.1 0 014.5-3.6c1.6-1 2.8-1 4.2-.1.7.4.7.4.5.6a19 19 0 00-1.4 4.1 18 18 0 00-.4 5v.8l-3.6 1.2c-3 1-5.3 1.2-6.4.8-.5-.2-.6-.2-1-.6-.8-1-.8-2.2 0-3.8a22 22 0 013.6-4.4zm12.7-12.4a19.5 19.5 0 006.9 3.2c2.2.5 4.5.3 6.5-.4.5-.1.5-.1.8 0l.4.3v.7c-.4 1.9-.3 3.6.1 5v.5l-2.5 2.2a13 13 0 00-3 6.5l-.3 1.6c0 .2 0 .2-.4 0a5.3 5.3 0 01-1.9-1.6c-1.1-1.8-1.3-4-.6-7.8v-1.1a5.9 5.9 0 00-.9-.8 15.1 15.1 0 01-3-2.6 6.8 6.8 0 01-2-3.3c-.3-.8-.3-2.4-.1-2.4zm29.5-29.5c0-.2 1.6-.2 2.4 0 1.3.3 2.1.8 3.4 2 1 1 1.4 1.5 2.5 3.2l.8.9 1.1-.1c3.9-.7 6-.5 7.8.7a5.3 5.3 0 011.6 1.7c.3.5.3.5 0 .5l-1.6.3c-2.9.6-4.8 1.5-6.4 3-.6.4-1.8 1.9-2.2 2.4-.1.2-.2.2-.6 0a10.6 10.6 0 00-5-.1l-.7.1-.2-.4c-.2-.4-.2-.4 0-.9.6-2 .8-4.3.3-6.5a19.4 19.4 0 00-3-6.5.7.7 0 01-.2-.4zm-20.4 25.7l.2.2c2.7 1.7 5 2.6 7.1 2.6l4.1-.4 1.2-.3.2.4.3.2.6.8 1 .7-2 2c-2 2-2.7 2.9-3.4 4-.7 1-.9 1.7-.8 3.4v1c-.1.2-.6 0-1-.3-.6-.6-1.2-2-1.4-3.2-.1-1 0-2.3.2-3.4.2-.8.2-1.1 0-1.2 0-.2 0-.1-1.2-.8-2.1-1.2-3-1.8-4-3-.9-.7-1-.8-1.1-1.2a1.7 1.7 0 010-1.2v-.3zm16.6-16.6h.4c.3-.2.6-.2 1.1 0 .4.1.4.2 1.3 1 1 1.2 1.7 2 2.9 4.1l.8 1.3 1.2-.1c1.1-.3 2.5-.3 3.4-.2 1.3.2 2.7.8 3.2 1.4.3.3.5.9.4 1h-1.1c-1.7-.1-2.4 0-3.5.8-1 .7-1.8 1.4-3.9 3.5l-2 2v-.2l-.6-.8-.1-.1-.6-.5v-.1l-.4-.2a1.6 1.6 0 01-.4-.3l.2-1.2c.3-1.5.5-3 .5-4 0-2.1-.9-4.5-2.6-7.2l-.1-.2zm-26.8 28a17.6 17.6 0 011.4-1.4l.5-.4.7.7a20.7 20.7 0 003.7 3v.6c-.3 1.4-.4 2.5-.4 3.4v.9l-1.1 1a29.5 29.5 0 01-6 5c-1 .5-1.5.4-2-.7-.8-2.3.2-7.8 2-10.7l1.2-1.4zm36.4-36.4l.3-.3a20 20 0 013-2.7c2.8-1.8 8.3-2.7 10.6-2 1 .5 1.2 1 .7 2-.7 1.4-2.3 3.2-5 6l-1 1h-1c-.8.1-2 .2-3.3.5h-.6l-.6-.7a20.8 20.8 0 00-2.4-3zm-12 22.6l.8-.7h.2c.2-.2.5-.3.8-.3a3.8 3.8 0 011.8 0l.2.1a3.5 3.5 0 012 1.7l.3.9v.8l.1.1v.4a3.4 3.4 0 01-1 2.1 3.7 3.7 0 01-.6.5l-.8.4-.2.1-.6.1h-.1a3.8 3.8 0 01-2.2-.5 3.7 3.7 0 01-1.2-1.1v-.1c-.1-.2-.3-.3-.3-.5v-.2c-.2-.2-.3-.5-.3-.8v-.5c0-.4 0-.8.2-1.2l.1-.3a3.5 3.5 0 01.8-1z" color="#000"/>
  <path style="text-indent:0;text-align:start;text-transform:none" d="M143.8 113.4c-.5 0-.9.2-1 .3-.4.2-.7.3-.8.6-.3.5-.4 1-.4 1.5 0 .9 0 1.4.2 2.2-2.4.2-4 1.8-5.4 3.2v.2c-1.5 1.3-2.1.7-3.7 1.3l-2.2.8-1.4.6c-.7.5-.9 1.5-.7 2.5.2 1 0 .8 1 1.9 1 1.2 2.7 1.7 4.2 1.9.9 0 2 0 2.5.6.1.1-1.1.2-1.6.3-1 .1-2.3 0-3.1.8-.3.2-.4.7-.3 1l.5.8 1.7.8.3.2.3.2.1.2-.2.5c-.1.2 0 .5.1.7l.6.3h.5v.2a.8.8 0 01-.1.3c-.3.2-.5.5-.4.8 0 .2 0 .4.2.5l.5.1h1.1l-.1.2c-.2 0-.4.3-.5.6-.2.2 0 .6.2.7.6.5 1.7.3 1.4 1l-5.4-1.2c-.4 0-.7-.1-1.1-.3a9.5 9.5 0 01-3.8-3.5c-.6-1.5-.3-3.2-1-4.4a4.9 4.9 0 00-1.7-1.6c-.5-.2-1-.3-1.4-.1a3.5 3.5 0 00-1.8 1.9c-.2.7 0 1.2 0 1.6l-2-.5-1.2-.2-.8.1-.8.6c-.2.2-.3.7-.3 1v.5l.7 1.2.6 1-1.3.6a8.1 8.1 0 00-1.4.7c-.4.3-.8.6-1 1.1l.3 1c.4.5 1 .8 1.7 1 .7.2 1 .1 1.5.2a5.3 5.3 0 00-2.2 2.8c-.1.2-.2.9 0 1 .7.6 2 .7 2.7.4.6-.2 1.5-.9 2.4-1.5.8-.7 1-1 1.8-1.1l1.3-.3c.4.1 1.6 1 2.4 1.5l3 1.2 3.8 1.3a3 3 0 00-1.3 1c-.7.7-1.6 2-2.7 2.9a18 18 0 01-3.4 2.3l-2.1.9c-.3.1-1.8.6-2.1.9-.5.4-.4.8-.5 1.1-.7-.2-2.2-1.1-5-3-2.2-1.5-4.3-4.5-7.2-5.6a10.4 10.4 0 00-5.6-.4l-1.8.6-.7.4a1.4 1.4 0 00-.5.6c-.1.4 0 .8.1 1.2l.8 1.6a14 14 0 003.7 3.5 35 35 0 0014.8 5.5c-.3.3.2.8.6 1 .5.5.6.5 2 1.3l2.3 1c.8.3 1.5.4 2.2.2.4-.1.8-.4 1-.6.4.2 1.7 1 3.2 1.6l2.6.9h1c.4-.1.8-.3 1-.6 0-.4 0-.8-.2-1.1a2.9 2.9 0 00-.6-1 10.7 10.7 0 00-2-1.6l-2.8-1.4.8-1a8.8 8.8 0 012.8-2.4c1.3-.6 3-1.4 3.9-2.2.9-.8 1.8-2.4 2.6-3.8.8-1.3 2.6-1.2 2.8-1.2h2l2.2.2c-2 1.7-3.4 3.5-4 5.2a7.7 7.7 0 00.4 6c1.7 3.6 5.5 6.8 8.9 10.1a3 3 0 00-.4.7c-.4.7-.7 1.7-.9 2.8a8.4 8.4 0 00.2 3.4c.3 1.2 1 2.2 2.1 2.8.2.2.6.1.8 0l.3-.5c.2-.3.3-.8.4-1.3.4-1.1.8-2.5 1.6-3.6.8-1.3 2-2.4 3-3.3.4-.5 1-1 1.2-1.4.4-.5.5-.9.5-1.4a4 4 0 00-2.5-3c-.9-.4-1.5-.5-1.7-.5-.5-2.6-2.2-4.2-4-5.7a8.7 8.7 0 003.3-4.8l1.5.7c1.2.4 2.6.7 4.1.8 1.6.1 3.1 0 4.5-.4a4.5 4.5 0 002.7-2.4l.2.8c.4 1 .8 2.6 1.7 3.5.8.8 2 1 3 1.2 1.1.2 2.2.4 2.8.9 1.1.8 1.2 1.3 1.4 1.6-1 0-2.8 1.4-3.7 2.4-2 2-2 3.1-1.8 5.4 0 .7 1.4 1.1 2.4 1.2 1 0 1.8-.6 2.4-1.2.7-.7 1.3-1.6 2-2.2.6-.4 1.5-.6 2.4-.9.8-.3 1.7-.8 2.2-1.7l1-2a3 3 0 00-.3-2.3c-1.7-3.4-5.1-5.3-7.4-10.3a7.7 7.7 0 010-6c.2-.9.5-1.6.5-2.5a4 4 0 00-.7-2.6 4.7 4.7 0 00-2.7-1.9 16.2 16.2 0 00-3.5-.4c-2.3-.1-4.7-.1-6.3-1.2a6.1 6.1 0 01-2.4-4.5c-.2-1.7.3-3 1-3.5l.2-.1.2.2c.3.2.7.6 1.1 1.2.8 1 1.8 2.3 3 3.3a7.8 7.8 0 004 1.5c1.3.1 2.5-.1 3.3-.6 1.6-1 2-2.6 2.2-4 0-.8-.1-1.6-.3-2.1 0-.3-.2-.5-.3-.7-.2-.2-.2-.4-.5-.5a1 1 0 00-1 .2l-.6.7c-.3.5-.7.8-1.5 1-.3 0-.8-.2-1.4-.6l-2-1.8c-.6-.7-1.5-1.4-2.2-1.9-.8-.5-1.6-1-2.4-.8-2.2.1-3.8.8-4.9 1.8a5.5 5.5 0 00-1.5 3.7v1c0-.4-.3-.8-.4-1a13.6 13.6 0 00-3.2-3.8c.6-.4 1.1-.8 2.3-.4l1.1.4-.5-1a4 4 0 00-2.4-2.3l-1.7-.7c1.2-.4 2.6-.1 3.5-.1l-.7-.7c-1-1.1-2.7-1.5-4-1.9l-1.8-.3-1-.5-1.3-1.3a16.9 16.9 0 00-2-1.7 3.6 3.6 0 00-1.9-.8zm-.5.9h.5c.3 0 .7.3 1 .5l1.8 1.6 1.6 1.4.6.6.9.3c.6.2 1.3.1 2 .2l2.2.6a4 4 0 00-2.7.6l-.5.5.6.3c1.2.8 2.2 1.1 3 1.5.4.1 1 .4 1.3.7-1 0-2 .5-2.6 1.1l-.3.5.3.3c1.1.8 1.9 1.9 2.6 3-.9-.2-1.8-.3-2.4.1l-.3.3.1.4c1 2 2.2 3.5 2.7 5.2-.9-.6-1.7-1.2-2.5-1.5l-1.3-.4.7 1.2c.5.9 1.1 1.4 1.5 2l.5.9-.2-.1a10.1 10.1 0 00-2-.3h-.5v.4c-.2 1-.4 2.3-.7 3.1h1.3l2 .3a202.4 202.4 0 0115.6 5.8l1.2.5.4.1.3-.1c.2-.3.2-.5.2-.7a3.6 3.6 0 00-.5-1.2 11.3 11.3 0 00-3-3.3c-1.5-1-3.4-1.8-5-2.6a9.4 9.4 0 01-3.2-2.3c-.7-1-2-5-1.9-7.3a4.4 4.4 0 011.4-3c.9-.8 2.2-1.5 4.3-1.6.5 0 1 .2 1.8.7.6.4 1.4 1 2 1.8l2.1 1.8c.7.5 1.4 1 2.2.8a3.4 3.4 0 002-1.4l.5-.5h.1v.1l.3.4c0 .5.2 1 .1 1.7 0 1.2-.6 2.7-1.8 3.5-.5.3-1.5.5-2.6.4a7.1 7.1 0 01-3.5-1.4c-1.1-.8-2-2.1-2.8-3.1-.4-.6-.8-1-1.2-1.3l-.7-.4h-.7c-1.3.8-1.8 2.7-1.7 4.6a7 7 0 003 5.2c1.8 1.3 4.4 1.2 6.7 1.3 1.2 0 2.4.2 3.3.4 1 .3 1.6.7 2.1 1.4.5.8.7 1.4.6 2.1 0 .7-.3 1.5-.6 2.3-.5 1.7-1 3.9.2 6.6 2.3 5.3 5.8 7.3 7.4 10.4.3.5.2 1 0 1.7 0 .6-.5 1.2-.8 1.8-.2.5-.9.9-1.7 1.2-.8.3-1.7.6-2.4 1.2-1 .6-1.7 1.5-2.3 2-.6.7-1 1-1.7 1-.8 0-1.5-.2-1.5-.7-.1-1.8.3-2.7 1.6-4.1a7.5 7.5 0 013-2.2c.4-.2 1-.2 1.6-.1-.1-.5-.3-.7-.3-.7s-.5-1.3-2.1-2.6a7.6 7.6 0 00-3.2-1c-1-.3-2-.5-2.6-1-.5-.5-1-2-1.3-3l-.5-1.4a.8.8 0 00-.3-.3c-.1 0-.4-.2-.6 0-.3 0-.4.4-.5.6-.3 1-1.2 1.6-2.4 2-1.2.3-2.6.5-4 .4a16 16 0 01-3.9-.8 5.5 5.5 0 01-1.2-.6l-.2-.1a8.6 8.6 0 01-3.1-3.3c-.2 1.3 1 2.7 2 3.6a7.5 7.5 0 01-3.4 5l-.5.4.4.5c2 1.6 3.8 3 4.1 5.6l.1.3.4.1s.8.1 1.7.5c.8.4 1.6 1 1.8 2.2 0 .2 0 .5-.3.9l-1.1 1.3c-1 1-2.2 2-3 3.4-1 1.2-1.4 2.7-1.7 3.8l-.4 1.1a3.7 3.7 0 01-1.5-2 7.7 7.7 0 01-.1-3c.1-1 .4-2 .7-2.6l.7-1.3c-3.5-3.5-7.5-7-9.1-10.4a6.7 6.7 0 01-.4-5.3c.5-1.6 2-3.5 4.3-5.4 1.2-.3 2.2 0 3.8.7-1.7-1.5-3-1.5-4.7-1.6a24.6 24.6 0 01-2.4-.2c-2-.2-3.4-.3-6.2-1-2.7-.7-6.8-2.2-9-3l-3-1a10.3 10.3 0 01-2-1.4c-.3-.2-.6-.2-1-.2a5.7 5.7 0 00-1 .2c-.9.2-1.3.6-2.2 1.2-.8.7-1.7 1.1-2.4 1.5-.2.1-1.5.1-1.6-.1-.1-.3.3-1.1.8-1.5.9-1 1.2-1.2 1.9-1.7l1-.8h-1.2s-1.3 0-2.4-.3c-.6-.2-1-.4-1.1-.8 0-.4.2-.6.5-.8l1.3-.7 1.6-.6h.8l-.5-.5-1-1.5-.5-1a1 1 0 01.2-1c.2-.2.6-.2.8-.1l1 .1 2.6.7.8.3-.2-.8c-.1-.6-.2-.8 0-1.8 0-.6.6-1.2 1.1-1.3.3-.1.9.1 1.2.4.3.2.7.7 1 1.3.5 1.1 0 2.7.8 4a9 9 0 001.8 2.2 9.8 9.8 0 002.6 1.9l1.5.2c4 .7 3.6 1 6.4 1.4 1 .1 2 .2 3 0 1-.1 1.8-.4 1.8-.4-2.2 0-3.5 0-5.1-.6a.9.9 0 000-.6c-.2-.5-.5-.8-.8-1-.3-.1-.7 0-.6-.2 0-.3.5-.4.6-.9a1 1 0 00-.4-.8l-.7-.2c-.2 0-.6.3-.7 0-.2-.1.2-.3.3-.5.2-.3 0-.6-.3-1a1 1 0 00-.5-.3h-.2v-.2c.2-.1.1-.3 0-.6a1.6 1.6 0 00-.9-1l-.2-.2-1.5-.6c-.1-.1-.3-.3-.2-.4.4-.4 1.5-.6 2.5-.7.6 0 1.1 0 1.6-.2l.6-.4.2-.7c0-.3-.2-.5-.4-.7a2.4 2.4 0 00-.8-.3l-2-.5c-1.4-.2-3-.6-3.8-1.4-.8-1-.5-.9-.7-1.6-.1-.8.1-1.3.4-1.5l1.2-.6 2.1-.8c1.7-.6 2.5 0 4-1.4l2-1.9a7 7 0 011.8-1 4.1 4.1 0 011.6 0h.6l-.1-.6c0-1-.3-2-.4-2.8 0-.4 0-.7.2-1 .2-.3.4-.5.6-.5zm12.2 14.7c.4 0 .9.2 1.4.4l1 .5c.1 2.4.9 4.8 1.9 6.3.7 1.2 2 2 3.6 2.8 1.6.7 3.3 1.5 4.6 2.4 1.4 1 2.3 2.2 2.8 3l.2.4-.4-.3-2.5-1-6.7-2.6a69.5 69.5 0 00-6.6-2.1c-.9-.2-1.7-.4-2.3-.4l.3-1.5 1.2.1c.5.1.8.3 1.2.7l1.1 1c0-.4 0-1-.2-1.4l-1.1-2.5c.3.3.8.3 1 .7l1 1.4v-1.8c0-2.2-1.6-4.3-2.6-6a4.2 4.2 0 011-.1zm-22.2 18.6l4.5 1.2 2.2.4c-1 .2-1.4 1-2 2.1a10.3 10.3 0 01-2.1 2.8c-.7.6-2.3 1.5-3.6 2.2a9.2 9.2 0 00-3 2.3c-.7.8-1.3 1.8-1.8 2.7-.5 1-1 1.7-2 2l-1.5-.1-2.2-1a33 33 0 01-2-1.3 3.7 3.7 0 001.8-3.3c0-.8-.5-1-.6-1.2v-.4l.6-.3c.6-.4 2.5-1 3.7-1.5 1.2-.6 2.5-1.4 3.6-2.4 1.1-.9 2-2.4 2.8-3.2.6-.6 1-.7 1.6-1zm-29.6.5a9 9 0 013.8.5c2.5 1 4.7 3.9 7.2 5.6 3 2 5.6 3.1 6.1 3.3a3.1 3.1 0 01-1 2.3 33.9 33.9 0 01-15.2-5.3 13.3 13.3 0 01-3.4-3.4 5.5 5.5 0 01-.7-1.3 3 3 0 01-.2-.7h.2l.4-.3 1.7-.6 1-.1zm25 13.2l2.7 1.3a9.5 9.5 0 011.9 1.5l.5.6v.4h-.2a2.1 2.1 0 01-.8 0l-2.3-.7-2.9-1.5.7-1.1.4-.5z" color="#000"/>
  <path d="M139.6 122.1a1 1 0 11-1.4 1.3 1 1 0 111.4-1.3z" color="#000"/>
  <path d="M125 113.3l-5.2-1c-.1-.1-1.4 1.4-1.4 1.5l1.3 1a42 42 0 011.5 1.2c.1.1.1.5-.1 2.6l-.3 2.4-2.5-1.7-2.7-2-.3-.2-1.3 1.3-3.5 3.5a96 96 0 00-2.1 2l.6 1.5.7 1.5-2.4 4-.8-2.2a18.6 18.6 0 00-1-2.2l-.6.5-.6.5v2.3l-.4.1h-.4l-.2-.7-.2-.8-.3.3-.4.2v2.2l.1 3v1l-2 2-2 2 .2-3.8.2-3.9-.4.2c-1 .6-2 .8-2.5.6a6 6 0 00-.9-.2 8.4 8.4 0 01-5-2.5l-.7-.7-.2.1c-.3.2-1 .2-1.5 0-1-.5-1.3-1-1.3-1.7 0-.5 0-.6.5-1.5l.3-.8c0-.7.1-.7-.8-1l-.7-.4-.1 1.2-.3 4.2-.2 3 .8.8a36.8 36.8 0 013.3 3.4c.9 1.2 1 2 .2 2.4-.3.1-1.3.2-2.2 0h-.8v.6c.5 1.7.2 3.1-.8 3.7-.8.4-2-.4-4.2-2.8a24 24 0 00-1.2-1.4l-.1.2a5.2 5.2 0 01-.6 1.4c-.7 1-2 .7-2.7-.6-.8-1.4-1.2-3.5-1.3-7.1 0-.8-.1-1-.2-1-1-.5-1.5-1.9-1.5-4a20.5 20.5 0 01.2-2.6h-.3c-.3-.2-.4-.2-.7-.6-.3-.4-.4-.5-.6-1.2-.4-1.2-.4-1.7.2-2.8.3-.7.9-1.5 1.6-2.4a68 68 0 014.7-4.7l1.1-1v-1.1h-.3c-2.3.7-4 .6-4.5 0-.4-.4-.5-1.1-.3-1.8.2-.4.3-.5 1-1.2a8.6 8.6 0 012.5-1.8 38.4 38.4 0 015.1-2.3l-.5-.4c-1.7-1.2-2.2-2.6-1.3-3.3a4.7 4.7 0 012.1-.8c1.3-.1 3.8 0 5.5.2h.4v-.4c.3-.5.7-1 1.4-1.2.8-.3 2.2-.1 3.6.5l.6.1a27.4 27.4 0 010-5c.5-3.3 2-4.3 4.5-3l.4.2v-.2l.7-2.9c.3-.8.6-1.3 1.2-1.8 1.2-1.1 2.4-1 3.7.5.5.6.5.6.6.5a61.3 61.3 0 013.4-4.2 7.4 7.4 0 012.7-2c.7-.3 1.8-.2 3 .2l.6.2.1-.3 1.2-1.2c1.1-1.1 1.5-1.4 2-1.4 1 0 1.7 1 1.8 2.8 0 .8 0 .8.6.3a17 17 0 012.4-1.8c1.8-1.1 3.2-1.2 4-.3.5.4.6.6.6 1 0 .7-.3 1.5-1.2 2.5l-.5.5.6.6 1 1.1.6.6.7-.3 1.7-.6 1-.4V84c.3-2 .5-3.2.9-4.3a5 5 0 011.4-2.3c.6-.6 1-.8 1.8-.8 1.3 0 2.2.8 2.5 2.3.2.8.2 2.7 0 3.6v.3h.4c.7 0 1.1.2 1.5.6.2.3.3.4.3.7.2 1.5-1.8 3.1-6 5l-1.8.7-.6.3.6.9c1.5 2.3 2 3.8 1.2 4.5-.4.4-1.2.5-1.9.2-1-.4-3.1-2-4.6-3.4-.6-.6-.9-.7-.6-.3l1.2 2.4c.5 1.6-.2 2.5-1.6 2-1.4-.6-3.7-2.4-6.7-5.4l-1.5-1.5-.3.2a4 4 0 00-.4.3 13 13 0 00-1 2.2c-.3 1-1.2 2.8-1.8 3.5l-.2.3.2-.1 2-1.4 2.2-1.4c.7-.3 1.4-.2 2 .5.4.3.5.4.6.8.2.5.1.9-.1 1.3l-.2.4.6.7a9.8 9.8 0 012.4 4.8 9 9 0 01-.3 3l-1.2 2.4-.3.5 3.4.8 3.4.8v2.6a71.2 71.2 0 01-.1 2.6l-5.1-1zm4.2-3.5l-3.2-.8-3.2-.7-.2.2-1.1 1.4-1 1.4c-.1.1-.3 0 4.6 1l4.1 1v-1.8-1.7zm-9 8.2l.2-1.4-1.3-1.1-1.4-1-.8 1-1 1 4.1 2.9zm-18.6 14.3l-.1-2.6-.7.4-.7.6c-.2 0-.2.3-.4 3l-.2 3s.5-.3 1.1-1l1-1zm6.6-4.7l.5-.8-.5-1-.6-1.2-.6.6-.7.6.6 1.4.6 1.5.7-1.1zm8-12.8a51 51 0 007.7-10l.4-1.4c-.1-.1-.7 0-1 .1a95 95 0 00-23.5 21.7c-2.3 2.9-3.6 5.2-3.6 6 0 .2.2.2.9 0 3.3-1.2 12-8.6 19.1-16.4zm18.1-20.5c0-1.3-2.5-4.7-6-8.4a91.3 91.3 0 01-1.4-1.5l-.4-.4-.7.6-1.3 1.1c-.6.5-.6.5-.5.6a83 83 0 003.8 4.1 25 25 0 005 4.2c1.1.6 1.6.5 1.5-.3zm-48.7 47l.1-1c0-1.2-1-3.5-2-4.8-.5-.9-2-2.3-2.7-2.6l-.2 1a43 43 0 01-.4 3.3c0 .2 0 .3.7 1a34.4 34.4 0 003.2 3.3c.6.5.8.5 1 .3l.3-.5zm38.7-39.5a7.5 7.5 0 00-1-2.7 17 17 0 00-1.7-2.3c-.1-.1 0-.2-2.7 1.8a136.7 136.7 0 00-15.6 13.5 98.8 98.8 0 00-11 12.9 46.4 46.4 0 00-2.2 3.2 16 16 0 002.3 2l2.6 1h.3v-.5c.4-1.3 1.6-3.3 4-6.4a123.8 123.8 0 0117.8-17.8c3.6-2.8 5.5-4 6.9-4l.3-.1v-.6zM89 137.3c-.5-1-3.7-4.1-7.3-7-.6-.6-.6-.6-.6.5v.9l.5.3a11.3 11.3 0 014 4.6l.4.8.8.2c1 .1 2.1.2 2.2 0v-.3zm51.6-52.6a1 1 0 000-.5l-.2-.4c-.6-.3-2.1-.1-4.1.4-1.5.3-6.2 2-6.2 2.1l1 1.3 1.3 1.5.2.2 1.2-.4a27.1 27.1 0 005.6-3 6.8 6.8 0 001.2-1.2zm-12.3 10.4c-.2-1.3-2-4.1-4.2-7.1l-.8-1-.1-.2-1 .6a47.8 47.8 0 01-2 1.5c-.1.1 0 .3 1.7 1.9 3.2 3 5.3 4.7 6.3 4.8.2 0 .2-.1.1-.5zm10.3-13.3c.3-2.5-.2-4.1-1.3-4.3h-.8c-.4.1-.5.2-.9.6-.9.9-1.4 2.4-1.7 5 0 .4-.1.8 0 .8l.6-.2 3.6-.8h.3v-.3zm-59.4 57c.4-1 .8-3.7.9-6.2l.1-5.7-.6.8a12 12 0 01-3 3.7c-.1 0-.2.1-.2.7 0 .8.2 3.2.4 4.2.3 2 .9 3.3 1.6 3.5l.4-.2.4-.7zm10.7-12a96.1 96.1 0 0112-14.6c1.7-1.7 2-2 1.6-1.9h-2v-.6-.7l-3.5 3.4c-4 4.4-7.4 9-10.2 13.7-.6 1-.6 1.1-.2 1.5.4.4 1 .6 1.3.5l.2-.1zm31.9-31.9l-.1-.5c-.2-.3-.9-.6-1.2-.5a125.7 125.7 0 00-14.3 10.6 81.5 81.5 0 00-3.5 3.2h1.4v2.2l.4-.3A153.7 153.7 0 01120.7 96c.8-.6 1-.8 1-1.2zm-37.2 32l.3-3.9-.3-.3c-.2 0-.6-.5-1-.8l-.7-.6-.4.9-.9 1.8-.5 1v3.6l1.4 1L84 131l.2.2v-.4zm19-18.8h-.8l-.9.1V110h1.8v-.9-.9zM89 122.5c1.2-1.9 2.8-4 4.6-6.3l1-1.3-.5.1c-.8.2-1.7.2-2.3 0l-.4-.2-.6.5-1 .6-.3.3-.5 3.2-.5 3.6v.3l.5-.8zm25-25.7a30.6 30.6 0 002.1-3.4c.6-1.2.9-2.2.7-2.6-.1-.3-.5-.5-1-.5-.6 0-1.7.4-2.8 1.2-1 .7-1 .8-1 1.2 0 .5 0 1.1-.3 2.5a33.8 33.8 0 00-.2 2c0 .7 0 1.2.2 1.3.3.2 1.2-.4 1.5-.8l.7-.9zm-26 23.1l.5-3.2-.4.1c-.6.2-1.2.2-1.6 0a2.5 2.5 0 01-.7-.4c-1-.8-1.2-2.4-.8-4 .4-1 1.2-2.5 2.3-3.8l.3-.4-1.1.5a84 84 0 01-4.7 1.8l-.8.3v.8c0 2.6.7 5.8 1.5 7.3a9.7 9.7 0 004.5 4.2l.5.1.5-3.3zm21.8-19.9c.5-.8.7-1.5.8-2.8l.3-2.3c.3-2.5.2-3.3-.3-3.8-.3-.4-.5-.4-.8-.2-.9.5-2.2 2.5-3.5 5.6-.7 1.6-.8 1.9-1.4 5.1a12.3 12.3 0 00-.4 2.2c.1.2.4.6 1.1 0a147 147 0 014.2-3.8zM98.2 111s.6-.6.3-1c-.2-.3-2-.3-3.3-.4a3.5 3.5 0 00-1.5.3 4.5 4.5 0 00-1.5 1.4c-.6 1.2-.9 2.1-.7 2.5.4.8 1.9.7 3.8-.1.5-.2.5-.2 1.1-1zm29-29.1c.7-1 .9-1.5.5-1.9-.9-.9-2.8 0-5.7 2.5-1.1 1-4.4 4.3-5.8 6-.3.3-.3.5 0 .9 0 .2.5.3.9.3.3 0 .6-.3 1.3-.7 4.4-2.9 7.6-5.4 8.9-7.1zM103 104.5c-.3-.5-1.4-1.1-2.3-1.7-4.6-3-7.8-4.3-9.2-3.8-.5.2-.7.4-.7.8 0 .5.3 1 1.2 1.7 1.5 1.4 4.2 2.9 8.1 5 1.1.5 1.7.4 2.2.3 1.3-1 1.2-1.6.7-2.3zm-2.3 3.3c-.2-.3-.5-.3-1.4-.8a61.8 61.8 0 01-5-2.6c-.6-.4-1.1-.5-1.6-.5-1.7.1-2.6 1-2.4 2 0 .6.2.8.5 1.1.4.5.7.7 1.6 1 1.5.5 3.8.7 6.7.7.7 0 1.1 0 1.5-.3.2 0 .2-.4 0-.6zm3.4-6.8l.5-2.6c0-.6-1.2-2.7-2.4-4.3a13.9 13.9 0 00-2.5-2.4c-.9-.6-1.6-.8-2.1-.5-.3 0-.4.2-.6.4a6 6 0 00-.7 2.3 26.4 26.4 0 000 4.5v.8l.5.2a53 53 0 016.3 3.9c.3.2.4.3.5.2l.5-2.5zm-26 27.5c1-1.5 2.3-4 3.5-6.7l.7-1.4-.3-.4a12.5 12.5 0 01-1.3-3.2l-2.8 3.9-2.8 3.8-.1.8c-.3 1.8-.3 3.3 0 4.3.3.8.9 1.2 1.2 1 .4-.2 1.4-1.4 1.9-2.1zm12.6-14.7c-.2-1 .3-2.3 1.4-4 .3-.4 0-1-.1-1-.7-.5-1.5-.7-2-1.1l-.3-.3-1 1c-2 2.2-3 3.9-3 5.5 0 .8.3 1.6.8 2 .7.4 2.2-.1 4-1.5l.2-.2v-.4zM115 88.3l4.4-4.8.8-.8V82c.2-1.3 0-2.2-.4-2.6-.3-.2-.4-.2-.6 0a37.3 37.3 0 00-8.1 11c.2 0 .4.4.5.7 0 .1.1.1.6-.2l.8-.6c.4-.2.6-.4 2-2zm-8.6 5.7l.9-1.7c.7-1.2-.5-2.5-1.1-3.7-.5-.8-.6-1-1.3-1.6-.6-.6-.7-.7-1-.8-.5-.1-1.3.3-1.8 1.1a9.3 9.3 0 00-1 3.8v.5l.6.6A18 18 0 01105 97l.4-1 1-2zm5-6.3a108.8 108.8 0 014-5.8 5 5 0 00-2.4-.3c-1.3.4-3.1 2.2-5.4 5.2l-.7 1 .2.6c.2.3.7 1.6 1.3 1.8.3 0 .9 0 1.3-.3.9-.4 1.3-1.5 1.7-2.2zm-34 32l3-4.2v-.4a21 21 0 01-.3-1.7l-1.5 1.4c-3.3 3-5.3 5.5-5.6 6.9-.1.4.4 1.8.7 2.1.2.2.6.2.7 0l3-4.2zm10.8-13.3a55.5 55.5 0 01-3.3-1.6c-.2-.2-.2-.2-1.3.2a31.6 31.6 0 00-5.7 2.6c-1 .7-2 1.6-2.2 2-.3 1 .6 1.3 2.6 1a49 49 0 0010-3.7l.4-.2-.5-.3zm3-4.1l-1.1-1.4-.2-.3h-1.1a28.5 28.5 0 00-5.4 0c-.6 0-1.1.3-1.2.5-.3.5 1 1.7 3 2.8a39.7 39.7 0 004 2v-.4c.2-1 .8-1.7 2.1-2.1.5-.3 0-.9-.1-1.1z" color="#000" stroke="#3eb947" stroke-width="0"/>
  <path d="M414.5 7.6l137 137v269.9l-137 137H144.6l-137-137V144.6l137-137z" color="#000" fill="none" stroke="#f9a400" stroke-width="15.1"/>
  <path d="M182.6 45.6l331 330.9v0" color="#000" fill="none" stroke="#f9a400" stroke-width="12.7"/>
  <path d="M144.6 7.6l407 406.9M7.5 144.6l406.9 407m0-544L7.5 414.5m544-269.9l-406.9 407m187-83l137.1-137" color="#000" fill="none" stroke="#f9a400" stroke-width="15.1"/>
  <path d="M133 540L108 314m46.3-22.7l25.1 225.3M387 35v215m66.6-7.5V46.7" color="#000" fill="none" stroke="#f9a400" stroke-width="6.1"/>
  <path d="M585.8 2.2v16h1110c22.7 0 26.8 10.6 42.5 26.3l40.5 38.5c5.1 5.2 21.8 18.8 19.8 26.4-1.3 4.9-9.9 11.7-13.7 15l-26.4 25.5-36.4 34.6-36.5 36.3-20.2 18.4c-7.7 7.4-28 30.1-36.5 33.2-4 1.5-10 1.2-14.2 1.2H585.8V290h1037c22.8 0 27-10.7 42.6-26.4l34.4-32.4 107.3-103.5 36.5-36.4 20.3-18.3 34.4-34.5c5.5-5.3 15.1-14.6 22.3-17 4-1.5 9.8-1.2 14.1-1.2h204.6V3.9h-212.7c-20.2 0-26.2 8.5-40.5 22.4L1841.6 70c-5.1 4.4-21 21-26.4 21-6.4 0-25-21-30.3-26.2l-34.5-32.5c-7.8-7.9-24.4-26.8-34.4-30.1-3.8-.5-10.1-.3-14.2 0h-1116zm423.3 135.6h-58.7V162h32.4v16.2c0 4.5.4 11.7-2 15.4-3 4.3-9.4 5.5-14.2 6.2a77 77 0 01-40.5 0 64.8 64.8 0 01-41.5-88.5 73.3 73.3 0 0123.3-26.8 66.5 66.5 0 0138.4-11.5c31.8 1.4 42 12.5 60.8 16 0-5.8.9-19-2-23.5-3.2-4.8-11-7.2-16.2-9a143 143 0 00-40.5-8c-51-1.2-96 34-97.2 87.1-1.4 60 43 92 99.2 91.3 14-.2 29.3-3 42.5-7.4 4.6-1.6 11.3-3.4 14.2-7.6 2.5-3.8 2-11 2-15.4v-58.8zm154-88.4c-21.2 3.5-39.2 10-54.6 25.6a90.4 90.4 0 0012 136.2 93.9 93.9 0 0052.7 15.8 104 104 0 0046.6-9.1c50.3-23.9 65.1-94.1 29.7-136.9-20.7-25-55-35.5-86.4-31.6zm-577.3 1.2V225h26.3v-75c30.8.2 41.8 20.8 56.9 44.6 3.7 5.9 15.5 25.3 20.5 28.3 3.6 2 7.8 2 11.8 2h18.2c-4.5-10.5-13.1-20.5-19.6-30.3-10.8-16.7-22.9-42-41.2-50.7 9.5-6 18.1-12.2 23.4-22.3a47.9 47.9 0 00-21.3-64.2c-18.6-9.3-53.7-6.8-75-6.8zm145.8 0V225H837v-24.4h-79V150h75v-24.3h-75V75h77V50.6H731.5zM1037.5 225h26.3V50.6h-10.1c-3.7 0-10-.3-13 2-5.1 4.1-3.2 31.3-3.2 38.5V225zm249.3 0h26.1V95.2l80.8 93.3 33.2 35.3 21.7 1.2V68.8c0-13.8.2-19.5-16.1-18.1-14.4 1.2-10.2 19.3-10.2 30.3v99.4l-43-48.7-55-62.9c-7.5-8.6-13.3-18.1-25.5-18.1-5.4 0-9.8.4-12 6.3-.3 2.5-.2 9 0 11.8V225zM1479 50.6V225h107.4v-24.4h-81V150h74.9v-24.3h-75V75h64.9c3.3 0 8.2 0 11-2 4.3-3.5 4.3-16.8 0-20.3-3.3-2.5-11-2-15-2H1479zm-309.9 22.9c20.8-2 44.4 5.5 58.1 21.7 26.8 31.6 16.9 84.1-21.6 101.6a70.4 70.4 0 01-32.4 5.8c-34.2-.7-62-26-62.8-60.8a70.2 70.2 0 0111.4-42.6c12.2-17 27.7-22.5 47.3-25.7zm-557 52.1V75c9.6 0 26.3-1.3 34.4 3 14.6 7.5 17.5 32.1 4 42.2-9.8 7.2-26.7 5.5-38.4 5.5zm812.2 54.8v2l-2-2h2zm-838.5 363v16.2H1716c23 0 26.6-10.8 42.5-26.4l36.5-34.5c5-5 22-24.2 28.3-24.2 5.2 0 23.7 18 28.4 22.4l40.5 40.3c14.2 14 20.2 22.3 40.5 22.4h206.6v-16.3h-198.5c-22 0-29.5-11.3-44.5-26.3-16.7-16.7-42.4-43.6-60.8-56.8l129.6-125.7 30.4-28.8 18.2-14.6 14.2-1.2h111.4v-16.3h-119.5l-14.2 1.3-40.5 35.2-85 83.1-22.3 20.4-103.3 99.7L1722 542l-14.2 1.2h-1122zm103.3-34.5h28.4l13.8-34.5c2-4.7 4.6-11.4 9-14.2 4-2.5 11-2 15.6-2h36.5c4.4 0 9.9-.3 13.8 2 7 4.2 15.2 26.3 19 34.5 1.7 3.4 4.2 10 7.1 12.2 4.2 3 21.2 2 27 2L799 373l-18-36.5-10.8-1.7-6.9 3L745 377l-55.9 131.8zM1149 335.4a96 96 0 00-38.5 16.4 89.9 89.9 0 000 141.8c22.1 17 52 21.2 79 16.4a89.2 89.2 0 0052-145.1c-23.2-27.6-58.3-34.2-92.5-29.5zm-565.1 1.1v172.4H685v-22.3h-54.7c-17.5 0-20.2-2.8-20.3-20.3v-81.1c0-14.4-1.3-33 2-46.7l-28.3-2zm283.5 0c0 19.9-1.7 24 14.2 24.3h87.1L899 456.1 861.3 509h156v-22.3H909.8l27.5-38.6 47.2-64.9 32.6-46.6H867.3zm166.1 0v172.4h26.4V336.5h-26.4zm121.6 23c23.5-2.4 45 0 62.5 17.7 22.5 23 22.5 68 0 91a67 67 0 01-52.4 18.9c-67-2.8-81.6-84.5-36.5-116.9 8-5.7 16.8-8.9 26.4-10.8zM772.2 377l26.3 58.8h-50.7l24.4-58.8z" fill="#002744"/>
</svg>

