<?xml version="1.0" encoding="UTF-8" standalone="no"?>
<svg
   xmlns:dc="http://purl.org/dc/elements/1.1/"
   xmlns:cc="http://creativecommons.org/ns#"
   xmlns:rdf="http://www.w3.org/1999/02/22-rdf-syntax-ns#"
   xmlns:svg="http://www.w3.org/2000/svg"
   xmlns="http://www.w3.org/2000/svg"
   xmlns:sodipodi="http://sodipodi.sourceforge.net/DTD/sodipodi-0.dtd"
   xmlns:inkscape="http://www.inkscape.org/namespaces/inkscape"
   version="1.1"
   id="Layer_1"
   x="0px"
   y="0px"
   viewBox="0 0 365.14154 74.281097"
   xml:space="preserve"
   sodipodi:docname="save-the-children.svg"
   width="365.14154"
   height="74.281097"
   inkscape:version="1.0.1 (3bc2e813f5, 2020-09-07)"><metadata
   id="metadata27"><rdf:RDF><cc:Work
       rdf:about=""><dc:format>image/svg+xml</dc:format><dc:type
         rdf:resource="http://purl.org/dc/dcmitype/StillImage" /><dc:title></dc:title></cc:Work></rdf:RDF></metadata><defs
   id="defs25" /><sodipodi:namedview
   pagecolor="#ffffff"
   bordercolor="#666666"
   borderopacity="1"
   objecttolerance="10"
   gridtolerance="10"
   guidetolerance="10"
   inkscape:pageopacity="0"
   inkscape:pageshadow="2"
   inkscape:window-width="3840"
   inkscape:window-height="2120"
   id="namedview23"
   showgrid="false"
   inkscape:zoom="2.016"
   inkscape:cx="182.64154"
   inkscape:cy="37.037794"
   inkscape:window-x="-12"
   inkscape:window-y="-12"
   inkscape:window-maximized="1"
   inkscape:current-layer="Layer_1" />
<style
   type="text/css"
   id="style2">
	.st0{fill:#ED1B2D;}
</style>
<g
   id="XMLID_1_"
   transform="translate(-67.358455,-212.96221)">
	<path
   id="XMLID_2_"
   d="m 164.8,255.9 c -3.6,-1.6 -5.7,-2.2 -7.8,-2.2 -2.2,0 -3.6,0.8 -3.6,2 0,3.7 12.5,2.7 12.5,11.2 0,4.7 -4,7.4 -9.4,7.4 -4.3,0 -6.4,-1.1 -8.9,-2.4 v -5.3 c 3.5,2.3 5.7,3.2 8.4,3.2 2.3,0 3.6,-0.8 3.6,-2.3 0,-4 -12.5,-2.6 -12.5,-11.4 0,-4.2 3.7,-7.1 9.4,-7.1 2.7,0 5.2,0.6 8.3,1.9 v 5" />
	<path
   id="XMLID_3_"
   d="m 183.7,270.9 c -0.5,0 -0.9,-0.3 -0.9,-1.2 v -7.6 c 0,-3.6 -2.8,-5 -7,-5 -2.6,0 -5,0.7 -7.2,2 v 4.2 c 1.7,-1.7 4,-2.8 6.1,-2.8 2.3,0 3,1.2 2.9,2.8 -6.9,2.2 -9.9,3 -9.9,6.9 0,2.1 2,4.1 4.6,4.1 1.8,0 3.5,-0.5 5.5,-1.9 0.4,1.3 1.2,1.9 2.9,1.9 1.4,0 3.5,-0.6 4.9,-1.5 v -2.9 c -1.1,0.9 -1.5,1 -1.9,1 z m -6.1,-0.9 c -0.9,0.8 -1.9,1.3 -2.9,1.3 -0.9,0 -1.7,-0.8 -1.7,-1.8 0,-1.7 1.5,-2.4 4.6,-3.5 v 4" />
	<polyline
   id="XMLID_6_"
   points="185,257.4 190.6,257.4 194.1,266.6 197.7,257.4 203.2,257.4 195.6,274.4 192.7,274.4 185,257.4     " />
	<path
   id="XMLID_7_"
   d="m 209.3,266.6 h 11.9 c 0.3,-6 -3.7,-9.5 -8.6,-9.5 -5.1,0 -8.7,3.6 -8.7,8.7 0,5.2 3.8,8.6 9.6,8.6 1.3,0 4.4,0 7.4,-2.2 v -3.3 c -2.4,1.8 -4.1,2.4 -6.2,2.4 -3.2,0 -5.2,-1.8 -5.4,-4.7 z m 3.7,-6.4 c 2,0 3.4,1.4 3.6,3.6 h -7.2 c 0.2,-2.3 1.6,-3.6 3.6,-3.6" />
	<path
   id="XMLID_10_"
   d="m 245.1,261 h -6 v 6.8 c 0,1.6 0.9,2.7 2.6,2.7 1.1,0 2.1,-0.3 3.5,-1 v 3.8 c -1.8,0.8 -3.2,1 -4.8,1 -3.5,0 -6.4,-1.6 -6.4,-6.2 V 261 h -2.4 v -1 l 6.9,-7.8 h 0.6 v 5.2 h 6 v 3.6" />
	<path
   id="XMLID_11_"
   d="m 252.3,259.9 v 0 c 1.6,-1.9 3.3,-2.8 5.3,-2.8 3,0 6.1,1.8 6.1,6.3 V 274 h -5.2 v -9.5 c 0,-2.5 -1.1,-3.6 -2.7,-3.6 -1.2,0 -2.3,0.8 -3.5,2.5 V 274 h -5.2 v -24.5 h 5.2 v 10.4" />
	<path
   id="XMLID_12_"
   d="m 271.9,266.6 h 11.9 c 0.3,-6 -3.7,-9.5 -8.6,-9.5 -5.1,0 -8.7,3.6 -8.7,8.7 0,5.2 3.8,8.6 9.6,8.6 1.3,0 4.4,0 7.4,-2.2 v -3.3 c -2.4,1.8 -4.1,2.4 -6.2,2.4 -3.2,0 -5.3,-1.8 -5.4,-4.7 z m 3.7,-6.4 c 2,0 3.4,1.4 3.6,3.6 H 272 c 0.2,-2.3 1.5,-3.6 3.6,-3.6" />
	<path
   id="XMLID_15_"
   d="m 319.2,271.9 c -3.4,1.8 -6,2.4 -9.6,2.4 -9.5,0 -14.3,-6.2 -14.3,-12.5 0,-6.5 5.4,-12.7 14.8,-12.7 3.4,0 6.5,0.7 8.9,2.2 v 5.5 c -2.7,-1.5 -5.4,-2.5 -8.5,-2.5 -5.2,0 -8.9,3.1 -8.9,7.4 0,4.4 3.6,7.5 8.7,7.5 3.2,0 5.4,-1 8.9,-2.7 v 5.4" />
	<path
   id="XMLID_16_"
   d="m 328,259.9 v 0 c 1.6,-1.9 3.3,-2.8 5.3,-2.8 3,0 6.1,1.8 6.1,6.3 V 274 h -5.2 v -9.5 c 0,-2.5 -1.1,-3.6 -2.7,-3.6 -1.2,0 -2.3,0.8 -3.5,2.5 V 274 h -5.2 v -24.5 h 5.2 v 10.4" />
	<rect
   id="XMLID_17_"
   x="343.10001"
   y="257.39999"
   width="5.1999998"
   height="16.6" />
	<path
   id="XMLID_18_"
   d="m 348.6,252 c 0,1.6 -1.3,2.9 -2.9,2.9 -1.6,0 -2.9,-1.3 -2.9,-2.9 0,-1.6 1.3,-2.9 2.9,-2.9 1.6,0.1 2.9,1.4 2.9,2.9" />
	<rect
   id="XMLID_19_"
   x="352.10001"
   y="249.5"
   width="5.1999998"
   height="24.5" />
	<path
   id="XMLID_20_"
   d="m 372.5,249.5 v 8.7 c -1.4,-0.7 -2.8,-1 -4.3,-1 -4.8,0 -8.1,3.5 -8.1,8.6 0,5 3.3,8.6 7.8,8.6 1.8,0 3.1,-0.5 4.6,-1.7 v 1.3 h 5.2 v -24.5 z m 0,20 c -1.1,1 -2,1.4 -3.1,1.4 -2.4,0 -4,-2 -4,-5 0,-3.3 1.5,-5.2 4.2,-5.2 0.9,0 2.2,0.4 2.9,1 v 7.8" />
	<path
   id="XMLID_23_"
   d="m 386.7,262.2 v 0 c 1.6,-3.5 3.3,-5.1 5.4,-5.1 1,0 1.9,0.4 3.5,1.5 l -1.4,4.6 c -1.4,-0.9 -2.3,-1.2 -3.1,-1.2 -1.9,0 -3.1,1.8 -4.3,4.9 v 7.2 h -5.2 v -16.6 h 5.2 v 4.7" />
	<path
   id="XMLID_24_"
   d="m 401.3,266.6 h 11.9 c 0.3,-6 -3.7,-9.5 -8.6,-9.5 -5.1,0 -8.7,3.6 -8.7,8.7 0,5.2 3.8,8.6 9.6,8.6 1.3,0 4.4,0 7.4,-2.2 v -3.3 c -2.4,1.8 -4.1,2.4 -6.2,2.4 -3.2,0 -5.2,-1.8 -5.4,-4.7 z m 3.7,-6.4 c 2,0 3.4,1.4 3.6,3.6 h -7.2 c 0.2,-2.3 1.5,-3.6 3.6,-3.6" />
	<path
   id="XMLID_27_"
   d="m 421.1,259.8 c 1.7,-1.9 3.3,-2.7 5.4,-2.7 2.6,0 6,1.5 6,6.4 V 274 h -5.2 v -10.1 c 0,-2.3 -1.1,-3.3 -2.6,-3.3 -1.3,0 -2.3,0.7 -3.6,2.7 V 274 h -5.2 v -16.6 h 5.2 v 2.4" />
	<path
   id="XMLID_28_"
   class="st0"
   d="m 133.5,233.1 c 3.3,-3.4 4.8,-5 4.5,-5.9 -0.2,-0.7 -0.8,-1.3 -1.9,-1.8 -1.1,-0.5 -2.7,-0.8 -3.5,-0.4 -0.3,0.1 -0.7,0.6 -1.9,1.7 l -1,1 v 0 c -0.6,-0.7 -1.2,-1.3 -1.8,-1.9 -4.4,-4.4 -9.9,-7.4 -16.1,-8.8 -2.3,-2.8 -5.5,-4.3 -8.7,-4 -2.7,0.2 -5.2,1.7 -7,4.1 -6.4,1.5 -12.3,4.7 -17.2,9.3 v 0 c -1,-0.4 -3.2,-0.1 -4.7,0.5 -0.8,0.4 -1.3,0.9 -1.4,1.4 -0.1,0.4 0,1.1 1.6,3.2 v 0 c -4.9,6.7 -7.4,14.9 -7,23.1 0.4,8.4 3.8,16.2 9.6,22 2.1,2.1 4.4,3.8 6.9,5.3 3.6,2.1 7.6,3.6 12,4.5 9.2,1.9 18.2,0.5 25.8,-3.3 v 0 c 1,-0.5 1.4,-1.6 1,-2.6 l -0.1,-0.3 c -1.6,-4.4 -6.5,-17.7 -2.5,-29.3 1.7,-4.9 5.9,-9.9 9.6,-13.8 v 0 c 3.2,5.8 4.6,12.5 3.9,19 -0.7,6.1 -3.1,11.7 -7,16.3 v 0 c -0.1,0.1 -0.2,0.3 -0.2,0.5 v 0.2 l 0.3,0.9 c 0.1,0.3 0.4,0.5 0.7,0.5 0.2,0 0.4,-0.1 0.5,-0.2 v 0 c 10.5,-11.7 12.7,-28.2 5.6,-41.2 z m -43.9,25.1 c -1.1,4.4 -2.5,10.4 -2.2,19.7 v 0 C 85,276.5 82.8,274.8 80.9,272.8 75.6,267.5 72.2,260.5 71.4,253.1 70.6,246 72.3,239 76,233.2 v 0 0 0 c 1.2,1.4 2.6,3 4.1,4.8 3.7,4.2 7.8,8.9 9.8,12.2 1.2,2 0.6,4.2 -0.3,8 z m 36.3,-27 c -7.8,6.8 -14.9,10.3 -21.1,10.3 -4.8,0 -9.8,-1.7 -14.8,-5.3 -4.1,-2.9 -7.2,-6.3 -9.1,-8.3 l -0.2,-0.2 v 0 0 c 3.8,-3.6 8.5,-6.1 13.7,-7.2 v 0 0 0 c -0.7,1.9 -0.9,4 -0.7,6.2 0.3,3.8 2.1,7.3 4.7,9.5 2.1,1.7 4.6,2.6 7.1,2.4 2.5,-0.2 4.8,-1.5 6.6,-3.6 2.2,-2.7 3.3,-6.4 3,-10.2 -0.1,-0.7 -0.2,-1.4 -0.3,-2.1 v 0 c 3.5,1.6 6.8,3.9 9.6,6.7 0.4,0.6 1,1.2 1.5,1.8" />
</g>
</svg>
