<svg xmlns="http://www.w3.org/2000/svg" width="1768" height="434.7" viewBox="0 0 1326 326">
  <path fill="#1a92d1" d="M847 0v326h326V0H847zm301 25v276H872V25h276zm-234 89c-4.6 2.7-5 6.2-6.8 11a95.6 95.6 0 00-6.2 32v13c0 22.5 11.2 48.1 26 65a110.9 110.9 0 00157 9.8c9.3-8.4 19-21.5 24.6-32.8 12.8-25.6 13.6-50.6 7.2-78v7l-1.6 6 .8 11c-1.8-2.8-3.7-7-7-8l-2-9c-8.8 1.4-10.7 10.4-11 18-4.3-5-5.3-14.5-7.1-17.6-.7-1.2-2.4-2.7-3.4-3.7-7.8-7.6-6.7-2.3-16.5-7.1-4.9-2.4-7.6-5.8-13-5.6l6 10 7-2c1.7 3.6 3.5 4.4 1 8l1 2-18 9-6.3-11-7.7-17h-5l8 18 4.4 6 4.9 6.2h10.7c-3.2 13.4-12 14.6-16.2 22.8-2.3 5.2.8 11.7 0 16-1.5 4.9-5.8 6.8-7.5 10.2l-1.6 5.7c-.7 1.7-2.3 3.7-3.3 5.3-4.4 6.9-6.7 10.5-15.4 11.6-6 .7-7.9-6.2-10-10.8l-5.2-16c-.2-3.1 1.9-5.3 2.3-8 .5-3.2-2.2-11.2-4.6-13.3-1.3-1.1-2-1.2-3.5-1.7l2-10c-1.9-1-8.3-3.9-10-4.2-3.4-.7-5 1-8 1.7-6.4 1.7-11 1.2-15.8-3.7a33.5 33.5 0 01-5.9-8.8 46 46 0 012.6-17c2.1-3.8 4.2-5 6.4-8 2.6-3.7 3.5-6.7 7.7-9.4a76 76 0 0124-5.6c.6 6.3 1.2 6.9 7 9 2 .8 3.8 1.7 6 1.5 3.3-.2 3.4-1.7 8-1.2 3 .3 13.3 2.2 15.4.7 2.1-1.6 2.4-6.6 2.6-9l-14 1 1-9-8 1 1 5c-6.1-6-4.1-9-16-14 1.5 5 3.2 6.1 8 8l-1 4-12-9-9 1c-1.9 3.8-11.5 17.7-16 9.6-.8-1.4-.7-5.5-1-7.6 6-1.5 11.5 0 11.5-5 0-2.3-.9-2.9-2.5-4l2-3c6-.7 8.6-4 12.6-8.4 3.4-3.9 2.7-6 7.4-4.6-.1-2 .1-3.3-2.2-4.3-1.5-.5-5.7 0-5.2-2.8.5-2.6 5.1-5.3 7.1-6.8 3.2-2.4 5.3-4.7 9.3-6 7.6-2.7 18.3 1.9 26 3.9h-9c3 3.5 6.4 6.6 10 2l11 .7 16 5.3c-6.7-6.6-22.7-11.3-32-13.2a111 111 0 00-93 22.6c-7.7 6.5-15.8 15-21.2 23.6-2.7 4.3-5.2 6.8-4.8 12zm-189 68h-31a63 63 0 0015 42.3c20.7 21.6 60.7 25 88 16a58.3 58.3 0 0028.5-18.3c8.6-11.2 9.7-21.5 9.5-35 0-4.9-.7-8.4-2.5-13-9.1-23.4-24.6-26.8-46.5-32.4l-20-5.4c-12.4-3.4-29-5.6-33.2-20.2-5.3-18.2 14.8-26 29.2-27 3.4-.1 6.7.5 10 1 16.7 3 26.6 12.7 27 30h32l-2.2-16A49.7 49.7 0 00807 74.5C779.3 56.8 723.8 59.8 706.4 91a48 48 0 00-5.4 27c0 6.8 1.6 12 4.8 18 9.6 17.9 28.2 21.8 46.2 26.4l19 5c12.2 3 29.2 6.3 32.5 20.6 1.1 5 .4 10.4-1.9 15-6.9 13.8-21.7 16.2-35.6 16-14.2-.2-29.7-5.9-36.7-19-2.8-5.3-3.8-12-4.3-18zm491 0h-31c0 8.6.6 15.8 3.5 24 11.6 32.3 47.8 41.2 78.5 38.2 24.5-2.5 47.5-10.8 56.3-36.2 7-20.2.4-45-18.3-56.5-9.9-6.2-32.9-11.2-45-14.4-13.3-3.5-33.3-6.2-37-22.1-4-17.9 17.5-26.7 32-26 20.2 1.2 33.3 9.9 35 31h31c0-7.5 0-10.7-2.3-18-8-25.4-33.3-38-58.7-38h-10c-30 0-60.3 19-59 52 .2 3.7 1.2 9.5 2.4 13 7 21.4 24 26.7 43.6 31.9l24 6.4c13.3 3.8 30.6 6.1 33.5 22.7.8 4.4-.3 9-2.3 13-7.4 14.3-21.9 16.2-36.2 16-22.7-.3-40-13.3-40-37zM971 66l-8 3 8-3zM0 68v173h31V68H0zm66 0v173h29V115l19.4 31 40.3 65 12.4 20 6.4 9 7.5 1h25V68h-30v124l-16.2-26-42.2-68L105 78l-6.5-9-7.6-1H66zm158 0v27h55v146h31V95h55V68H224zm159 0v173h127v-27h-95v-50h86v-25h-86V95h93V68H383zm152 0v173h31v-71h44c9.2 0 17 1.4 24 8 9.6 9.5 10 31.2 10 44 0 4.6.6 15.1 4.6 18 1.8 1.3 5.3 1 7.4 1h25c-3-10.3-4.9-7.5-7.6-26-1.2-8.8-1.3-15.3-1.4-24-.2-14.5-7.5-29.6-23-32l13-9.2c8.3-7.7 12.9-20.6 13-31.8 0-7.2 0-12-2-19-10.3-36.7-55.7-31-85-31h-23-30zm531 1l6 5c-2-3.4-2.4-3.5-6-5zm-83 7l3 11-6 1 2-7c-3.3-1.9-3.5-2.2-3-6l4 1zm-39 1v1l-1-1h1zm-1 1v1l-1-1h1zm-1 1v1l-1-1h1zm-1 1v1l-1-1h1zm-1 1v1l-1-1h1zm-1 1v1l-1-1h1zm38 0l-4 4c1-3 1-3 4-4zm-4 4v1l-1-1h1zm6 2v1l-1-1h1zm-413 58V93h47c6.5 0 16.5 1.4 22 5 14 9.2 11.2 36.8-3 44.6-7.3 4-17 3.4-25 3.4h-41zm359-47l-4 3 1-3h3zm86 6v1l-1-1h1zm-94 3l-2 4 2-4zm91 0v1l-1-1h1zm-93 4v1l-1-1h1zm197 12l1 4-1-4zm-199 45l5-1-1 5 3 2 3-2c3.7 3.5 9 4.3 10.5 8.2 1.3 3-1.2 5.3-2 8.8-1.7 6.6 1.9 11.9-7.5 13 0 4.8.3 9.1-4 12l1 3-4 2c-2.5-5.9-4.5-10.7-6.1-17l-2.2-10c-2-6.7-5-9.4-5.6-19-.2-2.7 0-13.5 1.2-15.5 1.5-2.3 4.1-1.8 5.7 0 2.2 2.4 2.7 7.4 3 10.5zm197-5v1l-1-1h1zm3 0v1l-1-1h1zm-2 1v1l-1-1h1zm1 2l1 5-1-5zm4 10v1l-1-1h1zm1 1v1l-1-1h1zm-58 13c-.3 6.9-3 17.1-9 21-.8-9.6 1-15.2 9-21z"/>
</svg>

