<svg xmlns="http://www.w3.org/2000/svg" width="1252" height="261.3" viewBox="0 0 939 196">
  <path fill="#004379" d="M693 146h-20v27l1 7c1 4 10 7 14 9 14 5 29 7 44 7 13 0 30-4 41-11 14-10 20-23 22-40l1-9-3-16c-7-23-27-31-48-37-21-7-47-11-45-39 1-33 42-36 59-22 6 6 9 14 10 22h19V22c0-11-4-12-14-16-9-4-24-6-34-6-27 0-53 9-62 38-1 6-2 14-1 21 2 21 11 33 31 42 19 7 54 11 61 33 2 5 2 9 2 14 0 26-24 37-47 33-5 0-10-1-14-4-11-6-16-19-17-31zm124 0v27c0 11 4 12 14 16 11 4 26 7 37 7 28 0 58-7 68-37 3-9 3-17 3-26 0-34-30-44-57-52-16-5-34-9-38-28-6-23 13-40 35-39 5 0 13 2 18 4 10 6 14 16 16 26h19V22l-1-7c-1-4-9-7-13-9-12-4-27-6-39-6-22 0-45 9-54 30a58 58 0 00-2 43c8 23 34 30 55 36 11 4 24 7 31 17 11 14 7 38-7 49-6 5-17 7-25 7-12 0-25-2-32-12-3-4-6-9-7-14 0-2-1-8-3-9l-6-1h-12zM0 3v11h221V3H0zm264 0v11c17 0 22 5 22 22v124c0 17-5 22-22 22v11h126l2-25 2-22h-13c-2 9-5 21-12 27s-14 5-23 5h-34V41c0-6 1-16 5-21s12-6 18-6V3h-71zm133 0v11c7 0 13 1 17 7 3 4 3 8 3 13v68c0 30-4 67 25 85l15 6a115 115 0 0050 1l16-7c17-10 24-30 24-48v-20-42-37c0-6 1-16 4-21 4-4 11-5 16-5V3h-61v11c15 1 22 4 22 20v103c0 23-11 41-36 41-10 0-20 0-29-4-14-8-19-25-19-40V70 33c0-5 1-10 4-14 5-4 13-5 19-5V3h-70zm185 0v11c18 0 22 7 22 24v122c0 17-5 22-22 22v11h70v-11c-17 0-22-5-22-22V37c0-16 5-23 22-23V3h-70zM0 23v10h221V23H0zm61 19v11h99V42H61zM51 193h11V80c0-19-11-36-31-36l-10 1C9 47 0 57 0 70l1 9c2 10 11 16 21 16 11 0 20-6 20-18 0-5-5-15-11-13-2 1-5 4-5 6 0 3 5 6 3 10-4 8-15 2-17-5-4-11 9-21 19-20 14 2 20 16 20 28v110zm108 0h11V84c0-5 0-10 2-15 5-10 17-17 27-12 5 2 11 8 11 14s-7 14-13 13l-4-3c-5-6 5-8 1-14l-4-3c-6-2-10 8-11 12-1 10 7 19 17 19 14 0 25-7 25-22 0-7 0-12-5-18-7-9-15-11-26-11-20 0-31 17-31 36v113zM73 61v132h11V61H73zm21 0v132h11V61H94zm22 0v132h11V61h-11zm21 0v132h11V61h-11z"/>
</svg>

