<svg xmlns="http://www.w3.org/2000/svg" width="400" height="392" viewBox="0 0 300 294">
  <path fill="#000" stroke="#000" d="M221 0v16h63v39l1 21 15-1V0h-79zm-99 21.7c-11.6 6.7-3 19.6 6 16.4 9.8-3.6 6.7-19.2-6-16.4zm79 8.3c0 8.7.8 14.6-10 15v14h9v15c0 10.9-.3 21.8 14 23 3.7.2 6.4-.4 10-1V83c-1.8.3-4 .8-5.9 0-6.2-2-4.1-18.5-4.1-24h10V45l-10 1V30h-13zM73 50v-5H59v70h14V92c4 3.2 5.8 4.7 11 5 7.4.4 13-.2 18.8-5.5C116.5 79 114 46.5 89 44.3c-6.4-.5-11.2 1.8-16 5.7zm117 30l-13-4c-2.1 3.9-4.3 7-9 7.8-8 1.2-14.4-7.3-13.2-14.8 1.9-12 16.8-15.8 21.2-3l14-4a25.1 25.1 0 00-40-12.6c-8.5 6.8-10.8 15.2-10 25.6 2.3 26.4 43.2 32.2 50 5zm-72-35v51h15V45h-15zM81 58.4c4.4-.6 9.1-.6 12.3 3 5.8 6.4 3.7 20-5.3 22.2-15.6 3.8-20.8-19.6-7-25.2zm50 61c-9.4 1.6-16.3 4.8-21 13.6-9.3 17 2.3 39.5 22 40 5 .1 8.3-.1 13-2.3 25.7-12.2 16.6-53.7-14-51.3zm66 .6c1.6 6.7 1 16.9 1 24 0 2.9 0 6.3-1 9-2.5 6.4-9.7 7.4-13.6 3.6-2.4-2.4-2.3-5.5-2.4-8.6v-27h-15c0 7-.7 33 .8 38 3 10.4 12.7 16 23.2 13.5 3.4-.8 6-2.7 9-4.5v4h14l-1-15 1-37a31.4 31.4 0 01-16 0zm39 6v-5h-15v51h15v-19c0-11.4 3.7-20.1 17-17v-15c-7.6-1-11.2 0-17 5zm-184-5l14.3 30 6 14L62 191l14.4-2 9.3-18 22.3-50-14.6 1-4.1 7-7.3 19h-2l-11-27H52zm79 12.3c4-.3 7.5-.2 10.6 3 5.4 5.6 5.6 21.6-6.6 23.3-15 2.2-19.2-21.8-4-26.3zm81 46.7c0 8.8.3 14-10 15v13h9c-1.8 7.3-2 25.8 2.5 32a13 13 0 005.5 4.5c3 1.6 12.7 2.6 15 0 1.4-2 1-9 1-11.5-2.6 0-5.6.2-7.7-1.6-3.6-3-2.3-18.4-2.3-23.4h10v-13h-10v-15h-13zm-96 31c2.7.5 9.3 2.3 11.6 1.4 2.8-1.1 6.6-9 13.4-5.9 1.3.6 2.4 1.4 3 2.6 2.5 4.6-4.1 5.3-7 5.8-5.7.8-11.1 1-16 4.7-9 6.8-7.6 20.4 3 25.5 8.7 4.1 16 1.6 23-4.1v5h14c-1.8-10.2-.9-21.6-1-32 0-4.8-.7-9-3.7-13-9-12.1-37-11-40.3 10zm-43-12v-4H59v69h14v-22a22 22 0 0010 4.5c30 5.7 38.6-42 13-51.4a27.7 27.7 0 00-11-1c-5 .4-8 2-12 4.9zm107 1v-5h-14v51c13.3 0 14.8 1 15-7 .2-10.2-3.7-28.6 11-29.8 2.3-.2 3.8.3 6 .8l-1.6-13.6c-2.8-5.5-13.5 1.3-16.4 3.6zm57-5c1.4 7.2 10.5 23.5 14.2 31 1.4 2.8 5 10.2 5 13L246 264l17 1c-.1-5 5-14 7.1-19l14.2-32c2.6-5.7 6.6-13 7.7-19l-14.5 1-4.4 8-7.1 19-9.1-19-5.3-8.4-14.6-.6zM83 207.3c17.3-1.2 17.2 23.4 4 26-14.8 2.9-20.3-21.6-4-26zM0 218v76h78v-16H16v-60H0zm146 5c-.3 6-1.2 11-8 12.4-1.8.4-4 .5-5.7-.6-3-2-2.7-7.2 1-9L146 223z"/>
</svg>

