<svg version="1.1" id="Livello_1" xmlns="http://www.w3.org/2000/svg" x="0" y="0" viewBox="0 0 2921 1078" xml:space="preserve">
  <style>
    .st0{fill:#009}
  </style>
  <path class="st0" d="M0 0v1078h1078V0H0zm338 749L235 587h-1v162H124V328h164c83 0 146 40 146 130 0 58-32 108-92 119l132 172H338zm453 3H689v-32h-1c-18 29-54 42-88 42-85 0-146-72-146-155 0-82 60-153 145-153 34 0 68 12 90 37v-28h102v289zm161-1H850V465h102v286zm-51-339c-31 0-57-26-57-57s26-57 57-57 57 26 57 57-26 57-57 57z"/>
  <path class="st0" d="M626 543c-41 0-66 29-66 65s25 65 66 65 66-29 66-65-24-65-66-65zM244 412h-10v105h10c36 0 76-7 76-52s-40-53-76-53z"/>
  <g>
    <path class="st0" d="M1340 667h26v88h-172v-88h41V416h-41v-88h172c36 0 63 2 78 6 16 3 30 9 42 18 18 12 33 29 43 50 11 21 16 44 16 68a140 140 0 01-80 132l53 65h40v88h-92l-126-153v65zm0-142h21c27 0 46-4 59-12 12-8 18-21 18-39s-5-30-16-38c-10-8-29-11-56-11h-26v100zM1829 718c-11 14-25 25-41 31-16 7-35 11-56 11-46 0-85-16-115-48-31-32-47-73-47-122s16-90 46-122c31-32 69-48 116-48 22 0 42 4 58 11 17 8 31 20 43 35v-40h126v86h-36v156h36v87h-130v-37zm-159-128c0 24 8 44 22 59 15 15 34 23 58 23 22 0 41-8 56-23s23-35 23-59-8-44-23-59a75 75 0 00-56-23c-24 0-42 8-57 23a81 81 0 00-23 59zM2230 718c-11 14-24 25-40 31-17 7-35 11-56 11-47 0-85-16-116-48s-46-73-46-122 15-90 46-122c30-32 69-48 115-48 23 0 42 4 59 11 16 8 30 20 42 35v-54h-36v-84h127v340h35v87h-130v-37zm-158-128c0 24 7 44 22 59s34 23 57 23 42-8 57-23c14-15 22-35 22-59s-7-44-22-59a76 76 0 00-57-23c-23 0-42 8-57 23a81 81 0 00-22 59zM2428 668V512h-40v-86h133v242h42v87h-176v-87h41zm0-260v-80h93v79h-93zM2570 590a165 165 0 0150-123 181 181 0 01250-1 168 168 0 0151 124c0 24-4 47-13 67-8 21-20 40-37 56a179 179 0 01-288-56c-9-21-13-43-13-67zm99 0c0 22 8 41 23 57s33 24 54 24 39-8 54-24 22-35 22-57c0-23-7-42-22-58a71 71 0 00-54-24c-21 0-39 8-54 24a81 81 0 00-23 58z"/>
  </g>
</svg>

