<svg xmlns="http://www.w3.org/2000/svg" width="956.3" height="196.8" viewBox="0 56.4 956.3 196.8">
  <path fill="#1F4FA2" d="M296.5 150.1c-.2 11.5-1 21.3-8 31.2a38 38 0 01-32.5 15.4c-24.7 0-42-16.8-42-41.5 0-25.6 17.4-42.4 42.7-42.4 16.2 0 28.7 7.3 35.5 22l-19.4 8.1c-2.8-7.5-8.8-12.5-17-12.5-13.5 0-20.5 12.9-20.5 24.9 0 12.2 7.3 24.6 20.8 24.6 8.9 0 15.7-4.6 16.5-13.7H256v-16M322.6 149.3h.2c3.7-6.6 10-9.5 17.3-9.5h3.7v18.3a15.4 15.4 0 00-8-1.8c-10.6 0-13.2 7-13.2 16.2V194h-19v-53.6h19M369.9 151.5h3.4c7.4 0 14.7 0 14.7-9.6 0-10-6.7-10-14.7-10H370v19.6zm-20.5-36.1h31.3c17 0 28.6 7.8 28.6 25.9 0 18.6-10 26.7-27.8 26.7h-11.6v26.1h-20.5M431.9 167.4c0 6.8 4.5 12 12.2 12 7.7 0 12.2-5.2 12.2-12 0-6.6-4.5-12.1-12.2-12.1-7.7 0-12.2 5.5-12.2 12zm42.8 26.7h-19v-6h-.2c-3.4 5.4-10 7.8-16.2 7.8-15.9 0-27-13.3-27-28.6 0-15.4 11-28.5 26.8-28.5 6.1 0 12.6 2.3 16.6 7v-5.3h19M504.4 149.3h.2c3.7-6.6 10-9.5 17.4-9.5h3.6v18.3a15.4 15.4 0 00-8-1.8c-10.6 0-13.2 7-13.2 16.2V194h-19v-53.6h19M530.8 194.1h19v-86.7h-19v86.7zM576.2 167.4c0 6.8 4.5 12 12.3 12 7.7 0 12.2-5.2 12.2-12 0-6.6-4.5-12.1-12.2-12.1-7.8 0-12.3 5.5-12.3 12zM619 194h-19v-6h-.2c-3.3 5.4-9.9 7.8-16.1 7.8-16 0-27-13.3-27-28.6 0-15.4 10.9-28.5 26.7-28.5 6.2 0 12.7 2.3 16.6 7v-5.3h19M648.8 147.2h.2c4.5-6 10-8.4 16.9-8.4 7.7 0 14.4 3.1 18.3 10.2a20.5 20.5 0 0118.1-10.2c13.6 0 18.3 8.8 18.3 21.2V194h-19v-25.6c0-5.5.2-14.6-7.8-14.6-8.8 0-9.1 8.3-9.1 14.6v25.6h-19v-25.6c0-6 0-15-8.5-15-8.4 0-8.4 9-8.4 15v25.6h-19v-53.6h19M768.5 159.5c-1-5-5.6-8.4-10.7-8.4-5.6 0-10.2 3-11.3 8.4h22zm17.7 11h-40c0 7.7 4 12 11.9 12 4 0 7-1.5 9-5h18.3c-3 12.6-15 18.4-27.2 18.4-17.8 0-31-10-31-28.5 0-17.9 12.2-28.6 29.6-28.6 18.6 0 29.4 11.5 29.4 29.7M812 147.4h.1c4.4-6.4 9.7-8.6 17.2-8.6 14.4 0 20.1 9 20.1 22.2v33.1h-19V168c0-5.1.8-14.1-8.6-14.1-7.7 0-9.9 5.7-9.9 12.4v27.8h-19v-53.6h19M880.8 194.1h-19v-37.9h-6.1v-15.7h6.1v-16h19v16h10.8v15.7h-10.8M911.8 167.4c0 6.8 4.5 12 12.2 12 7.8 0 12.2-5.2 12.2-12 0-6.6-4.4-12.1-12.2-12.1-7.7 0-12.2 5.5-12.2 12zm44.5 0c0 18.1-15 28.5-32.3 28.5-17 0-32.2-10.3-32.2-28.5 0-18.3 15-28.6 32.2-28.6 17.3 0 32.3 10.3 32.3 28.6M0 253.2h196.8V56.4H0v196.8z"/>
  <path fill="#FFF" d="M40.1 150.7h2c6.7 0 14.2-1.3 14.2-9.8 0-8.6-7.5-9.9-14.2-9.9h-2v19.7zm45 43.4H59.7l-19.3-30.3H40v30.3H19.7v-78.7h30.6c15.5 0 27.3 7.4 27.3 24.2 0 10.9-6 20.3-17.2 22.2M104.3 167.4c0 6.8 4.5 12 12.2 12 7.8 0 12.3-5.2 12.3-12 0-6.6-4.5-12.1-12.3-12.1-7.7 0-12.2 5.5-12.2 12zm42.8 26.7h-19v-6h-.2c-3.3 5.4-9.9 7.8-16.1 7.8-16 0-27-13.3-27-28.6 0-15.4 10.9-28.5 26.7-28.5 6.2 0 12.7 2.3 16.6 7v-5.3h19M177 194.1h-19v-53.6h19v53.6zm1.2-74.1c0 5.8-4.8 10.6-10.6 10.6-5.9 0-10.7-4.8-10.7-10.6a10.7 10.7 0 0121.3 0"/>
</svg>

