<svg xmlns="http://www.w3.org/2000/svg" viewBox="0 0 927.2 294.5">
  <g fill="#002060">
    <path d="M.1 0c98.2 0 196.3-.1 294.5.1v294.4H0C0 196.3 0 98.2.1 0m248.4 82.7a16 16 0 00-11.5 17c.6 8.3 9 15 17.2 14.1 8.7-.6 15.8-9.5 14.3-18.2a16 16 0 00-20-13m-220 9c.3 39 .3 78 0 117 10.2.3 20.3.1 30.5.2.9-15 .1-30.2.4-45.3 10.3 14.8 19.1 30.6 29.5 45.3h37.7c-12-16.1-24.8-31.7-36.5-48 10-2.5 19.1-9.5 22.7-19.3 4.5-13.1 3.2-29.4-6.9-39.6a44 44 0 00-31.7-10.8c-15.2.3-30.5-.5-45.6.4m112 45.5a45.3 45.3 0 00.5 63.7c13.5 13.5 38.7 14.9 51.5-.3l.3 8.4h27.9c.3-26.7.3-53.4 0-80.1H193l-.8 6.8a38.2 38.2 0 00-51.7 1.5m98.2-8.3a2893 2893 0 000 80.1h27.9c.6-9.7.2-19.4.2-29.2-.2-17 .6-34-.3-51-9.3.2-18.5.2-27.8 0zM537.2 72.8h29.6v135h-29.6v-135zM338.8 98.3a64.8 64.8 0 0146.3-15.5c8.7.4 17 3 25.2 6V127a34.7 34.7 0 00-46.5-7.8 31.2 31.2 0 00-13.9 23.5 33 33 0 009.2 28 34.5 34.5 0 0043.6 3.3c3-2 5.2-4.6 7.6-7.2V205a66.2 66.2 0 01-85.6-26 66.1 66.1 0 01-7-44.2 60.2 60.2 0 0121.1-36.4zM590.6 124.3v-25h29.6v25h16.7v24.3h-16.7v59.3h-29.6v-59.3h-9.7v-24.3h9.7z"/>
    <path d="M59.3 114.8c6-.7 12.5-.2 18 2.7 8.1 4.5 8.5 17.9.8 22.9-5.6 3.5-12.4 3.5-18.7 3.6l-.1-29.2zM833.8 146.5a42.5 42.5 0 0128.4-23.5c12.4-3 26.6-.1 35.3 9.6v-8.3h29.7v83.5h-29.7v-9a30 30 0 01-20.2 11.4 42.4 42.4 0 01-46-32 52.3 52.3 0 012.5-31.7m39.8 1.7a18.8 18.8 0 004.7 36.7 18.8 18.8 0 0020.1-20.3c-.5-11.8-13.7-20.4-24.8-16.4zM802 125.2a40 40 0 0117.7-1.6v28c-7.7-3.3-17-4.3-24.4.2-5.9 3.8-8.3 11-8.4 17.8-.3 12.7 0 25.5-.1 38.2h-29.6v-83.5h29.6v13.8a29.3 29.3 0 0115.2-12.9zM428.2 124.3h29.6v47.2c0 4.8 1.1 10.2 5.4 13 5 3.3 11.7 3.4 17 1.1 5.1-2 7.3-7.9 7.2-13v-48.3H517v53.3c0 8.2-2.4 16.7-8.3 22.5a45.3 45.3 0 01-29 11.1c-12.8.6-26.4 0-37.5-6.8a28.9 28.9 0 01-13.5-20.7c-.6-4.7-.6-9.4-.5-14.1v-45.3zM648.2 124.3h29.6v48.2c0 5.2 2.1 11 7.2 13.2a18.4 18.4 0 0017.7-1.6c3.5-2.7 4.7-7.3 4.7-11.5v-48.3H737v50.3c.3 8.4-1.2 17.4-6.9 24-7.4 8.5-19 11.8-29.8 12.6-12.9.6-26.7.2-38-6.8a29 29 0 01-13.7-21.6c-.5-4.4-.5-8.8-.4-13.2v-45.3zM169.7 151.4c6.1-1.5 13.2-.6 18 3.7a19 19 0 011.2 26.2c-8.1 8.7-25 6.9-30.1-4.3-4.8-9.4.3-23 10.9-25.6z"/>
  </g>
</svg>

