<svg xmlns="http://www.w3.org/2000/svg" width="266.9" height="111.7" viewBox="0 0 834 349">
  <path fill="black" stroke="black" d="M409 0l-19 2-26 5c-33 9-66 29-91 51-15 14-28 29-41 45l-10 14c-2 2-4 5-7 6-4 2-7-2-9-5-7-8-14-14-22-20-17-14-37-23-59-26h-8l-11-1c-26 1-56 10-75 29-46 47-41 129 18 162 33 18 81 22 114 2 15-8 26-18 38-30 3-3 9-12 14-11l5 6 9 13c13 18 20 27 36 44 35 35 80 57 129 62h9l10 1 25-1c12 0 38-5 49-9 27-10 57-31 78-51 12-12 29-32 38-46 3-4 12-19 16-20s10 8 13 11c11 11 23 20 37 28 10 6 21 11 32 13 32 7 66-1 93-20 51-35 51-110 10-153-16-17-41-26-64-29l-16-2c-28 1-55 9-76 27l-21 20c-2 2-6 7-10 6a410 410 0 00-45-51A231 231 0 00409 0zm1 55h5l12 1c31 3 55 12 79 31 15 13 27 27 40 42l22 28c2 4 7 10 8 15 1 6-4 12-8 17l-18 28c-24 34-54 64-96 73l-16 3h-10l-7 1-15-1c-8 0-20-3-28-5-43-11-71-38-96-74l-19-27c-2-4-6-9-6-14 1-4 6-11 8-14l19-26c21-28 47-54 80-68 10-4 24-7 35-9l11-1zm-301 71c22 0 40 16 54 31 2 3 12 15 12 19s-10 15-13 18c-11 13-30 29-48 29h-12c-26 0-46-19-46-45 0-12 1-21 8-31 7-11 21-18 33-20l12-1zm613 0l8 1c14 1 26 4 36 14 18 18 18 53-1 70-13 12-29 12-45 12-18 0-38-18-49-31-4-4-12-12-11-17 1-4 9-14 12-17 9-11 26-26 40-30l10-2z"/>
</svg>

