<svg xmlns="http://www.w3.org/2000/svg" width="177" height="90.9" viewBox="0 0 553 284">
  <path fill="#000" stroke="#000" d="M415 .5C390.8 7.2 387.2 46 387 67l-1 15v37l1 15c0 23.2 2.5 53.4 7.6 76 4.5 19.6 14 50.7 38.4 51 4.2 0 8 .2 12-1.5 17.3-7.5 22.2-37.7 23.8-54.5a658.2 658.2 0 00-6.7-159C458 21.9 449.4-.3 421 0c-2.7 0-3.3 0-6 .5zm-94 1c-6.3 1-11.3 1.8-17 5-19.5 11-24 36-24 56.5v64l1 19 5.3 60c1 8.3 2.8 21.5 5.9 29a44.7 44.7 0 0035.8 25c10.4.4 28.6-3.6 35.3-12 3.8-4.8 7.9-16 .6-19.8-6.7-3.4-13.6 6.5-18.9 9.4-11.6 6.3-32.5 1.3-37.9-11.6-3.6-8.8-6.1-36.3-7.3-47l-3.8-51-1-17V73c0-20.2 5.2-52.8 31-54 9.4-.4 25.9 10.1 27.8-2 .5-3.4-.8-6.4-3-8.9-7.3-8-19.9-7.9-29.8-6.7zm101 14c16.4-1.2 22 24.1 25.1 36.5 8.4 33.4 8 78.3 7.9 113l-1 15c-.2 14.6-3.4 36-7.4 50-1.4 5-4.8 14.4-10.6 15.5-5.8 1-10.2-5.4-12.8-9.5-8.3-13.2-10.3-25-13.2-40-2.6-13.5-7-51.6-7-65v-23-25l1-10 .7-14c1.6-12.4 4.2-38.6 17.3-43.5zM233 37l-3.7 21c-.4 2-1.2 6-2.9 7.2-2.6 1.8-5.4-1.2-9.4-.7-7.3 1-10.7 8.4-12.7 14.5-5 16-4.3 40-4.3 57v30l1 16c0 13.7 1.3 30.4 3.3 44l2.2 10c1 5.4-3.4 25.5-4.7 32-1.9 9.6-3.3 11.6 3.2 16l7-32c2.9 1.5 4.7 2.4 8 2.8 23 2.9 28-25.7 28-42.8v-51l-1-12v-9l-3-27v-9c-.2-14.5-4-15.2-8.4-27-2-5.5 2-21.6 3.2-28 1.4-8.5 2.9-11.7-5.8-12zm285 205l17.1-40 5.6-16c5.8-18.2 12.3-53 12.3-72V93c0-12-2.6-22-13-29.2-15-10.4-28.6.7-29 17.2 0 4.2-.6 10.8 5 11.6a6 6 0 004.6-1.3c4.6-3.8 2.4-13 7.6-16.8 3.4-2.4 6.1.8 7.8 3.5 2.7 4.4 4 12.8 4 18v18c0 30.9-11.2 65.9-23.3 94l-13.6 31c-1.6 4-4.4 9.6-2 13.8 1.8 2.9 5.7 4 8.9 4l26-1.8c3.1 0 8.1.3 10.8-1.3 4-2.4 6-12.5-5.8-12.7l-23 1zm-306-38c-1.5-3.8-1.7-20.8-2-26l-3-27v-24l1-13c.1-9 .4-18 2-27 .4-2.8 1-8.3 2.8-10.6 2.7-3.1 8.7-4.2 11.2 0 1.3 2 1 7 1 9.6l-2.8 24-1.4 20-3.7 32-5.1 42zm-70-34.8c1.4-.2 3-.5 4.2 0 3 1.8 5.3 12.4 6.2 15.8l10 52c1.4 4.8 5 21.4 12.3 19 2.6-.8 2.4-4.8 2-7l-4-11-2.7-11-10.1-41-4.5-21c.2-3.7 4.1-10.4 5.8-14a47.2 47.2 0 005.8-22c0-11 2.2-25.2-6.3-33.7-4.5-4.5-22.3-10.8-26.5-4-3.9 5.9-1.2 18.7-1.2 25.7v36l1 16v21l1 17v18l1 13c0 4-1.4 14.8 3.1 16.3 3.2 1.1 5.4-1.5 6-4.3l-1.1-15-1-24-1-15v-26.8zM10 92l1.6 6 6.4 1 18-1-1.6 13-10.1 39-5.9 18-8.9 40-9.3 37c-1 11.7 8.7 6.5 11.8 6 2.4-.5 6.3 0 9 0 2.6 0 8.6.4 10.7-1 2.6-1.8 3.8-7.3-4.7-7.9l-17 .9c2.5-30.9 10.5-53 18.6-82l7-29c3-11.3 8.3-22.3 9.2-34 .6-6.6-1.7-7.9-7.8-8-12-.2-15.2-.4-27 2zm71 72c5.2 1.6 17.8 6.4 19.5-2 2-9.7-14.8-6.6-17.3-7.6-3.8-1.5-3.2-6.1-3.2-9.4v-15c.1-9.3 2.6-18.9 0-28 10.6-2 17 6 22.8 2 3.8-2.7 3-6.4-.9-8.5-3.3-2-9.1-2.3-12.9-3-7.4-1.2-18-6.4-18.9 6.5l.9 15v39l-1 17v44l1 14c.2 9.9-2 8-1 19 .1 2.8 0 5.3 2.3 7.3 2.1 1.7 5.1 1.7 7.7 1.7 5 0 15.4.3 20-.6 2.3-.5 5.4-1 6.3-3.6 1.7-4.8-4.1-5.7-7.3-5.8-6.1-.2-14.3 2.3-17.3-5-.6-1.6-1.7-13.7-1.7-16v-20l1-15v-26zm152-72l3.7 20 2.3 44 1 17v36c0 8.5-1.3 22.3-4.9 30-2.1 4.6-5.5 9-11.1 8.7-5.1-.2-7.9-3.8-8.4-8.7-.3-3.8 2.8-21.1 3.7-26 4.5-26 6.7-52.7 8.6-79l2.8-27c.6-5 .4-10.3 2.3-15zm-91 68v-25-17c0-3.2-.4-16.7.6-18.7 2-3.9 9.9-2.1 13.3 5.7 4.4 10 1.7 31.7-2 42-2.3 6.4-4.9 11.5-11.9 13zm376 82v1l-1-1h1z"/>
</svg>

