<svg xmlns="http://www.w3.org/2000/svg" fill="currentColor" viewBox="0 0 550 550">
  <path d="M214 21l-16 35-9 17c-4 3-9 3-14 3l-28 2-11 1c-2 1-2 5-2 7v23c0 4 0 11-2 14-2 4-12 11-16 14-4 4-14 10-14 15l10 34c1 5-6 22-7 28-1 3-2 7-1 10 1 4 8 9 11 12 11 10 19 12 19 28v24c0 11 3 7 14 8l27 3c5 0 10 0 14 3 3 2 7 13 9 17l16 35c6-1 12-6 17-9l27-17c4-2 14-9 18-9l16 9 27 16c6 4 11 8 18 10l17-38 6-17 28-1 28-2v-26c0-5 1-14 3-18 3-6 15-14 20-19 3-2 7-5 8-9 1-3-1-9-2-12-1-4-7-21-7-25l10-34c0-5-4-8-8-11l-21-19c-2-3-2-8-3-11V78l-34-2c-5 0-15-1-19-3-3-2-7-11-9-15l-17-37c-6 1-12 6-17 9l-28 17c-4 2-11 8-15 8-5 1-15-6-19-9l-28-17c-5-3-10-7-16-8zm52 41v2l-29 18-12-1-26-5 19-45 48 31zm66-30l17 44c-8 1-31 8-37 7-5-1-14-9-18-12s-8-5-10-10l29-19c6-4 12-9 19-10zm84 34c4 7 12 14 18 21 12 16 15 21 31 35 6 5 13 12 20 14l-4-16c-9-26-21-38-46-48-6-3-13-5-19-6zM301 87l-27 10-26-10c3-5 14-13 19-16l8-3c3 0 6 2 8 4 6 3 15 9 18 15zM62 139c6-2 11-7 16-11 22-18 19-20 35-39 5-6 15-14 16-21-15 3-38 15-48 26-8 10-17 32-19 45zm124-55l-11 25-12 5-22 6V85l21-1h24zm222 1v16l-1 19-23-6-10-5c-4-4-9-19-11-25h25l20 1zm-177 4c-2 5-10 16-15 19s-25 2-32 2l7-18 4-6 9-1 27 4zm134 21c-7 0-25 1-31-2-6-2-14-13-16-19l23-3h12l5 6 7 18zm-99-8c-5 5-14 12-21 11l-20-2c2-4 11-17 15-18 2-1 6 1 8 2l18 7zm203-11l13 18 6 20 7 23c-10-13-25-19-37-30-6-4-10-12-15-15 0 6 1 9 3 15 8 24 27 33 45 48l20 20-1-23v-29c0-17-10-32-24-41-6-4-10-6-17-6zm-145 20l-25 1-15-8v-2c4-3 19-10 24-9 6 1 13 13 16 18zM38 193c7-3 12-13 18-19l28-22c11-11 20-27 20-43-7 5-6 9-16 17-10 9-30 19-35 31l3-16c3-10 5-22 10-31 4-6 9-10 12-16-10 0-16 5-23 11a48 48 0 00-17 39l-1 10 1 11v28zm254-78v2c-5 2-12 6-17 6-5 1-14-4-18-6 3-3 15-12 19-11 3 0 13 7 16 9zm-80 0l-8 17-22 7v-24h30zm155 0v24c-5-1-18-4-22-7s-7-12-8-17h30zm-123 3l-11 13-21 1 7-15 9-1 16 2zm93 15c-15 0-26 2-32-15l16-2 9 1c2 2 6 13 7 16zm-163-14c0 5 1 18-2 22-1 2-5 3-7 4l-18 8-3-16v-8l7-3 23-7zm228 34c-6-1-24-8-26-14-3-6-2-13-1-20l19 6 8 4 2 5-2 19zm-128-24l-10 26-26-19 9 27-36-6 27 19c-5 4-29 9-36 10v2l36 9c-4 5-21 17-27 20 8 2 27-4 36-5l-9 26c9-6 17-15 27-18l9 26c-4 1-19 7-22 6-5 0-11-9-16-12s-19-3-25-3l-2-17-19-13 9-20-9-20c5-3 16-8 19-12 3-5 0-12 4-15 2-3 16-2 20-4 8-2 11-11 17-14 5-2 19 5 24 7zm12 26l-9-27c11-4 19-10 28 0 2 2 5 6 4 9l-6 6c-4 4-12 10-17 12zm225-31c2 12 7 11 7 31l-2 28v27l-8-16c-7-10-16-16-25-24-4-4-11-13-15-15 0 29 24 49 38 72l8 15c2 4 2 9 6 12l15-49c4-18 2-40-5-57-4-9-10-20-19-24zM29 257h4c1-13 10-27 18-37 13-18 29-38 29-62l-13 14c-12 11-31 25-33 43l-1-23-3-39 6-25c-2 1-2 0-3 2a85 85 0 00-17 81c4 15 13 30 13 46zm106-124l3 22c0 7-13 17-19 20l-5-21c1-6 16-17 21-21zm281 1c4 4 17 14 18 19 2 4-4 18-5 23-6-4-17-13-19-20l2-12c0-4 1-7 4-10zm-78 4v19l-34 6 7-19 3-6h24zm-133 2c0 4 0 10-2 13-2 4-12 8-17 9-1-4-4-11-2-15 2-5 16-7 21-7zm161 5l-3 17c-5-1-14-4-17-8-2-4-2-10-2-14l22 5zm-190 2c1 5 4 14 2 19l-4 6c-2 2-6 6-9 6-2 0-4-2-5-4l-9-15 25-12zm221 12l-12 21c-5-3-14-10-15-16-1-4 2-13 4-17l23 12zm99-7v1l-1-1h1zm-138 15c-2 5-6 14-11 17-3 2-7 0-10 0-6-2-20-4-25-7l19-13 10-5 17 8zm-213-4c3 5 13 19 13 24 1 3-1 6-3 9-3 5-6 11-11 15-4-5-17-18-17-24 0-3 2-6 3-8l13-16h2zm261 1c3 5 16 18 16 23 0 6-13 19-17 24-5-4-14-16-15-22-1-7 11-21 16-25zm-221 8c2 3 8 11 8 15 0 3-6 13-8 16-4-3-14-11-14-16s10-12 14-15zm180 31c-4-3-10-11-10-16 0-3 2-6 3-8 2-2 5-6 7-6s5 3 7 5l7 8c1 5-10 14-14 17zm-7 5l-15 7-9-3-21-13v-2l25-6c3-1 7-2 10-1 3 2 9 14 10 18zm184-16c0 11 0 19-3 30l-21 55-4-21-19-34-10-17c0 24 3 37 9 60l9 29c2 7 1 20 1 28 7-4 14-15 19-21l14-19c7-10 13-30 13-42 0-13 2-38-8-48zm-366 35l-25-11 12-21c7 3 17 11 16 19l-3 13zm209-32c3 3 12 16 11 20 0 2-4 3-6 4l-17 8c-1-4-4-12-3-16 0-6 10-13 15-16zM6 196c-3 10-6 17-6 28v20c0 9 5 26 8 34 5 10 13 19 20 27 5 6 11 17 18 20v-23l14-50c4-17 4-27 4-44l-10 19c-12 20-21 31-21 55l-4-12-8-21-11-28-4-25zm116 3c4 4 15 14 16 19 1 4-2 18-3 23l-21-17v-8c2-6 3-13 8-17zm307 0c2 5 7 18 6 22-2 6-16 17-21 20l-3-22c1-6 13-17 18-20zm-91 38c-4 0-20 1-23-1-4-3-10-19-11-24l24 4c3 0 7 1 9 3 2 3 1 15 1 18zm25-25l3 18-22 5c0-4 0-10 2-14 3-4 12-8 17-9zm-158 23l-23-5c0-4 2-14 5-16 3-1 6 1 8 2 11 4 10 8 10 19zm83-16l14 11 7 7c2 4-2 7-4 10-2 2-4 5-7 6s-17-5-21-7c1-6 7-22 11-27zm114 2l3 26-31 8c0-5 0-15 2-20 3-5 20-12 26-14zm-228 34l-30-8 3-25c6 1 22 8 25 12s2 16 2 21zm38 4h-30v-23l22 7c3 2 7 12 8 16zm155-23v23h-30c1-4 5-13 8-16 4-4 16-7 22-7zm-124 20l-20 2c-5-1-10-11-11-16 14 0 26-2 31 14zm93-13c-1 4-3 12-7 14s-19-1-24-1c2-4 6-10 10-12 3-2 17-1 21-1zm-43 14c-2 4-13 10-17 11-5 1-17-7-20-11l18-5 19 5zm-107 34h-13l-12-1h-20v-35c5 0 20 5 25 6l9 5c4 4 9 20 11 25zm221-36l1 20v15h-21l-11 1h-13c1-5 7-21 10-25 3-3 7-4 11-5l23-6zm-142 18c-6 2-19 9-24 8-6 0-13-12-16-17l24-2 10 5 6 6zm59-9c-3 5-11 16-16 17-4 1-20-6-25-8 4-5 12-11 18-12 5-1 17 3 23 3zm-93 22l-25 4h-11l-4-7-8-19c7 0 25-1 31 2 6 2 15 14 17 20zm134-22l-7 19-5 6h-11l-24-3c2-6 11-18 16-20 6-3 24-2 31-2zm124 1c-13 31-9 48-14 79-1 7-2 15-5 22-2 7-5 10-6 18 6-2 23-13 29-18l22-14c17-13 35-37 35-59v-23c-6 9-4 17-16 30-10 12-34 31-39 45l2-17v-10l-6-44v-9h-2zm-429 4l-7 59 4 20c-6-7-6-9-14-17-15-15-39-35-41-57H0v20c0 9 2 15 5 23 11 25 29 37 51 52 8 5 23 15 31 17l-8-22c-3-12-7-40-8-53-1-11-3-34-11-42zm241 19c-4 5-13 12-19 15-2 1-5 3-8 3s-7-2-9-4c-5-3-13-9-17-14 4-2 21-10 25-10 6-1 22 7 28 10zm-84 55l-18-45 26-5c3-1 9-2 12-1 4 0 11 6 15 9 3 2 12 7 12 11 0 3-8 7-11 9-10 6-26 18-36 22zm132-45c-2 10-13 35-18 45l-47-30c2-5 6-7 10-10s14-10 18-11c3-1 9 1 12 1l25 5zm61 128c8 0 20-3 28-5l30-7c28-10 64-41 65-73-7 6-10 15-25 26-12 8-24 13-37 19l-23 14c5-9 8-11 11-21 5-12 5-24 7-36l7-24c-8 3-12 11-17 18-17 24-16 39-27 62l-9 15c-4 5-7 6-10 12zM78 322l6 25c5 23 4 40 22 58l-22-14c-15-7-30-13-44-23-6-4-9-7-14-13-3-4-5-8-9-11 2 28 32 59 57 69 15 7 31 9 47 11l20 4c-3-6-8-10-11-15l-10-16c-11-24-9-34-26-58-5-6-9-13-16-17zm416 23v1l-1-1h1zm-155 92c3 4 7 4 11 5l25 5c34 8 64 9 94-12 9-6 20-17 23-28-8 3-12 11-27 16-16 6-33 6-49 7l-28 4c8-4 12-5 19-11 8-8 14-22 19-32 3-5 7-10 9-16-11 2-26 17-34 25-16 16-38 36-62 37zm-223-60c2 6 7 14 11 20 8 15 17 34 35 37l-31-2c-12 0-36-3-47-7-12-5-17-12-25-15 3 10 13 20 21 26 24 18 53 21 82 16l50-11c-3-4-8-4-12-6l-20-8c-8-5-31-26-39-33-7-7-15-14-25-17zm332 23v1l-1-1h1zm-1 1v1l-1-1h1zm-1 1v1l-1-1h1zm-339 3v1l-1-1h1zm1 1v1l-1-1h1zm-3 49c5 10 17 17 27 21 25 10 50 9 74-4 16-8 32-25 50-25h4c-16 9-30 16-44 28-3 3-12 10-13 13-2 5 9 11 13 9 4-1 10-9 13-12 8-8 22-19 32-25 4-3 10-7 15-7s13 6 17 8c13 9 25 20 37 31 5 5 9 7 15 2l4-4c2-5-8-11-11-14-14-11-29-20-45-28 17-4 32 10 45 19 26 16 58 19 86 5 9-4 20-10 23-20l-21 8c-7 2-23 3-30 2-29-4-51-24-82-24h-20l-18 3-28-3c-14 0-28 2-41 7-18 6-34 16-53 19-10 1-21 0-31-3-7-2-11-5-18-6z"/>
</svg>
